<svg width="94" height="95" viewBox="0 0 94 95" fill="none" xmlns="http://www.w3.org/2000/svg">
<g clip-path="url(#clip0_562_7896)">
<path d="M61.1431 11.0431L79.7776 13.9503L78.7115 20.7843L65.1406 18.6671L61.7618 25.9174L77.7632 28.4138L64.1945 88.5229L21.5206 81.8653L25.3656 37.936C19.2673 35.532 15.1537 29.206 16.2289 22.3139C17.4657 14.3865 24.9111 9.08673 32.7329 10.307C39.3934 11.3461 44.3521 16.7995 44.9198 23.2898L54.7232 24.8193L61.1431 11.0431ZM51.6822 31.3452L33.0645 28.4406L32.0049 40.4629L45.3821 44.8635L51.6822 31.3452ZM46.1045 52.3791L31.3852 47.5381L28.8928 76.0151L58.9512 80.7045L64.0006 58.3352L46.1175 52.3846L46.1045 52.3791ZM65.5314 51.5597L69.4694 34.1202L58.7174 32.4428L51.9189 47.0279L65.5314 51.5597ZM37.7298 22.1646C37.2662 20.8481 36.4573 19.685 35.3895 18.7996C34.3217 17.9142 33.0352 17.3397 31.6672 17.1376C27.4435 16.4822 23.608 19.3454 22.9806 23.3672C22.5557 26.0906 23.7891 28.8241 26.0242 30.4784L26.903 20.479L37.7298 22.1646Z" fill="#78BEC8"/>
</g>
<defs>
<clipPath id="clip0_562_7896">
<rect width="82" height="83" fill="white" transform="translate(12.7939) rotate(8.8673)"/>
</clipPath>
</defs>
</svg>
