<svg width="108" height="160" viewBox="0 0 108 160" fill="none" xmlns="http://www.w3.org/2000/svg">
<path d="M9.19622 153.387C8.75975 153.586 8.31377 153.766 7.8773 153.937V158.368C7.8773 159.232 7.4788 159.678 6.71023 159.678H5.4957L5.28695 158.662C5.64751 158.71 5.99858 158.738 6.34966 158.738C6.67227 158.738 6.83358 158.53 6.83358 158.103V154.317C6.34967 154.468 5.85626 154.62 5.37234 154.753L5.09717 153.709C5.68546 153.586 6.26427 153.434 6.83358 153.273V149.762H5.33438V148.747H6.83358V145.919H7.8773V148.747H9.13929V149.762H7.8773V152.903C8.33275 152.723 8.77872 152.542 9.19622 152.343V153.387ZM14.1208 146.327V151.204H11.6442C11.6253 151.869 11.5968 152.495 11.5399 153.102H14.1872C14.1872 155.882 14.1113 157.6 13.9784 158.254C13.8551 159.165 13.2193 159.64 12.0902 159.64C11.9194 159.64 11.6537 159.621 11.2552 159.592L11.0275 158.681C11.3786 158.71 11.6822 158.729 11.9574 158.729C12.5646 158.729 12.9157 158.444 13.0011 157.875C13.096 157.448 13.1529 156.186 13.1814 154.089H11.4355C11.1034 156.67 10.3918 158.539 9.32904 159.697L8.50354 159.061C9.86989 157.676 10.5815 155.066 10.6575 151.214H9.794V146.337H14.1208V146.327ZM13.1339 147.286H10.7998V150.237H13.1339V147.286ZM16.2367 147.257V156.736H15.2594V147.257H16.2367ZM15.5061 159.725L15.2784 158.71C15.8667 158.757 16.436 158.786 16.9673 158.786C17.3279 158.786 17.5271 158.587 17.5271 158.207V145.967H18.5804V158.463C18.5804 159.298 18.1534 159.725 17.3374 159.725H15.5156H15.5061Z" fill="#78BEC8"/>
<path d="M46.0304 146.337H47.0457V148.557H41.8839C42.0168 148.861 42.1591 149.193 42.2919 149.563H48.1558V150.455H35.3179V149.563H41.2387C41.0869 149.202 40.9351 148.861 40.7548 148.557H36.4565V146.337H37.4718V147.656H41.2387V145.919H42.2729V147.656H46.0209V146.337H46.0304ZM44.7684 159.735L44.5881 158.995H38.8476V156.414H44.6546V158.843L45.8691 158.871C46.3246 158.871 46.5712 158.662 46.5712 158.264V155.579H36.9404V159.858H35.8777V154.725H47.634V158.492C47.634 159.308 47.1501 159.735 46.1727 159.735H44.7779H44.7684ZM45.8881 151.347V153.899H37.5761V151.347H45.8881ZM44.8254 152.153H38.6484V153.093H44.8254V152.153ZM43.6678 157.192H39.806V158.207H43.6678V157.192Z" fill="#78BEC8"/>
<path d="M64.8656 150.303L64.2773 149.497C65.4729 148.51 66.5736 147.352 67.5414 146.052H68.272C69.2778 146.887 70.2267 147.789 71.1755 148.728L70.4733 149.468C69.515 148.462 68.68 147.665 67.9684 147.086C67.5319 147.646 67.0765 148.178 66.621 148.681H69.5055V149.563H66.5451V148.756C66.0138 149.307 65.4539 149.819 64.8751 150.303H64.8656ZM65.0744 158.691C65.3211 158.615 65.4539 158.482 65.4539 158.283V150.521H70.2836V155.759H66.4597V158.406C67.494 158.122 68.4144 157.827 69.2114 157.543C69.0121 157.144 68.8129 156.784 68.6231 156.452L69.5055 156.176C69.961 156.964 70.388 157.79 70.7485 158.662C71.9346 157.733 72.7221 156.613 73.1491 155.294C73.5097 154.032 73.6995 152.419 73.6995 150.483H74.6863C74.6863 151.375 74.6388 152.21 74.5629 152.969C75.2745 155.522 76.5365 157.543 78.3488 159.033L77.6372 159.868C76.1475 158.53 75.0373 156.86 74.2783 154.886L74.1454 155.446C73.671 157.22 72.5988 158.681 70.9098 159.82L70.3215 159.08L69.9705 159.251C69.8471 158.928 69.7238 158.643 69.6099 158.368C68.3764 158.824 66.9816 159.222 65.416 159.564L65.0934 158.7L65.0744 158.691ZM69.2968 151.432H66.4597V152.675H69.2968V151.432ZM66.4597 154.82H69.2968V153.577H66.4597V154.82ZM73.5476 146.024C73.4433 146.84 73.3009 147.618 73.1491 148.32H77.77V149.022C77.5423 150.332 77.2387 151.622 76.8781 152.893L75.8344 152.59C76.1665 151.65 76.4606 150.569 76.6694 149.373H72.9024C72.5418 150.635 72.0674 151.669 71.4886 152.457L70.6536 151.869C71.6215 150.426 72.2477 148.424 72.5324 145.872L73.5476 146.043V146.024Z" fill="#78BEC8"/>
<path d="M101.453 149.06C102.724 150.55 104.897 151.84 108 152.96L107.411 153.89C104.555 152.846 102.411 151.537 101.016 149.99C99.3462 151.688 97.2208 152.998 94.6684 153.928L94.0801 152.998C96.9077 151.992 99.0805 150.673 100.599 149.06H101.462H101.453ZM97.7616 147.134V145.938H98.8433V147.134H100.646V148.121H98.8433V149.411H97.7616V148.121H94.4786V147.134H97.7616ZM98.8243 156.082C97.8945 157.353 96.8033 158.463 95.5318 159.393L94.6684 158.767C95.9303 157.884 97.0215 156.841 97.9324 155.626L98.8338 156.082H98.8243ZM101.557 152.039V153.804H105.495V154.848H101.557V159.782H100.494V154.848H96.4712V153.804H100.494V152.039H101.557ZM104.309 145.938V147.134H107.592V148.121H104.309V149.411H103.227V148.121H101.405V147.134H103.227V145.938H104.309ZM107.449 158.786L106.586 159.412C105.751 158.378 104.612 157.258 103.18 156.015L104.034 155.503C105.523 156.765 106.662 157.856 107.449 158.795V158.786Z" fill="#78BEC8"/>
<path d="M27.3758 153.302C27.7846 153.302 28.1159 152.97 28.1159 152.561C28.1159 152.153 27.7846 151.821 27.3758 151.821C26.9671 151.821 26.6357 152.153 26.6357 152.561C26.6357 152.97 26.9671 153.302 27.3758 153.302Z" fill="#78BEC8"/>
<path d="M56.1927 153.302C56.6015 153.302 56.9328 152.97 56.9328 152.561C56.9328 152.153 56.6015 151.821 56.1927 151.821C55.784 151.821 55.4526 152.153 55.4526 152.561C55.4526 152.97 55.784 153.302 56.1927 153.302Z" fill="#78BEC8"/>
<path d="M86.328 153.302C86.7367 153.302 87.0681 152.97 87.0681 152.561C87.0681 152.153 86.7367 151.821 86.328 151.821C85.9192 151.821 85.5879 152.153 85.5879 152.561C85.5879 152.97 85.9192 153.302 86.328 153.302Z" fill="#78BEC8"/>
<path d="M87.5048 1.97836C84.7247 -0.659452 80.2176 -0.659452 77.4375 1.97836L70.9473 8.1459C66.7629 5.91609 61.9427 4.63514 56.8095 4.63514C40.8403 4.63514 27.8505 16.9797 27.8505 32.1424C27.8505 40.4164 31.7218 47.8364 37.8134 52.8843C31.0386 58.1314 26.6929 66.1208 26.6929 75.059C26.6929 78.75 27.4425 82.2702 28.7993 85.5153L40.9921 73.9393C41.5994 66.1492 48.4501 59.9817 56.8095 59.9817C65.1688 59.9817 72.6838 66.747 72.6838 75.059C72.6838 83.3709 65.5674 90.1362 56.8095 90.1362C49.4748 90.1362 43.3073 85.3825 41.495 78.9493L30.6781 89.2253L24.1974 95.3739C21.4173 98.0117 21.4173 102.291 24.1974 104.938C25.5827 106.257 27.4045 106.921 29.2263 106.921C31.0481 106.921 32.8699 106.257 34.2552 104.938L40.4513 99.046C45.1576 101.949 50.7747 103.648 56.8 103.648C73.4049 103.648 86.9071 90.8194 86.9071 75.0495C86.9071 66.1113 82.5708 58.1219 75.7865 52.8748C81.8876 47.8269 85.7495 40.4069 85.7495 32.1329C85.7495 28.1857 84.8575 24.4377 83.273 21.0408L71.5167 32.2088C71.4692 39.885 64.8842 46.119 56.8 46.119C48.7157 46.119 42.0738 39.8471 42.0738 32.1329C42.0738 24.4187 48.6778 18.1468 56.8 18.1468C63.2142 18.1468 68.6701 22.0656 70.6817 27.512L81.2709 17.4541L87.4953 11.5428C90.2755 8.90498 90.2755 4.62566 87.4953 1.97836H87.5048Z" fill="#78BEC8"/>
<path d="M17.6122 47.7984C17.6122 47.7984 17.5648 47.7984 17.5363 47.7984C17.1947 47.7699 9.04405 47.0963 5.05887 43.7183C4.88807 43.5665 4.71729 43.4147 4.56547 43.2629C3.3035 42.0009 2.61084 40.3214 2.61084 38.5376C2.61084 36.7538 3.3035 35.0743 4.56547 33.8028C7.17482 31.1935 11.4162 31.1935 14.016 33.8028C14.1584 33.9452 14.3102 34.116 14.443 34.2678C17.8399 38.2814 18.5231 46.4226 18.5515 46.7736C18.5705 47.0488 18.4757 47.324 18.2764 47.5232C18.0961 47.7035 17.8589 47.7984 17.6027 47.7984H17.6122ZM9.30024 33.7459C8.01929 33.7459 6.81427 34.2393 5.91286 35.1502C5.00196 36.0516 4.50854 37.2567 4.50854 38.5376C4.50854 39.8186 5.01145 41.0141 5.91286 41.9155C6.03621 42.0389 6.17852 42.1622 6.31136 42.2761C8.99661 44.5533 14.2248 45.4642 16.54 45.7679C16.2364 43.4527 15.3255 38.2245 13.0292 35.5203C12.9154 35.3969 12.8015 35.2641 12.6781 35.1407C11.7767 34.2393 10.5717 33.7459 9.29077 33.7459H9.30024Z" fill="#78BEC8"/>
<path d="M7.54502 69.6884C5.10647 69.6884 2.71534 68.5118 1.2636 66.3389C-1.04211 62.8851 -0.10274 58.1978 3.35108 55.8921C3.55034 55.7592 3.76859 55.6264 3.98683 55.503C9.215 52.609 18.4948 53.6717 18.8838 53.7192C19.159 53.7476 19.4057 53.8995 19.5575 54.1367C19.7093 54.3644 19.7567 54.6585 19.6808 54.9242C19.5765 55.3038 16.9956 64.2799 12.3272 67.9804C12.1185 68.1417 11.9192 68.2936 11.72 68.4264C10.439 69.2804 8.98728 69.6884 7.54502 69.6884ZM14.4242 55.3892C11.4353 55.3892 7.51654 55.7118 4.91668 57.1445C4.75538 57.2394 4.57509 57.3438 4.4043 57.4577C1.81393 59.1846 1.12127 62.6858 2.83869 65.2762C4.56561 67.8666 8.07638 68.5592 10.6573 66.8418C10.8281 66.7279 10.9988 66.5951 11.1601 66.4718C14.4337 63.8719 16.6825 57.9511 17.508 55.4935C16.7489 55.4366 15.6672 55.3797 14.4242 55.3797V55.3892Z" fill="#78BEC8"/>
<path d="M14.8513 131.003C14.4149 130.652 13.9215 130.424 13.3806 130.339C14.1587 130.083 14.7849 129.675 15.2593 129.106C15.7432 128.527 15.9805 127.787 15.9805 126.904C15.9805 126.193 15.8002 125.557 15.4491 124.988C15.0886 124.418 14.5572 123.972 13.8456 123.64C13.1339 123.299 12.2705 123.128 11.2647 123.128H5.93213V138.006H11.4829C12.4792 138.006 13.3427 137.835 14.0638 137.493C14.8039 137.142 15.3637 136.658 15.7528 136.061C16.1323 135.453 16.3315 134.77 16.3315 134.011C16.3315 133.413 16.1987 132.854 15.9235 132.322C15.6674 131.8 15.3163 131.354 14.8608 131.003H14.8513ZM7.87726 124.731H11.1034C12.0427 124.731 12.7639 124.94 13.2573 125.367C13.7507 125.794 14.0069 126.382 14.0069 127.141C14.0069 127.901 13.7602 128.489 13.2573 128.916C12.7639 129.343 12.0522 129.552 11.1413 129.552H7.87726V124.731ZM13.5704 135.719C13.0295 136.175 12.28 136.402 11.3121 136.402H7.87726V131.155H11.2457C12.1946 131.155 12.9631 131.392 13.5324 131.876C14.1018 132.341 14.3864 132.996 14.3864 133.821C14.3864 134.647 14.1112 135.264 13.5799 135.719H13.5704Z" fill="#78BEC8"/>
<path d="M104.404 123.109V134.931L96.5945 123.109H94.6494V138.006H96.5945V126.164L104.404 138.006H106.349V123.109H104.404Z" fill="#78BEC8"/>
<path d="M86.594 123.944C85.4553 123.289 84.1934 122.967 82.7985 122.967C81.4037 122.967 80.1607 123.289 79.0221 123.944C77.8835 124.58 76.9821 125.49 76.3084 126.658C75.6537 127.806 75.3311 129.115 75.3311 130.567C75.3311 132.019 75.6537 133.328 76.3084 134.495C76.9726 135.643 77.8835 136.554 79.0221 137.209C80.1607 137.845 81.4227 138.167 82.7985 138.167C84.1744 138.167 85.4553 137.845 86.594 137.209C87.7326 136.554 88.6245 135.653 89.2792 134.495C89.9339 133.347 90.2565 132.038 90.2565 130.567C90.2565 129.096 89.9244 127.796 89.2792 126.639C88.6245 125.49 87.7326 124.589 86.594 123.953V123.944ZM87.5523 133.679C87.0873 134.571 86.4327 135.264 85.5882 135.748C84.7627 136.232 83.8328 136.469 82.789 136.469C81.7453 136.469 80.8154 136.232 79.971 135.748C79.1455 135.264 78.4907 134.571 78.0068 133.679C77.5419 132.787 77.3047 131.743 77.3047 130.567C77.3047 129.39 77.5419 128.337 78.0068 127.455C78.4907 126.563 79.1455 125.87 79.971 125.386C80.7965 124.902 81.7358 124.665 82.789 124.665C83.8423 124.665 84.7816 124.902 85.6071 125.386C86.4326 125.87 87.0779 126.563 87.5523 127.455C88.0362 128.337 88.2734 129.371 88.2734 130.567C88.2734 131.762 88.0362 132.787 87.5523 133.679Z" fill="#78BEC8"/>
<path d="M31.9777 123.944C30.8391 123.289 29.5771 122.967 28.1823 122.967C26.7875 122.967 25.5445 123.289 24.4059 123.944C23.2673 124.58 22.3658 125.49 21.6922 126.658C21.0375 127.806 20.7148 129.115 20.7148 130.567C20.7148 132.019 21.0375 133.328 21.6922 134.495C22.3564 135.643 23.2673 136.554 24.4059 137.209C25.5445 137.845 26.8065 138.167 28.1823 138.167C29.5582 138.167 30.8391 137.845 31.9777 137.209C33.1164 136.554 34.0083 135.653 34.663 134.495C35.3177 133.347 35.6403 132.038 35.6403 130.567C35.6403 129.096 35.3177 127.796 34.663 126.639C34.0083 125.49 33.1164 124.589 31.9777 123.953V123.944ZM32.9361 133.679C32.4711 134.571 31.8164 135.264 30.9719 135.748C30.1464 136.232 29.2166 136.469 28.1728 136.469C27.1291 136.469 26.1992 136.232 25.3547 135.748C24.5292 135.264 23.8745 134.571 23.3906 133.679C22.9257 132.787 22.6885 131.743 22.6885 130.567C22.6885 129.39 22.9257 128.337 23.3906 127.455C23.8745 126.563 24.5292 125.87 25.3547 125.386C26.1802 124.902 27.1196 124.665 28.1728 124.665C29.2261 124.665 30.1654 124.902 30.9909 125.386C31.8164 125.87 32.4616 126.563 32.9361 127.455C33.42 128.337 33.6572 129.371 33.6572 130.567C33.6572 131.762 33.42 132.787 32.9361 133.679Z" fill="#78BEC8"/>
<path d="M54.285 130.519C53.6872 130.254 52.8997 129.979 51.9129 129.713C51.1064 129.485 50.4706 129.286 50.0152 129.115C49.5787 128.935 49.1992 128.669 48.886 128.328C48.5919 127.986 48.4401 127.55 48.4401 127.009C48.4401 126.259 48.6963 125.671 49.2086 125.263C49.721 124.836 50.3852 124.627 51.1918 124.627C52.0552 124.627 52.7574 124.845 53.2792 125.291C53.8011 125.718 54.1047 126.212 54.1711 126.781H56.3061C56.1922 125.633 55.6893 124.703 54.7879 124.01C53.9055 123.318 52.7668 122.967 51.372 122.967C50.4042 122.967 49.5408 123.137 48.7912 123.479C48.0511 123.821 47.4723 124.304 47.0643 124.931C46.6468 125.557 46.4475 126.278 46.4475 127.085C46.4475 128.005 46.6562 128.745 47.0643 129.305C47.4912 129.846 47.9941 130.244 48.5824 130.5C49.1802 130.757 49.9677 131.013 50.9546 131.269C51.7516 131.478 52.3873 131.677 52.8523 131.867C53.3172 132.047 53.7157 132.322 54.0288 132.673C54.3419 133.024 54.4938 133.489 54.4938 134.059C54.4938 134.78 54.2281 135.378 53.6872 135.852C53.1654 136.307 52.4348 136.535 51.5144 136.535C50.594 136.535 49.8064 136.298 49.2941 135.833C48.8007 135.349 48.516 134.761 48.4401 134.059H46.3716C46.3811 134.865 46.6088 135.586 47.0548 136.213C47.4912 136.82 48.0985 137.304 48.8671 137.664C49.6451 138.006 50.5276 138.177 51.5144 138.177C52.5012 138.177 53.4311 137.977 54.1806 137.579C54.9302 137.18 55.4995 136.658 55.8886 136.023C56.2776 135.387 56.4674 134.704 56.4674 133.973C56.4674 133.034 56.2491 132.294 55.8316 131.753C55.4047 131.203 54.8923 130.795 54.2945 130.538L54.285 130.519Z" fill="#78BEC8"/>
<path d="M68.765 130.519C68.1672 130.254 67.3797 129.979 66.3929 129.713C65.5863 129.485 64.9506 129.286 64.4952 129.115C64.0587 128.935 63.6791 128.669 63.366 128.328C63.0719 127.986 62.9201 127.55 62.9201 127.009C62.9201 126.259 63.1762 125.671 63.6886 125.263C64.201 124.836 64.8652 124.627 65.6717 124.627C66.5352 124.627 67.2373 124.845 67.7592 125.291C68.2811 125.718 68.5847 126.212 68.6511 126.781H70.786C70.6722 125.633 70.1693 124.703 69.2679 124.01C68.3854 123.318 67.2468 122.967 65.852 122.967C64.8842 122.967 64.0207 123.137 63.2711 123.479C62.531 123.821 61.9522 124.304 61.5442 124.931C61.1362 125.557 60.9275 126.278 60.9275 127.085C60.9275 128.005 61.1362 128.745 61.5442 129.305C61.9712 129.846 62.4741 130.244 63.0624 130.5C63.6602 130.757 64.4477 131.013 65.4345 131.269C66.2315 131.478 66.8673 131.677 67.3322 131.867C67.7971 132.047 68.1957 132.322 68.5088 132.673C68.8219 133.024 68.9737 133.489 68.9737 134.059C68.9737 134.78 68.7081 135.378 68.1672 135.852C67.6453 136.307 66.9147 136.535 65.9943 136.535C65.0739 136.535 64.2864 136.298 63.774 135.833C63.2806 135.349 62.996 134.761 62.9201 134.059H60.8516C60.8705 134.865 61.0888 135.586 61.5347 136.213C61.9712 136.82 62.5785 137.304 63.347 137.664C64.1251 138.006 65.0075 138.177 65.9943 138.177C66.9811 138.177 67.911 137.977 68.6606 137.579C69.4102 137.18 69.9795 136.658 70.3686 136.023C70.7576 135.387 70.9473 134.704 70.9473 133.973C70.9473 133.034 70.7291 132.294 70.3116 131.753C69.8846 131.203 69.3723 130.795 68.7745 130.538L68.765 130.519Z" fill="#78BEC8"/>
<path d="M41.9788 123.128H40.0337V138.006H41.9788V123.128Z" fill="#78BEC8"/>
</svg>
