<?xml version="1.0" encoding="UTF-8"?>
<svg id="_曲線" data-name="曲線" xmlns="http://www.w3.org/2000/svg" xmlns:xlink="http://www.w3.org/1999/xlink" viewBox="0 0 407.26 312.4">
  <defs>
    <style>
      .cls-1 {
        fill: none;
      }

      .cls-2 {
        clip-path: url(#clippath);
      }

      .cls-3 {
        fill: #fff;
      }

      .cls-4 {
        fill: url(#_未命名漸層_46);
      }

      .cls-5 {
        opacity: .4;
      }
    </style>
    <clipPath id="clippath">
      <rect class="cls-1" width="407.26" height="312.4"/>
    </clipPath>
    <radialGradient id="_未命名漸層_46" data-name="未命名漸層 46" cx="212.93" cy="135.15" fx="212.93" fy="135.15" r="20.44" gradientUnits="userSpaceOnUse">
      <stop offset="0" stop-color="#4ab7ed"/>
      <stop offset=".03" stop-color="#4dc2d5"/>
      <stop offset="1" stop-color="#419298"/>
    </radialGradient>
  </defs>
  <g class="cls-2">
    <g>
      <g class="cls-5">
        <path class="cls-3" d="M-66.61-40.02C-47.63-29.99-27.57-22.21-8.88-11.56,12.9,.86,34,16.84,46.14,39.3c2.91,5.39,5.28,11.01,8.56,16.21,2.92,4.62,6.24,8.99,9.93,13.02,7.05,7.71,15.4,14.14,24.45,19.34,17.88,10.28,38,15.79,57.98,20.31,16.88,3.81,34.8,6.27,50.71,13.38,7.34,3.28,13.25,7.78,17.46,14.74,7.95,13.15,8.23,29.35,7.84,44.25-.17,6.52-.69,13.03,.18,19.52,.75,5.67,2.35,11.21,4.79,16.39,5.79,12.24,16.35,22.32,28.1,28.85,10.77,5.97,24.17,7.63,36.11,9.7,7.51,1.3,15.04,2.51,22.54,3.88s15,2.58,22.06,5.16c12.74,4.65,21.55,14.46,31.28,23.39,10.23,9.39,22.01,16.49,35.28,20.69,26.01,8.23,55.4,5.5,79.44-7.4,5.9-3.17,11.43-6.96,16.54-11.29,.37-.31-.16-.84-.53-.53-22.14,18.77-52.57,26.44-81.1,21.85-14.09-2.27-27.81-7.53-39.42-15.88-10.36-7.45-18.33-17.66-28.77-24.99-11.76-8.25-26.15-10.27-39.99-12.68s-28.3-4.23-41.98-8.22-24.99-12.42-33.2-23.44c-7.74-10.38-11.27-22.92-10.88-35.8,.65-21.8,2.69-51.46-18.37-65.09-5.95-3.86-12.8-6.25-19.56-8.24-8.42-2.48-17.03-4.3-25.6-6.16-19.89-4.3-39.97-8.65-58.63-16.99-19.99-8.94-37.42-22.74-48.31-41.99-3.07-5.42-5.4-11.19-8.65-16.51s-6.68-9.81-10.61-14.25C25.73,11.41,16.26,3.68,6.22-3.1-12.85-15.98-33.91-25.2-54.65-34.96c-3.9-1.83-7.78-3.7-11.58-5.71-.43-.23-.81,.42-.38,.65h0Z"/>
        <path class="cls-3" d="M19.86-50.46c14.42,12.7,29.82,24.23,44.67,36.41,9.46,7.76,19.48,15.39,27.58,24.61,7.48,8.52,12.94,18.48,20.78,26.73,13.31,14.02,30.15,23.95,48,31.07s37.97,10.95,56.07,18.86c8.24,3.61,16.65,8.32,21.99,15.79,6.57,9.19,8.61,20.89,9.4,31.92,.73,10.18-.29,20.64,1.47,30.71,1.51,8.64,5.22,16.73,10.66,23.6,6.19,7.81,14.67,14.87,23.88,18.81,10.17,4.35,21.37,6.36,32.22,8.16,12.36,2.05,24.95,3.53,36.95,7.3,10.11,3.18,18.63,9.11,26.8,15.68s16.21,13,25.54,17.77c10.1,5.16,21.05,8.74,32.33,10.12,21.27,2.61,42.72-2.99,60.55-14.73,4.59-3.02,8.92-6.43,13-10.11,.36-.32-.17-.85-.53-.53-16.86,15.2-38.35,24.96-61.24,25.26s-45.41-9.39-63.64-23.92c-7.29-5.81-14.4-11.95-22.75-16.23-10.11-5.18-21.65-7.25-32.76-9.15-11.85-2.03-23.77-3.5-35.39-6.68-4.84-1.32-9.7-2.88-14.14-5.24-4.99-2.65-9.66-6.24-13.79-10.07-7.13-6.62-12.71-14.82-15.52-24.18s-2.19-19.66-2.52-29.59c-.35-10.56-1.3-21.45-5.46-31.27-3.38-7.97-8.82-14.02-16.11-18.6-16.51-10.39-36.43-13.87-54.7-20-17.94-6.02-35.39-14.09-50.06-26.23-8.43-6.98-15.67-15.15-21.73-24.25-3-4.5-6.24-8.81-9.89-12.81-4.25-4.66-9.05-8.72-13.84-12.8-15.55-13.26-31.81-25.64-47.55-38.67-3.28-2.72-6.53-5.47-9.72-8.29-.36-.32-.89,.21-.53,.53h0Z"/>
        <path class="cls-3" d="M106.34-60.92c3.6,5.75,5.72,11.9,7.56,18.38,1.54,5.43,3.5,10.53,7.05,14.99,6.09,7.65,14.83,12.04,22.24,18.18,8.42,6.97,15.6,15.25,24.13,22.12,14.34,11.56,30.45,20.58,47.33,27.85,15.31,6.6,32.15,11.19,44.2,23.39,14.55,14.73,14.64,36.17,16.01,55.54,.57,8.04,1.94,15.73,5.63,22.98,4.03,7.91,10.15,14.52,17.18,19.85s15.42,8.81,24.22,11.18c9.92,2.67,20,3.68,30.08,5.41,10.82,1.85,21.79,4.47,31.68,9.34,8.64,4.25,16.46,9.89,24.52,15.1,16.7,10.8,35.88,19.47,56.12,19.41,18-.06,34.75-7.36,48.85-18.22,3.82-2.94,7.44-6.12,10.92-9.46,.35-.33-.18-.86-.53-.53-13.59,13.03-30.03,23.81-48.97,26.67-20.23,3.07-40.49-3.51-57.91-13.53-8.24-4.75-15.91-10.4-24.04-15.33s-17.25-8.79-26.84-11.23c-19.6-5-40.86-4.7-59.25-13.98-15.87-8.01-28.08-23.6-30.38-41.35s-.24-38.97-11.05-55.32c-9.28-14.04-24.89-20.42-39.92-26.37-15.9-6.29-31.37-13.63-45.57-23.23-8.78-5.94-17.03-12.66-24.55-20.13-3.87-3.84-7.69-7.71-11.92-11.16s-8.65-6.05-12.83-9.27c-5.81-4.48-10.88-9.84-13.62-16.74-2.06-5.19-3.05-10.73-5.12-15.93-1.24-3.14-2.79-6.12-4.58-8.98-.26-.41-.9-.03-.65,.38h0Z"/>
        <path class="cls-3" d="M192.85-71.38c1.45,5.46,.3,10.73-2.8,15.38-2.54,3.81-5.98,6.83-8.85,10.37-1.79,2.21-3.55,5.05-1.96,7.85,.98,1.74,2.8,2.96,4.49,3.94,3.72,2.16,7.83,3.6,11.64,5.61,9.56,5.05,18.65,11.05,27.96,16.54,8.03,4.73,16.1,9.37,24.21,13.96,6.16,3.49,12.35,6.93,18.52,10.39s12.43,6.7,17.41,11.79c13.45,13.74,14.28,34.35,16.1,52.34,.89,8.79,1.85,17.68,5.55,25.81s9.27,14.55,15.98,19.93c6.83,5.48,14.5,9.04,22.85,11.59,4.57,1.4,9.24,2.5,13.94,3.33,4.37,.76,8.78,1.02,13.16,1.66,10.67,1.57,21.33,4.75,31.22,9.01s18.64,9.27,27.88,14.06c16.48,8.54,34.86,16.95,53.88,15.56,16.17-1.18,30.24-9.65,42.2-20.1,3.52-3.08,6.88-6.33,10.16-9.66,.34-.34-.19-.88-.53-.53-11.85,12.08-25.52,23.77-42.31,28.01-18.37,4.64-36.65-1.38-53.29-9.1-9.37-4.35-18.34-9.5-27.56-14.14-9.3-4.67-18.81-8.46-28.87-11.13-4.7-1.24-9.47-2.32-14.31-2.92-4.37-.55-8.73-.9-13.07-1.72-8.93-1.69-18-4.25-26.07-8.52s-15.38-10.85-20.51-18.38c-4.69-6.88-7.15-14.57-8.36-22.75-2.72-18.34-1.68-38.55-11.51-55.02-4.09-6.85-9.97-12-16.85-15.93-4.97-2.84-9.97-5.61-14.96-8.4-15.97-8.94-31.84-18.05-47.5-27.5-4.5-2.72-8.96-5.53-13.58-8.05-4-2.18-8.27-3.77-12.26-5.93-3.26-1.76-6.89-4.48-4.84-8.51,1.81-3.55,5.23-6.29,7.79-9.28,3.03-3.55,5.67-7.59,6.32-12.3,.35-2.5,.1-5-.55-7.43-.12-.47-.85-.27-.72,.2h0Z"/>
        <path class="cls-3" d="M279.39-81.86c0,12-13.8,18.31-23.26,22.02-5.02,1.97-10.17,3.54-15.28,5.26-1.59,.53-3.21,1.06-4.71,1.8-.64,.31-1.77,.84-1.78,1.69-.01,.92,1.22,1.32,1.91,1.56,3.1,1.07,6.52,1.36,9.71,2,11.04,2.22,21.94,5.28,32.39,9.51,12.43,5.04,24.64,11.78,34.34,21.18,3.76,3.65,6.88,7.74,8.73,12.7,2.66,7.16,2.94,14.96,2.96,22.51,.05,16.8-.96,34.13,7.62,49.29,10.47,18.51,31.1,28.69,51.65,31.18,3.79,.46,7.56,.48,11.33,1.21,4.01,.77,7.95,1.87,11.85,3.07,9.33,2.88,18.46,6.42,27.53,10.04,9.29,3.7,18.52,7.57,27.83,11.24,8.6,3.38,17.34,6.84,26.55,8.09s17.6,.19,25.73-3.38c8.62-3.78,15.99-9.93,22.72-16.4,3.98-3.83,7.77-7.85,11.52-11.9,.33-.35-.2-.89-.53-.53-12.86,13.93-27.66,29.82-47.67,31.76-9.74,.95-19.27-1.43-28.38-4.68-8.57-3.06-16.98-6.57-25.4-10-9.39-3.83-18.79-7.66-28.32-11.11-7.94-2.88-16.07-5.69-24.42-7.14-3.57-.62-7.18-.61-10.77-1.07-5.53-.71-10.99-2.09-16.26-3.87-10.6-3.58-20.01-9.18-27.55-17.53-6.29-6.97-10.48-15.41-12.48-24.57-1.8-8.23-1.92-16.68-1.86-25.06,.1-14.02,1.13-29.97-8.82-41.22-6.86-7.76-15.77-13.75-24.86-18.57-8.18-4.34-16.83-7.78-25.68-10.53-5.64-1.75-11.37-3.22-17.14-4.45-3.81-.81-7.77-1.22-11.52-2.31-.51-.15-2.07-.56-1.95-1.1,.17-.75,2.18-1.33,2.76-1.56,4.33-1.71,8.85-2.94,13.25-4.48,5.53-1.93,11.03-4.09,16.1-7.05,4.47-2.61,8.94-6.02,11.3-10.76,1.06-2.13,1.61-4.46,1.61-6.84,0-.48-.75-.48-.75,0h0Z"/>
      </g>
      <circle class="cls-4" cx="215.91" cy="143.27" r="20.44"/>
    </g>
  </g>
</svg>