<svg width="83" height="343" viewBox="0 0 83 343" fill="none" xmlns="http://www.w3.org/2000/svg">
<g clip-path="url(#clip0_140_659)">
<g opacity="0.4">
<path d="M-5.38996 0.35999C-5.00996 9.73999 -7.26996 18.93 -8.75996 28.13C-10.55 39.19 -11.04 50.31 -9.26997 61.41C-6.63997 77.92 0.220035 93.43 8.25003 107.97C16.68 123.25 26.6 137.68 37.14 151.58C41.95 157.92 46.9 164.16 51.94 170.31C56.46 175.82 61.23 181.14 65.66 186.71C75.05 198.52 80.43 213.3 81.6 228.29C82.78 243.33 79.79 258.77 72.38 271.96C64.97 285.15 52.65 296.18 40.87 306.27C28.96 316.46 16.71 326.69 8.13004 339.99C-0.669961 353.62 -5.53996 369.75 -5.86996 385.97C-5.95996 390.18 -5.71996 394.38 -5.19996 398.56C-5.13996 399.03 -4.38996 399.04 -4.44996 398.56C-6.57996 381.45 -3.55997 363.86 4.17003 348.44C11.47 333.87 23.03 322.63 35.21 312.1C46.96 301.95 59.32 292.13 68.47 279.43C76.91 267.72 81.62 253.76 82.46 239.38C83.3 225 80.29 210.26 73.55 197.46C70.27 191.24 66 185.91 61.47 180.57C56.71 174.94 52 169.26 47.39 163.51C36.45 149.86 26.02 135.76 16.75 120.92C7.48003 106.08 -1.11996 90.11 -5.91996 73.08C-9.41996 60.65 -10.47 47.86 -8.98997 35.04C-7.90997 25.67 -5.47996 16.47 -4.77996 7.04999C-4.60996 4.81999 -4.55996 2.57999 -4.64996 0.34999C-4.66996 -0.13001 -5.41996 -0.13001 -5.39996 0.34999L-5.38996 0.35999Z" fill="white"/>
<path d="M-28.16 28.7899C-27.51 36.9999 -28.8 45.1699 -29.5 53.3299C-30.34 63.1999 -30.07 73.0499 -27.89 82.7499C-24.66 97.1899 -17.96 110.64 -10.24 123.16C-1.72 136.99 8.03001 150.08 18.16 162.77C22.86 168.66 27.67 174.46 32.54 180.21C36.87 185.32 41.56 190.25 45.42 195.74C53 206.51 57.37 219.43 58.31 232.54C59.25 245.52 56.87 258.83 50.84 270.42C44.46 282.67 34.5 292.45 24.75 302.02C15 311.59 5.17001 321.4 -1.35999 333.59C-7.88999 345.78 -11.54 360.48 -11.11 374.71C-11.01 378.09 -10.67 381.46 -10.13 384.8C-10.05 385.28 -9.33 385.07 -9.41 384.6C-11.81 369.75 -9.72999 354.3 -3.83999 340.48C1.77001 327.31 11.04 316.69 21.08 306.69C30.59 297.22 40.65 288.06 48.01 276.72C54.85 266.18 58.61 254 59.17 241.46C59.74 228.93 57.2 216.24 51.71 204.95C45.92 193.05 36.27 183.59 27.89 173.52C17.47 161.01 7.44001 148.17 -1.78999 134.75C-10.87 121.53 -19.31 107.57 -24.45 92.2999C-27.99 81.7699 -29.61 70.8199 -29.18 59.7199C-28.85 51.3599 -27.39 43.0699 -27.25 34.6999C-27.22 32.7299 -27.27 30.7699 -27.43 28.7999C-27.47 28.3199 -28.22 28.3199 -28.18 28.7999L-28.16 28.7899Z" fill="white"/>
<path d="M-50.9302 57.21C-50.0002 64.53 -50.4302 71.91 -50.2802 79.27C-50.1002 88.11 -48.8802 96.81 -46.1202 105.23C-42.1002 117.51 -35.4902 128.79 -28.0302 139.27C-19.8602 150.76 -10.9402 161.76 -1.85019 172.53C2.43981 177.62 6.79982 182.65 11.1698 187.67C15.0898 192.17 19.2598 196.55 22.7098 201.42C29.3498 210.8 33.4698 221.91 34.8098 233.31C36.0998 244.29 34.8898 255.63 30.7998 265.93C26.2698 277.34 18.3298 286.88 10.4998 296.16C2.80982 305.27 -4.87017 314.48 -9.76017 325.47C-14.6502 336.46 -17.2802 349.62 -16.3202 362.12C-16.0902 365.08 -15.6602 368.01 -15.0502 370.91C-14.9502 371.38 -14.2302 371.18 -14.3302 370.71C-17.0302 357.98 -15.8302 344.59 -11.6402 332.31C-7.54018 320.28 -0.260172 310.18 7.81983 300.52C15.3698 291.49 23.3398 282.63 28.7998 272.11C33.7898 262.5 36.1798 251.77 36.0598 240.96C35.9398 230.15 33.2998 218.99 28.2898 209.19C22.9698 198.79 14.5398 190.45 6.96982 181.69C-2.30018 170.96 -11.3402 160.06 -19.9902 148.82C-28.6402 137.58 -36.4302 126.47 -42.0402 113.75C-46.0602 104.63 -48.5802 94.99 -49.2802 85.04C-49.8002 77.59 -49.3102 70.11 -49.7002 62.65C-49.7902 60.83 -49.9502 59.01 -50.1802 57.2C-50.2402 56.73 -50.9902 56.72 -50.9302 57.2V57.21Z" fill="white"/>
<path d="M-73.6802 85.74C-72.4502 92.27 -71.9602 98.9 -70.8702 105.45C-69.5802 113.21 -67.2902 120.71 -63.9102 127.83C-59.1502 137.85 -52.6402 146.92 -45.5002 155.36C-37.7102 164.57 -29.6502 173.58 -21.5702 182.54C-17.7402 186.79 -13.8902 191.02 -10.0602 195.28C-6.62022 199.11 -3.04022 202.88 -0.03022 207.07C5.71978 215.08 9.54978 224.41 11.2798 234.1C12.9498 243.45 12.7098 253.22 10.1998 262.39C7.42978 272.52 1.89977 281.51 -3.74023 290.27C-9.32023 298.94 -14.8802 307.63 -18.2002 317.47C-21.6402 327.68 -23.0402 338.74 -21.5802 349.45C-21.2302 352.01 -20.7002 354.54 -20.0002 357.03C-19.8702 357.49 -19.1502 357.3 -19.2802 356.83C-22.3002 346.13 -21.9202 334.66 -19.2902 323.92C-16.6802 313.28 -11.5602 303.86 -5.70022 294.7C-0.200218 286.09 5.57977 277.56 9.17977 267.93C12.4398 259.24 13.6098 249.89 12.8698 240.65C12.1298 231.41 9.40978 221.87 4.87978 213.51C0.0497837 204.6 -7.18022 197.34 -13.9202 189.88C-21.9802 180.97 -29.9702 172 -37.9002 162.97C-45.7602 154.01 -53.4602 144.97 -59.4702 134.63C-63.8702 127.06 -67.2402 118.97 -69.1502 110.41C-70.6202 103.81 -71.1902 97.08 -72.1502 90.41C-72.3902 88.78 -72.6502 87.15 -72.9602 85.54C-73.0502 85.07 -73.7702 85.27 -73.6802 85.74Z" fill="white"/>
</g>
</g>
<defs>
<clipPath id="clip0_140_659">
<rect width="224.61" height="398.92" fill="white" transform="translate(-142)"/>
</clipPath>
</defs>
</svg>
