<svg width="744" height="84" viewBox="0 0 744 84" fill="none" xmlns="http://www.w3.org/2000/svg">
<mask id="path-1-outside-1_371_4678" maskUnits="userSpaceOnUse" x="-3" y="-3" width="751" height="90" fill="black">
<rect fill="white" x="-3" y="-3" width="751" height="90"/>
<path d="M61.1227 0.635998V13.97L39.1747 13.97V83L22.6547 83V13.97L0.706664 13.97V0.635998L61.1227 0.635998ZM123.68 67.306H90.8762L85.4482 83H68.1022L97.7202 0.517993H116.954L146.572 83H129.108L123.68 67.306ZM119.196 54.09L107.278 19.634L95.3602 54.09H119.196ZM174.163 0.635998L174.163 83H157.643L157.643 0.635998H174.163ZM300.579 0.635998L277.569 83H258.099L242.641 24.354L226.475 83L207.123 83.118L184.939 0.635998H202.639L217.153 64.592L233.909 0.635998H252.317L268.129 64.238L282.761 0.635998H300.579ZM361.87 67.306L329.066 67.306L323.638 83H306.292L335.91 0.517993H355.144L384.762 83L367.298 83L361.87 67.306ZM357.386 54.09L345.468 19.634L333.55 54.09L357.386 54.09ZM466.278 83H449.758L412.352 26.478V83H395.832V0.517993L412.352 0.517993L449.758 57.158V0.517993H466.278V83ZM594.888 0.635998V13.97L572.94 13.97V83L556.42 83V13.97L534.472 13.97V0.635998L594.888 0.635998ZM623.462 13.97V34.62H651.192V47.718H623.462V69.548H654.732V83H606.942V0.517993L654.732 0.517993V13.97L623.462 13.97ZM720.249 67.306L687.445 67.306L682.017 83H664.671L694.289 0.517993H713.523L743.141 83L725.677 83L720.249 67.306ZM715.765 54.09L703.847 19.634L691.929 54.09L715.765 54.09Z"/>
</mask>
<path d="M61.1227 0.635998H64.1227V-2.364H61.1227V0.635998ZM61.1227 13.97V16.97H64.1227V13.97H61.1227ZM39.1747 13.97V10.97H36.1747V13.97H39.1747ZM39.1747 83L39.1747 86H42.1747L42.1747 83H39.1747ZM22.6547 83H19.6547L19.6547 86H22.6547L22.6547 83ZM22.6547 13.97H25.6547V10.97H22.6547V13.97ZM0.706664 13.97H-2.29334V16.97H0.706664V13.97ZM0.706664 0.635998V-2.364H-2.29334V0.635998H0.706664ZM58.1227 0.635998V13.97H64.1227V0.635998H58.1227ZM61.1227 10.97L39.1747 10.97V16.97L61.1227 16.97V10.97ZM36.1747 13.97V83H42.1747V13.97H36.1747ZM39.1747 80H22.6547L22.6547 86L39.1747 86L39.1747 80ZM25.6547 83V13.97H19.6547V83H25.6547ZM22.6547 10.97L0.706664 10.97V16.97L22.6547 16.97V10.97ZM3.70666 13.97V0.635998H-2.29334V13.97H3.70666ZM0.706664 3.636L61.1227 3.636V-2.364L0.706664 -2.364V3.636ZM123.68 67.306L126.515 66.3254L125.817 64.306H123.68V67.306ZM90.8762 67.306V64.306H88.7394L88.041 66.3254L90.8762 67.306ZM85.4482 83V86H87.585L88.2834 83.9806L85.4482 83ZM68.1022 83L65.2787 81.9861L63.8374 86H68.1022L68.1022 83ZM97.7202 0.517993V-2.48201L95.6099 -2.48201L94.8967 -0.495877L97.7202 0.517993ZM116.954 0.517993L119.778 -0.495877L119.064 -2.48201H116.954V0.517993ZM146.572 83V86H150.837L149.396 81.9861L146.572 83ZM129.108 83L126.273 83.9806L126.971 86H129.108V83ZM119.196 54.09V57.09H123.408L122.031 53.1093L119.196 54.09ZM107.278 19.634L110.113 18.6533L107.278 10.4566L104.443 18.6533L107.278 19.634ZM95.3602 54.09L92.525 53.1093L91.1481 57.09H95.3602V54.09ZM123.68 64.306H90.8762V70.306H123.68V64.306ZM88.041 66.3254L82.613 82.0194L88.2834 83.9806L93.7114 68.2866L88.041 66.3254ZM85.4482 80L68.1022 80L68.1022 86H85.4482V80ZM70.9257 84.0139L100.544 1.53186L94.8967 -0.495877L65.2787 81.9861L70.9257 84.0139ZM97.7202 3.51799H116.954V-2.48201H97.7202V3.51799ZM114.131 1.53186L143.749 84.0139L149.396 81.9861L119.778 -0.495877L114.131 1.53186ZM146.572 80H129.108V86H146.572V80ZM131.943 82.0194L126.515 66.3254L120.845 68.2866L126.273 83.9806L131.943 82.0194ZM122.031 53.1093L110.113 18.6533L104.443 20.6147L116.361 55.0707L122.031 53.1093ZM104.443 18.6533L92.525 53.1093L98.1954 55.0707L110.113 20.6147L104.443 18.6533ZM95.3602 57.09H119.196V51.09H95.3602V57.09ZM174.163 0.635998H177.163V-2.364H174.163V0.635998ZM174.163 83V86H177.163V83H174.163ZM157.643 83H154.643V86H157.643V83ZM157.643 0.635998V-2.364H154.643V0.635998H157.643ZM171.163 0.635998L171.163 83H177.163L177.163 0.635998H171.163ZM174.163 80L157.643 80V86H174.163V80ZM160.643 83L160.643 0.635998H154.643L154.643 83H160.643ZM157.643 3.636H174.163V-2.364H157.643V3.636ZM300.579 0.635998L303.468 1.4432L304.532 -2.364H300.579V0.635998ZM277.569 83V86H279.846L280.458 83.8072L277.569 83ZM258.099 83L255.198 83.7646L255.787 86H258.099V83ZM242.641 24.354L245.542 23.5894L242.706 12.8296L239.749 23.5568L242.641 24.354ZM226.475 83L226.493 85.9999L228.764 85.9861L229.367 83.7972L226.475 83ZM207.123 83.118L204.226 83.8972L204.827 86.1321L207.141 86.1179L207.123 83.118ZM184.939 0.635998V-2.364L181.025 -2.364L182.042 1.41518L184.939 0.635998ZM202.639 0.635998L205.564 -0.0279317L205.034 -2.364H202.639V0.635998ZM217.153 64.592L214.227 65.2559L220.055 65.3523L217.153 64.592ZM233.909 0.635998V-2.364H231.594L231.007 -0.124318L233.909 0.635998ZM252.317 0.635998L255.228 -0.0877951L254.662 -2.364H252.317V0.635998ZM268.129 64.238L265.217 64.9618L271.052 64.9106L268.129 64.238ZM282.761 0.635998V-2.364H280.373L279.837 -0.036599L282.761 0.635998ZM297.689 -0.171202L274.679 82.1928L280.458 83.8072L303.468 1.4432L297.689 -0.171202ZM277.569 80H258.099V86H277.569V80ZM261 82.2354L245.542 23.5894L239.74 25.1186L255.198 83.7646L261 82.2354ZM239.749 23.5568L223.583 82.2028L229.367 83.7972L245.533 25.1512L239.749 23.5568ZM226.456 80.0001L207.104 80.1181L207.141 86.1179L226.493 85.9999L226.456 80.0001ZM210.02 82.3388L187.836 -0.143179L182.042 1.41518L204.226 83.8972L210.02 82.3388ZM184.939 3.636H202.639V-2.364H184.939V3.636ZM199.713 1.29993L214.227 65.2559L220.078 63.9281L205.564 -0.0279317L199.713 1.29993ZM220.055 65.3523L236.811 1.39632L231.007 -0.124318L214.251 63.8317L220.055 65.3523ZM233.909 3.636H252.317V-2.364H233.909V3.636ZM249.405 1.35979L265.217 64.9618L271.04 63.5142L255.228 -0.0877951L249.405 1.35979ZM271.052 64.9106L285.684 1.3086L279.837 -0.036599L265.205 63.5654L271.052 64.9106ZM282.761 3.636H300.579V-2.364H282.761V3.636ZM361.87 67.306L364.705 66.3254L364.006 64.306H361.87V67.306ZM329.066 67.306V64.306H326.929L326.23 66.3254L329.066 67.306ZM323.638 83V86H325.774L326.473 83.9806L323.638 83ZM306.292 83L303.468 81.9861L302.027 86H306.292V83ZM335.91 0.517993V-2.48201H333.799L333.086 -0.495877L335.91 0.517993ZM355.144 0.517993L357.967 -0.495877L357.254 -2.48201H355.144V0.517993ZM384.762 83V86H389.026L387.585 81.9861L384.762 83ZM367.298 83L364.462 83.9806L365.161 86H367.298V83ZM357.386 54.09V57.09H361.598L360.221 53.1093L357.386 54.09ZM345.468 19.634L348.303 18.6533L345.468 10.4566L342.632 18.6533L345.468 19.634ZM333.55 54.09L330.714 53.1093L329.338 57.09H333.55V54.09ZM361.87 64.306L329.066 64.306V70.306L361.87 70.306V64.306ZM326.23 66.3254L320.802 82.0194L326.473 83.9806L331.901 68.2866L326.23 66.3254ZM323.638 80H306.292V86H323.638V80ZM309.115 84.0139L338.733 1.53186L333.086 -0.495877L303.468 81.9861L309.115 84.0139ZM335.91 3.51799H355.144V-2.48201H335.91V3.51799ZM352.32 1.53186L381.938 84.0139L387.585 81.9861L357.967 -0.495877L352.32 1.53186ZM384.762 80H367.298V86L384.762 86V80ZM370.133 82.0194L364.705 66.3254L359.034 68.2866L364.462 83.9806L370.133 82.0194ZM360.221 53.1093L348.303 18.6533L342.632 20.6147L354.55 55.0707L360.221 53.1093ZM342.632 18.6533L330.714 53.1093L336.385 55.0707L348.303 20.6147L342.632 18.6533ZM333.55 57.09L357.386 57.09V51.09L333.55 51.09V57.09ZM466.278 83V86H469.278V83H466.278ZM449.758 83L447.257 84.6557L448.146 86H449.758V83ZM412.352 26.478L414.854 24.8223L409.352 16.509V26.478H412.352ZM412.352 83V86H415.352V83H412.352ZM395.832 83H392.832V86H395.832V83ZM395.832 0.517993V-2.48201H392.832V0.517993H395.832ZM412.352 0.517993L414.856 -1.13526L413.966 -2.48201H412.352V0.517993ZM449.758 57.158L447.255 58.8113L452.758 67.1444V57.158H449.758ZM449.758 0.517993V-2.48201L446.758 -2.48201V0.517993L449.758 0.517993ZM466.278 0.517993H469.278V-2.48201H466.278V0.517993ZM466.278 80H449.758V86H466.278V80ZM452.26 81.3443L414.854 24.8223L409.851 28.1337L447.257 84.6557L452.26 81.3443ZM409.352 26.478V83H415.352V26.478H409.352ZM412.352 80H395.832V86H412.352V80ZM398.832 83V0.517993H392.832V83H398.832ZM395.832 3.51799L412.352 3.51799V-2.48201L395.832 -2.48201V3.51799ZM409.849 2.17125L447.255 58.8113L452.262 55.5047L414.856 -1.13526L409.849 2.17125ZM452.758 57.158V0.517993L446.758 0.517993V57.158H452.758ZM449.758 3.51799H466.278V-2.48201H449.758V3.51799ZM463.278 0.517993V83H469.278V0.517993H463.278ZM594.888 0.635998H597.888V-2.364H594.888V0.635998ZM594.888 13.97V16.97H597.888V13.97H594.888ZM572.94 13.97V10.97H569.94V13.97H572.94ZM572.94 83V86H575.94V83H572.94ZM556.42 83H553.42V86H556.42V83ZM556.42 13.97H559.42V10.97H556.42V13.97ZM534.472 13.97H531.472V16.97H534.472V13.97ZM534.472 0.635998V-2.364H531.472V0.635998H534.472ZM591.888 0.635998V13.97H597.888V0.635998H591.888ZM594.888 10.97L572.94 10.97V16.97L594.888 16.97V10.97ZM569.94 13.97V83H575.94V13.97H569.94ZM572.94 80H556.42V86L572.94 86V80ZM559.42 83V13.97H553.42V83H559.42ZM556.42 10.97L534.472 10.97V16.97L556.42 16.97V10.97ZM537.472 13.97V0.635998H531.472V13.97H537.472ZM534.472 3.636L594.888 3.636V-2.364L534.472 -2.364V3.636ZM623.462 13.97V10.97H620.462V13.97H623.462ZM623.462 34.62H620.462V37.62H623.462V34.62ZM651.192 34.62H654.192V31.62H651.192V34.62ZM651.192 47.718V50.718H654.192V47.718H651.192ZM623.462 47.718V44.718H620.462V47.718H623.462ZM623.462 69.548H620.462V72.548H623.462V69.548ZM654.732 69.548H657.732V66.548H654.732V69.548ZM654.732 83V86H657.732V83H654.732ZM606.942 83H603.942V86H606.942V83ZM606.942 0.517993V-2.48201H603.942V0.517993H606.942ZM654.732 0.517993H657.732V-2.48201H654.732V0.517993ZM654.732 13.97V16.97H657.732V13.97H654.732ZM620.462 13.97V34.62H626.462V13.97L620.462 13.97ZM623.462 37.62H651.192V31.62H623.462V37.62ZM648.192 34.62V47.718H654.192V34.62H648.192ZM651.192 44.718H623.462V50.718H651.192V44.718ZM620.462 47.718V69.548H626.462V47.718H620.462ZM623.462 72.548H654.732V66.548H623.462V72.548ZM651.732 69.548V83H657.732V69.548H651.732ZM654.732 80H606.942V86H654.732V80ZM609.942 83V0.517993H603.942V83H609.942ZM606.942 3.51799L654.732 3.51799V-2.48201L606.942 -2.48201V3.51799ZM651.732 0.517993V13.97H657.732V0.517993H651.732ZM654.732 10.97L623.462 10.97V16.97L654.732 16.97V10.97ZM720.249 67.306L723.084 66.3254L722.385 64.306H720.249V67.306ZM687.445 67.306V64.306H685.308L684.609 66.3254L687.445 67.306ZM682.017 83V86H684.153L684.852 83.9806L682.017 83ZM664.671 83L661.847 81.9861L660.406 86H664.671V83ZM694.289 0.517993V-2.48201H692.178L691.465 -0.495877L694.289 0.517993ZM713.523 0.517993L716.346 -0.495877L715.633 -2.48201L713.523 -2.48201V0.517993ZM743.141 83V86H747.405L745.964 81.9861L743.141 83ZM725.677 83L722.841 83.9806L723.54 86H725.677V83ZM715.765 54.09V57.09H719.977L718.6 53.1093L715.765 54.09ZM703.847 19.634L706.682 18.6533L703.847 10.4566L701.011 18.6533L703.847 19.634ZM691.929 54.09L689.093 53.1093L687.716 57.09H691.929V54.09ZM720.249 64.306L687.445 64.306V70.306L720.249 70.306V64.306ZM684.609 66.3254L679.181 82.0194L684.852 83.9806L690.28 68.2866L684.609 66.3254ZM682.017 80H664.671V86H682.017V80ZM667.494 84.0139L697.112 1.53186L691.465 -0.495877L661.847 81.9861L667.494 84.0139ZM694.289 3.51799H713.523V-2.48201H694.289V3.51799ZM710.699 1.53186L740.317 84.0139L745.964 81.9861L716.346 -0.495877L710.699 1.53186ZM743.141 80H725.677V86L743.141 86V80ZM728.512 82.0194L723.084 66.3254L717.413 68.2866L722.841 83.9806L728.512 82.0194ZM718.6 53.1093L706.682 18.6533L701.011 20.6147L712.929 55.0707L718.6 53.1093ZM701.011 18.6533L689.093 53.1093L694.764 55.0707L706.682 20.6147L701.011 18.6533ZM691.929 57.09L715.765 57.09V51.09L691.929 51.09V57.09Z" fill="#78BEC8" mask="url(#path-1-outside-1_371_4678)"/>
</svg>
