<svg width="53" height="45" viewBox="0 0 53 45" fill="none" xmlns="http://www.w3.org/2000/svg">
<g clip-path="url(#clip0_195_579)">
<path d="M26.09 44.22C40.4991 44.22 52.18 34.321 52.18 22.11C52.18 9.89898 40.4991 0 26.09 0C11.6809 0 0 9.89898 0 22.11C0 34.321 11.6809 44.22 26.09 44.22Z" fill="#FFC107"/>
<path d="M41.1701 27.8501L52.5401 43.3001L28.8101 38.1101L41.1701 27.8501Z" fill="#FFC107"/>
<path d="M15.938 17.172V19.09H13.334V27H10.94V19.09H8.336V17.172H15.938ZM21.7875 27.098C20.8635 27.098 20.0142 26.8833 19.2395 26.454C18.4742 26.0247 17.8628 25.4273 17.4055 24.662C16.9575 23.8873 16.7335 23.0193 16.7335 22.058C16.7335 21.0967 16.9575 20.2333 17.4055 19.468C17.8628 18.7027 18.4742 18.1053 19.2395 17.676C20.0142 17.2467 20.8635 17.032 21.7875 17.032C22.7115 17.032 23.5562 17.2467 24.3215 17.676C25.0962 18.1053 25.7028 18.7027 26.1415 19.468C26.5895 20.2333 26.8135 21.0967 26.8135 22.058C26.8135 23.0193 26.5895 23.8873 26.1415 24.662C25.6935 25.4273 25.0868 26.0247 24.3215 26.454C23.5562 26.8833 22.7115 27.098 21.7875 27.098ZM21.7875 24.914C22.5715 24.914 23.1968 24.6527 23.6635 24.13C24.1395 23.6073 24.3775 22.9167 24.3775 22.058C24.3775 21.19 24.1395 20.4993 23.6635 19.986C23.1968 19.4633 22.5715 19.202 21.7875 19.202C20.9942 19.202 20.3595 19.4587 19.8835 19.972C19.4168 20.4853 19.1835 21.1807 19.1835 22.058C19.1835 22.926 19.4168 23.6213 19.8835 24.144C20.3595 24.6573 20.9942 24.914 21.7875 24.914ZM35.6353 20.336C35.6353 20.9053 35.5047 21.428 35.2433 21.904C34.982 22.3707 34.5807 22.7487 34.0393 23.038C33.498 23.3273 32.826 23.472 32.0233 23.472H30.5393V27H28.1453V17.172H32.0233C32.8073 17.172 33.47 17.3073 34.0113 17.578C34.5527 17.8487 34.9587 18.222 35.2293 18.698C35.5 19.174 35.6353 19.72 35.6353 20.336ZM31.8413 21.568C32.2987 21.568 32.6393 21.4607 32.8633 21.246C33.0873 21.0313 33.1993 20.728 33.1993 20.336C33.1993 19.944 33.0873 19.6407 32.8633 19.426C32.6393 19.2113 32.2987 19.104 31.8413 19.104H30.5393V21.568H31.8413ZM41.6977 19.538C41.623 19.1927 41.4923 18.936 41.3057 18.768C41.119 18.5907 40.853 18.502 40.5077 18.502C39.9757 18.502 39.593 18.7353 39.3597 19.202C39.1263 19.6593 39.005 20.3873 38.9957 21.386C39.201 21.0593 39.495 20.8027 39.8777 20.616C40.2697 20.4293 40.699 20.336 41.1657 20.336C42.0803 20.336 42.813 20.6253 43.3637 21.204C43.9237 21.7827 44.2037 22.59 44.2037 23.626C44.2037 24.3073 44.0637 24.9047 43.7837 25.418C43.513 25.9313 43.1117 26.3327 42.5797 26.622C42.057 26.9113 41.4363 27.056 40.7177 27.056C39.2803 27.056 38.2817 26.608 37.7217 25.712C37.1617 24.8067 36.8817 23.5093 36.8817 21.82C36.8817 20.0467 37.1757 18.7307 37.7637 17.872C38.361 17.004 39.313 16.57 40.6197 16.57C41.3197 16.57 41.9077 16.71 42.3837 16.99C42.869 17.2607 43.233 17.62 43.4757 18.068C43.7277 18.516 43.877 19.006 43.9237 19.538H41.6977ZM40.5917 22.226C40.1903 22.226 39.8543 22.3473 39.5837 22.59C39.3223 22.8233 39.1917 23.1593 39.1917 23.598C39.1917 24.046 39.313 24.396 39.5557 24.648C39.8077 24.9 40.1623 25.026 40.6197 25.026C41.0303 25.026 41.3523 24.9047 41.5857 24.662C41.8283 24.41 41.9497 24.0693 41.9497 23.64C41.9497 23.2013 41.833 22.856 41.5997 22.604C41.3663 22.352 41.0303 22.226 40.5917 22.226Z" fill="white"/>
</g>
<defs>
<clipPath id="clip0_195_579">
<rect width="52.54" height="44.22" fill="white"/>
</clipPath>
</defs>
</svg>
