<svg width="53" height="45" viewBox="0 0 53 45" fill="none" xmlns="http://www.w3.org/2000/svg">
<g clip-path="url(#clip0_195_579)">
<path d="M26.09 44.22C40.4991 44.22 52.18 34.321 52.18 22.11C52.18 9.89898 40.4991 0 26.09 0C11.6809 0 0 9.89898 0 22.11C0 34.321 11.6809 44.22 26.09 44.22Z" fill="#FFC107"/>
<path d="M41.1701 27.8501L52.5401 43.3001L28.8101 38.1101L41.1701 27.8501Z" fill="#FFC107"/>
<path d="M10.346 27V19.314H7.462V17.2H15.722V19.314H12.74V27H10.346ZM21.434 27.14C20.6967 27.14 20.0153 27.014 19.39 26.762C18.774 26.51 18.2373 26.16 17.78 25.712C17.332 25.2547 16.982 24.718 16.73 24.102C16.478 23.4767 16.352 22.7953 16.352 22.058C16.352 21.33 16.478 20.658 16.73 20.042C16.982 19.4167 17.332 18.8753 17.78 18.418C18.2373 17.9607 18.774 17.606 19.39 17.354C20.0153 17.102 20.6967 16.976 21.434 16.976C22.162 16.976 22.834 17.102 23.45 17.354C24.066 17.606 24.598 17.9607 25.046 18.418C25.5033 18.8753 25.858 19.4167 26.11 20.042C26.362 20.658 26.488 21.3347 26.488 22.072C26.488 22.8 26.362 23.472 26.11 24.088C25.858 24.704 25.5033 25.2407 25.046 25.698C24.598 26.1553 24.066 26.51 23.45 26.762C22.834 27.014 22.162 27.14 21.434 27.14ZM21.434 24.886C21.8167 24.886 22.1667 24.816 22.484 24.676C22.8013 24.536 23.0767 24.34 23.31 24.088C23.5527 23.836 23.7393 23.5373 23.87 23.192C24.0007 22.8467 24.066 22.4733 24.066 22.072C24.066 21.6613 24.0007 21.2833 23.87 20.938C23.7393 20.5927 23.5527 20.294 23.31 20.042C23.0767 19.7807 22.8013 19.58 22.484 19.44C22.1667 19.3 21.8167 19.23 21.434 19.23C21.0513 19.23 20.6967 19.3 20.37 19.44C20.0527 19.58 19.7727 19.7807 19.53 20.042C19.2967 20.294 19.1147 20.5927 18.984 20.938C18.8533 21.2833 18.788 21.6613 18.788 22.072C18.788 22.6133 18.9 23.0987 19.124 23.528C19.3573 23.948 19.67 24.2793 20.062 24.522C20.4633 24.7647 20.9207 24.886 21.434 24.886ZM28.302 27V17.2H32.544C33.16 17.2 33.7107 17.34 34.196 17.62C34.6813 17.9 35.064 18.2827 35.344 18.768C35.624 19.244 35.764 19.79 35.764 20.406C35.764 21.0313 35.624 21.596 35.344 22.1C35.064 22.604 34.6813 23.0007 34.196 23.29C33.7107 23.5793 33.16 23.724 32.544 23.724H30.696V27H28.302ZM30.668 21.61H32.222C32.4273 21.61 32.6093 21.5633 32.768 21.47C32.936 21.3673 33.0713 21.2273 33.174 21.05C33.2767 20.8727 33.328 20.672 33.328 20.448C33.328 20.2147 33.2767 20.014 33.174 19.846C33.0713 19.678 32.936 19.5473 32.768 19.454C32.6093 19.3607 32.4273 19.314 32.222 19.314H30.668V21.61ZM40.4555 27C39.9515 27 39.4755 26.9113 39.0275 26.734C38.5888 26.5473 38.2015 26.2953 37.8655 25.978C37.5388 25.6513 37.2822 25.2733 37.0955 24.844C36.9088 24.4147 36.8155 23.9527 36.8155 23.458C36.8248 23.01 36.8902 22.5713 37.0115 22.142C37.1422 21.7033 37.3242 21.2553 37.5575 20.798C37.7908 20.3407 38.0662 19.8507 38.3835 19.328L39.7415 17.046H41.9395L42.0095 17.186L40.1195 20.168C39.8768 20.56 39.6668 20.9333 39.4895 21.288C39.3122 21.6333 39.1488 21.974 38.9995 22.31C38.8595 22.646 38.7195 23.0007 38.5795 23.374L38.1315 22.352C38.2622 21.9133 38.4815 21.5307 38.7895 21.204C39.1068 20.868 39.4662 20.6067 39.8675 20.42C40.2688 20.2333 40.6562 20.14 41.0295 20.14C41.5802 20.14 42.0842 20.2893 42.5415 20.588C43.0082 20.8773 43.3768 21.2647 43.6475 21.75C43.9275 22.2353 44.0675 22.7673 44.0675 23.346C44.0675 24.0367 43.9088 24.662 43.5915 25.222C43.2835 25.7727 42.8588 26.2067 42.3175 26.524C41.7762 26.8413 41.1555 27 40.4555 27ZM40.4835 25.026C40.7728 25.026 41.0295 24.9607 41.2535 24.83C41.4868 24.6993 41.6688 24.5173 41.7995 24.284C41.9302 24.0413 41.9955 23.7707 41.9955 23.472C41.9955 23.2107 41.9255 22.9633 41.7855 22.73C41.6548 22.4967 41.4775 22.31 41.2535 22.17C41.0295 22.03 40.7775 21.96 40.4975 21.96C40.1988 21.96 39.9328 22.03 39.6995 22.17C39.4662 22.3007 39.2842 22.4827 39.1535 22.716C39.0228 22.94 38.9575 23.192 38.9575 23.472C38.9575 23.7613 39.0228 24.0273 39.1535 24.27C39.2842 24.5033 39.4615 24.69 39.6855 24.83C39.9188 24.9607 40.1848 25.026 40.4835 25.026Z" fill="white"/>
<path d="M10.346 27H10.096V27.25H10.346V27ZM10.346 19.314H10.596V19.064H10.346V19.314ZM7.462 19.314H7.212V19.564H7.462V19.314ZM7.462 17.2V16.95H7.212V17.2H7.462ZM15.722 17.2H15.972V16.95H15.722V17.2ZM15.722 19.314V19.564H15.972V19.314H15.722ZM12.74 19.314V19.064H12.49V19.314H12.74ZM12.74 27V27.25H12.99V27H12.74ZM10.596 27V19.314H10.096V27H10.596ZM10.346 19.064H7.462V19.564H10.346V19.064ZM7.712 19.314V17.2H7.212V19.314H7.712ZM7.462 17.45H15.722V16.95H7.462V17.45ZM15.472 17.2V19.314H15.972V17.2H15.472ZM15.722 19.064H12.74V19.564H15.722V19.064ZM12.49 19.314V27H12.99V19.314H12.49ZM12.74 26.75H10.346V27.25H12.74V26.75ZM19.39 26.762L19.2953 26.9934L19.2966 26.9939L19.39 26.762ZM17.78 25.712L17.6014 25.887L17.6051 25.8906L17.78 25.712ZM16.73 24.102L16.4981 24.1954L16.4986 24.1967L16.73 24.102ZM16.73 20.042L16.9614 20.1367L16.9619 20.1354L16.73 20.042ZM17.78 18.418L17.6032 18.2412L17.6014 18.2431L17.78 18.418ZM19.39 17.354L19.2966 17.1221L19.2953 17.1226L19.39 17.354ZM23.45 17.354L23.3553 17.5854L23.3553 17.5854L23.45 17.354ZM25.046 18.418L24.8674 18.593L24.8692 18.5948L25.046 18.418ZM26.11 20.042L25.8781 20.1354L25.8786 20.1367L26.11 20.042ZM26.11 24.088L25.8786 23.9933L25.8786 23.9933L26.11 24.088ZM25.046 25.698L24.8692 25.5212L24.8674 25.5231L25.046 25.698ZM23.45 26.762L23.3553 26.5306L23.3553 26.5306L23.45 26.762ZM22.484 24.676L22.5849 24.9047L22.484 24.676ZM23.31 24.088L23.1299 23.9146L23.1266 23.9181L23.31 24.088ZM23.87 23.192L23.6362 23.1035L23.87 23.192ZM23.87 20.938L23.6362 21.0265L23.87 20.938ZM23.31 20.042L23.1234 20.2086L23.1299 20.2154L23.31 20.042ZM22.484 19.44L22.5849 19.2113L22.484 19.44ZM20.37 19.44L20.2715 19.2102L20.2691 19.2113L20.37 19.44ZM19.53 20.042L19.3468 19.8719L19.3466 19.8721L19.53 20.042ZM19.124 23.528L18.9023 23.6437L18.9055 23.6494L19.124 23.528ZM20.062 24.522L19.9304 24.7346L19.9326 24.7359L20.062 24.522ZM21.434 26.89C20.7257 26.89 20.0764 26.7691 19.4834 26.5301L19.2966 26.9939C19.9543 27.2589 20.6677 27.39 21.434 27.39V26.89ZM19.4847 26.5306C18.8974 26.2904 18.3883 25.9579 17.9549 25.5334L17.6051 25.8906C18.0864 26.3621 18.6506 26.7296 19.2953 26.9934L19.4847 26.5306ZM17.9586 25.5371C17.5341 25.1037 17.2016 24.5946 16.9614 24.0073L16.4986 24.1967C16.7624 24.8414 17.1299 25.4056 17.6014 25.8869L17.9586 25.5371ZM16.9619 24.0086C16.7229 23.4156 16.602 22.7663 16.602 22.058H16.102C16.102 22.8243 16.2331 23.5377 16.4981 24.1954L16.9619 24.0086ZM16.602 22.058C16.602 21.3594 16.7228 20.7199 16.9614 20.1367L16.4986 19.9473C16.2332 20.5961 16.102 21.3006 16.102 22.058H16.602ZM16.9619 20.1354C17.2023 19.5389 17.5347 19.0256 17.9586 18.5929L17.6014 18.2431C17.1293 18.725 16.7617 19.2945 16.4981 19.9486L16.9619 20.1354ZM17.9568 18.5948C18.3899 18.1616 18.8985 17.8252 19.4847 17.5854L19.2953 17.1226C18.6495 17.3868 18.0847 17.7597 17.6032 18.2412L17.9568 18.5948ZM19.4834 17.5859C20.0764 17.3469 20.7257 17.226 21.434 17.226V16.726C20.6677 16.726 19.9543 16.8571 19.2966 17.1221L19.4834 17.5859ZM21.434 17.226C22.1326 17.226 22.7721 17.3468 23.3553 17.5854L23.5447 17.1226C22.8959 16.8572 22.1914 16.726 21.434 16.726V17.226ZM23.3553 17.5854C23.9411 17.825 24.4442 18.1609 24.8674 18.5929L25.2246 18.2431C24.7518 17.7604 24.1909 17.387 23.5447 17.1226L23.3553 17.5854ZM24.8692 18.5948C25.3018 19.0273 25.6382 19.54 25.8781 20.1354L26.3419 19.9486C26.0779 19.2934 25.7049 18.7234 25.2228 18.2412L24.8692 18.5948ZM25.8786 20.1367C26.1171 20.7195 26.238 21.3636 26.238 22.072H26.738C26.738 21.3057 26.6069 20.5965 26.3414 19.9473L25.8786 20.1367ZM26.238 22.072C26.238 22.7706 26.1172 23.4101 25.8786 23.9933L26.3414 24.1827C26.6068 23.5339 26.738 22.8294 26.738 22.072H26.238ZM25.8786 23.9933C25.6388 24.5795 25.3024 25.0881 24.8692 25.5212L25.2228 25.8748C25.7043 25.3933 26.0772 24.8285 26.3414 24.1827L25.8786 23.9933ZM24.8674 25.5231C24.4442 25.9551 23.9411 26.291 23.3553 26.5306L23.5447 26.9934C24.1909 26.729 24.7518 26.3556 25.2246 25.8729L24.8674 25.5231ZM23.3553 26.5306C22.7721 26.7692 22.1326 26.89 21.434 26.89V27.39C22.1914 27.39 22.8959 27.2588 23.5447 26.9934L23.3553 26.5306ZM21.434 25.136C21.8478 25.136 22.2326 25.0601 22.5849 24.9047L22.3831 24.4473C22.1007 24.5719 21.7855 24.636 21.434 24.636V25.136ZM22.5849 24.9047C22.9332 24.7511 23.2367 24.5352 23.4934 24.2579L23.1266 23.9181C22.9167 24.1448 22.6695 24.3209 22.3831 24.4473L22.5849 24.9047ZM23.4901 24.2614C23.7575 23.9837 23.9619 23.6557 24.1038 23.2805L23.6362 23.1035C23.5168 23.419 23.3478 23.6883 23.1299 23.9146L23.4901 24.2614ZM24.1038 23.2805C24.2461 22.9045 24.316 22.5009 24.316 22.072H23.816C23.816 22.4457 23.7553 22.7888 23.6362 23.1035L24.1038 23.2805ZM24.316 22.072C24.316 21.6345 24.2463 21.2261 24.1038 20.8495L23.6362 21.0265C23.755 21.3405 23.816 21.6882 23.816 22.072H24.316ZM24.1038 20.8495C23.9619 20.4743 23.7575 20.1463 23.4901 19.8686L23.1299 20.2154C23.3478 20.4417 23.5168 20.711 23.6362 21.0265L24.1038 20.8495ZM23.4965 19.8755C23.2396 19.5878 22.9352 19.3658 22.5849 19.2113L22.3831 19.6687C22.6674 19.7942 22.9137 19.9735 23.1235 20.2085L23.4965 19.8755ZM22.5849 19.2113C22.2326 19.0559 21.8478 18.98 21.434 18.98V19.48C21.7855 19.48 22.1007 19.5441 22.3831 19.6687L22.5849 19.2113ZM21.434 18.98C21.0201 18.98 20.6316 19.0559 20.2715 19.2102L20.4685 19.6698C20.7617 19.5441 21.0826 19.48 21.434 19.48V18.98ZM20.2691 19.2113C19.9197 19.3654 19.612 19.5863 19.3468 19.8719L19.7132 20.2121C19.9334 19.975 20.1856 19.7946 20.4709 19.6687L20.2691 19.2113ZM19.3466 19.8721C19.0897 20.1495 18.8914 20.4764 18.7502 20.8495L19.2178 21.0265C19.338 20.709 19.5036 20.4385 19.7134 20.2119L19.3466 19.8721ZM18.7502 20.8495C18.6077 21.2261 18.538 21.6345 18.538 22.072H19.038C19.038 21.6882 19.099 21.3405 19.2178 21.0265L18.7502 20.8495ZM18.538 22.072C18.538 22.6488 18.6576 23.1746 18.9024 23.6436L19.3456 23.4124C19.1424 23.0228 19.038 22.5779 19.038 22.072H18.538ZM18.9055 23.6494C19.1586 24.1051 19.5006 24.4685 19.9304 24.7346L20.1936 24.3094C19.8394 24.0902 19.5561 23.7909 19.3425 23.4066L18.9055 23.6494ZM19.9326 24.7359C20.3766 25.0044 20.8795 25.136 21.434 25.136V24.636C20.9618 24.636 20.55 24.5249 20.1914 24.3081L19.9326 24.7359ZM28.302 27H28.052V27.25H28.302V27ZM28.302 17.2V16.95H28.052V17.2H28.302ZM34.196 17.62L34.0711 17.8365L34.0711 17.8365L34.196 17.62ZM35.344 18.768L35.1274 18.8929L35.1285 18.8948L35.344 18.768ZM35.344 22.1L35.5625 22.2214L35.5625 22.2214L35.344 22.1ZM34.196 23.29L34.068 23.0753L34.068 23.0753L34.196 23.29ZM30.696 23.724V23.474H30.446V23.724H30.696ZM30.696 27V27.25H30.946V27H30.696ZM30.668 21.61H30.418V21.86H30.668V21.61ZM32.768 21.47L32.8948 21.6855L32.8983 21.6833L32.768 21.47ZM33.174 21.05L33.3903 21.1753L33.3903 21.1753L33.174 21.05ZM33.174 19.846L33.3873 19.7156L33.3873 19.7156L33.174 19.846ZM32.768 19.454L32.6412 19.6695L32.6466 19.6725L32.768 19.454ZM30.668 19.314V19.064H30.418V19.314H30.668ZM28.552 27V17.2H28.052V27H28.552ZM28.302 17.45H32.544V16.95H28.302V17.45ZM32.544 17.45C33.1206 17.45 33.6274 17.5806 34.0711 17.8365L34.3209 17.4035C33.7939 17.0994 33.1994 16.95 32.544 16.95V17.45ZM34.0711 17.8365C34.5183 18.0946 34.8694 18.4457 35.1274 18.8929L35.5605 18.6431C35.2586 18.1197 34.8443 17.7054 34.3209 17.4035L34.0711 17.8365ZM35.1285 18.8948C35.3834 19.328 35.514 19.8293 35.514 20.406H36.014C36.014 19.7507 35.8646 19.16 35.5595 18.6412L35.1285 18.8948ZM35.514 20.406C35.514 20.9925 35.3831 21.5148 35.1254 21.9786L35.5625 22.2214C35.8649 21.6772 36.014 21.0701 36.014 20.406H35.514ZM35.1254 21.9786C34.8664 22.4449 34.5146 22.809 34.068 23.0753L34.324 23.5047C34.848 23.1923 35.2616 22.7631 35.5625 22.2214L35.1254 21.9786ZM34.068 23.0753C33.6248 23.3395 33.1191 23.474 32.544 23.474V23.974C33.2009 23.974 33.7965 23.8192 34.324 23.5047L34.068 23.0753ZM32.544 23.474H30.696V23.974H32.544V23.474ZM30.446 23.724V27H30.946V23.724H30.446ZM30.696 26.75H28.302V27.25H30.696V26.75ZM30.668 21.86H32.222V21.36H30.668V21.86ZM32.222 21.86C32.4666 21.86 32.6934 21.8039 32.8947 21.6855L32.6412 21.2545C32.5253 21.3227 32.388 21.36 32.222 21.36V21.86ZM32.8983 21.6833C33.1034 21.558 33.2677 21.3871 33.3903 21.1753L32.9576 20.9247C32.875 21.0675 32.7686 21.1766 32.6376 21.2567L32.8983 21.6833ZM33.3903 21.1753C33.5171 20.9564 33.578 20.7118 33.578 20.448H33.078C33.078 20.6322 33.0362 20.789 32.9576 20.9247L33.3903 21.1753ZM33.578 20.448C33.578 20.1773 33.5181 19.9296 33.3873 19.7156L32.9607 19.9764C33.0352 20.0984 33.078 20.2521 33.078 20.448H33.578ZM33.3873 19.7156C33.2627 19.5117 33.0961 19.3503 32.8894 19.2355L32.6466 19.6725C32.7759 19.7444 32.8799 19.8443 32.9607 19.9764L33.3873 19.7156ZM32.8947 19.2385C32.6934 19.1201 32.4666 19.064 32.222 19.064V19.564C32.388 19.564 32.5253 19.6013 32.6412 19.6695L32.8947 19.2385ZM32.222 19.064H30.668V19.564H32.222V19.064ZM30.418 19.314V21.61H30.918V19.314H30.418ZM39.0275 26.734L38.9296 26.9641L38.9355 26.9665L39.0275 26.734ZM37.8655 25.978L37.6887 26.1548L37.6939 26.1598L37.8655 25.978ZM37.0955 24.844L37.3248 24.7443L37.3248 24.7443L37.0955 24.844ZM36.8155 23.458L36.5655 23.4528V23.458H36.8155ZM37.0115 22.142L36.7719 22.0706L36.7709 22.074L37.0115 22.142ZM37.5575 20.798L37.3348 20.6844L37.3348 20.6844L37.5575 20.798ZM38.3835 19.328L38.5972 19.4577L38.5984 19.4558L38.3835 19.328ZM39.7415 17.046V16.796H39.5994L39.5267 16.9182L39.7415 17.046ZM41.9395 17.046L42.1631 16.9342L42.094 16.796H41.9395V17.046ZM42.0095 17.186L42.2207 17.3198L42.2963 17.2005L42.2331 17.0742L42.0095 17.186ZM40.1195 20.168L39.9083 20.0342L39.9069 20.0364L40.1195 20.168ZM39.4895 21.288L39.7119 21.4022L39.7131 21.3998L39.4895 21.288ZM38.9995 22.31L38.771 22.2084L38.7687 22.2138L38.9995 22.31ZM38.5795 23.374L38.3505 23.4744L38.5976 24.0379L38.8136 23.4618L38.5795 23.374ZM38.1315 22.352L37.8919 22.2806L37.8658 22.3684L37.9025 22.4524L38.1315 22.352ZM38.7895 21.204L38.6078 21.0323L38.6076 21.0325L38.7895 21.204ZM39.8675 20.42L39.7621 20.1933L39.7621 20.1933L39.8675 20.42ZM42.5415 20.588L42.4048 20.7974L42.4098 20.8005L42.5415 20.588ZM43.6475 21.75L43.4292 21.8718L43.431 21.8749L43.6475 21.75ZM43.5915 25.222L43.374 25.0987L43.3733 25.1L43.5915 25.222ZM41.2535 24.83L41.1313 24.6118L41.1275 24.6141L41.2535 24.83ZM41.7995 24.284L42.0177 24.4062L42.0196 24.4025L41.7995 24.284ZM41.7855 22.73L41.5673 22.8522L41.5711 22.8586L41.7855 22.73ZM41.2535 22.17L41.386 21.958L41.386 21.958L41.2535 22.17ZM39.6995 22.17L39.8217 22.3882L39.8281 22.3844L39.6995 22.17ZM39.1535 22.716L39.3695 22.842L39.3716 22.8382L39.1535 22.716ZM39.1535 24.27L38.9334 24.3885L38.9354 24.3922L39.1535 24.27ZM39.6855 24.83L39.5529 25.0422L39.5634 25.0481L39.6855 24.83ZM40.4555 26.75C39.9815 26.75 39.5369 26.6668 39.1195 26.5015L38.9355 26.9665C39.4141 27.1559 39.9215 27.25 40.4555 27.25V26.75ZM39.1254 26.504C38.7131 26.3285 38.351 26.0926 38.0372 25.7962L37.6939 26.1598C38.0521 26.4981 38.4646 26.7661 38.9296 26.964L39.1254 26.504ZM38.0423 25.8012C37.7381 25.497 37.4991 25.1453 37.3248 24.7443L36.8662 24.9437C37.0652 25.4014 37.3396 25.8056 37.6887 26.1548L38.0423 25.8012ZM37.3248 24.7443C37.1526 24.3482 37.0655 23.9203 37.0655 23.458H36.5655C36.5655 23.985 36.6651 24.4811 36.8662 24.9437L37.3248 24.7443ZM37.0655 23.4632C37.0744 23.0364 37.1366 22.6188 37.2521 22.21L36.7709 22.074C36.6438 22.5239 36.5753 22.9836 36.5656 23.4528L37.0655 23.4632ZM37.2511 22.2134C37.377 21.7909 37.553 21.357 37.7802 20.9116L37.3348 20.6844C37.0954 21.1536 36.9074 21.6158 36.7719 22.0706L37.2511 22.2134ZM37.7802 20.9116C38.0103 20.4607 38.2825 19.9761 38.5972 19.4577L38.1698 19.1983C37.8499 19.7252 37.5714 20.2206 37.3348 20.6844L37.7802 20.9116ZM38.5984 19.4558L39.9564 17.1738L39.5267 16.9182L38.1687 19.2002L38.5984 19.4558ZM39.7415 17.296H41.9395V16.796H39.7415V17.296ZM41.7159 17.1578L41.7859 17.2978L42.2331 17.0742L42.1631 16.9342L41.7159 17.1578ZM41.7984 17.0522L39.9084 20.0342L40.3307 20.3018L42.2207 17.3198L41.7984 17.0522ZM39.9069 20.0364C39.6609 20.4338 39.4471 20.8138 39.2659 21.1762L39.7131 21.3998C39.8866 21.0529 40.0928 20.6862 40.3321 20.2996L39.9069 20.0364ZM39.2671 21.1738C39.0878 21.5231 38.9224 21.868 38.7711 22.2085L39.228 22.4115C39.3753 22.08 39.5366 21.7436 39.7119 21.4022L39.2671 21.1738ZM38.7687 22.2138C38.6275 22.5529 38.4864 22.9103 38.3454 23.2862L38.8136 23.4618C38.9526 23.091 39.0915 22.7391 39.2303 22.4062L38.7687 22.2138ZM38.8085 23.2736L38.3605 22.2516L37.9025 22.4524L38.3505 23.4744L38.8085 23.2736ZM38.3711 22.4234C38.4909 22.0214 38.6907 21.6732 38.9714 21.3755L38.6076 21.0325C38.2723 21.3881 38.0335 21.8053 37.8919 22.2806L38.3711 22.4234ZM38.9713 21.3757C39.2678 21.0616 39.6016 20.8194 39.9729 20.6467L39.7621 20.1933C39.3308 20.3939 38.9458 20.6744 38.6078 21.0323L38.9713 21.3757ZM39.9729 20.6467C40.3473 20.4726 40.6987 20.39 41.0295 20.39V19.89C40.6136 19.89 40.1904 19.9941 39.7621 20.1933L39.9729 20.6467ZM41.0295 20.39C41.5321 20.39 41.9885 20.5254 42.4048 20.7973L42.6782 20.3787C42.1799 20.0532 41.6283 19.89 41.0295 19.89V20.39ZM42.4098 20.8005C42.8399 21.0671 43.1789 21.4231 43.4292 21.8718L43.8659 21.6282C43.5748 21.1063 43.1765 20.6875 42.6733 20.3755L42.4098 20.8005ZM43.431 21.8749C43.6883 22.321 43.8175 22.8097 43.8175 23.346H44.3175C44.3175 22.725 44.1667 22.1497 43.8641 21.6251L43.431 21.8749ZM43.8175 23.346C43.8175 23.9967 43.6685 24.5791 43.374 25.0987L43.809 25.3453C44.1492 24.7449 44.3175 24.0766 44.3175 23.346H43.8175ZM43.3733 25.1C43.0869 25.612 42.6938 26.0136 42.1911 26.3083L42.4439 26.7397C43.0239 26.3997 43.4801 25.9333 43.8097 25.344L43.3733 25.1ZM42.1911 26.3083C41.6924 26.6007 41.1163 26.75 40.4555 26.75V27.25C41.1947 27.25 41.86 27.082 42.4439 26.7397L42.1911 26.3083ZM40.4835 25.276C40.8119 25.276 41.113 25.2014 41.3795 25.0459L41.1275 24.6141C40.9461 24.7199 40.7338 24.776 40.4835 24.776V25.276ZM41.3757 25.0481C41.6492 24.8949 41.8644 24.6797 42.0176 24.4062L41.5814 24.1618C41.4733 24.355 41.3245 24.5037 41.1314 24.6119L41.3757 25.0481ZM42.0196 24.4025C42.1715 24.1204 42.2455 23.8085 42.2455 23.472H41.7455C41.7455 23.7328 41.6888 23.9622 41.5794 24.1655L42.0196 24.4025ZM42.2455 23.472C42.2455 23.1634 42.1622 22.8719 41.9999 22.6014L41.5711 22.8586C41.6888 23.0548 41.7455 23.2579 41.7455 23.472H42.2455ZM42.0036 22.6078C41.8527 22.3383 41.6461 22.1206 41.386 21.958L41.121 22.382C41.3089 22.4994 41.457 22.655 41.5674 22.8522L42.0036 22.6078ZM41.386 21.958C41.1199 21.7917 40.8214 21.71 40.4975 21.71V22.21C40.7336 22.21 40.9392 22.2683 41.121 22.382L41.386 21.958ZM40.4975 21.71C40.1581 21.71 39.8468 21.7901 39.5709 21.9556L39.8281 22.3844C40.0189 22.2699 40.2396 22.21 40.4975 22.21V21.71ZM39.5774 21.9519C39.3038 22.1051 39.0886 22.3203 38.9354 22.5938L39.3716 22.8382C39.4798 22.645 39.6286 22.4963 39.8217 22.3881L39.5774 21.9519ZM38.9376 22.59C38.7828 22.8553 38.7075 23.1514 38.7075 23.472H39.2075C39.2075 23.2326 39.2629 23.0247 39.3695 22.842L38.9376 22.59ZM38.7075 23.472C38.7075 23.8006 38.7821 24.1076 38.9334 24.3885L39.3736 24.1515C39.2636 23.9471 39.2075 23.7221 39.2075 23.472H38.7075ZM38.9354 24.3922C39.0863 24.6617 39.2929 24.8794 39.553 25.042L39.818 24.618C39.6301 24.5006 39.482 24.345 39.3716 24.1478L38.9354 24.3922ZM39.5634 25.0481C39.8382 25.202 40.1472 25.276 40.4835 25.276V24.776C40.2225 24.776 39.9995 24.7193 39.8077 24.6119L39.5634 25.0481Z" fill="white"/>
</g>
<defs>
<clipPath id="clip0_195_579">
<rect width="52.54" height="44.22" fill="white"/>
</clipPath>
</defs>
</svg>
