<svg width="53" height="45" viewBox="0 0 53 45" fill="none" xmlns="http://www.w3.org/2000/svg">
<g clip-path="url(#clip0_195_563)">
<path d="M26.09 44.22C40.4991 44.22 52.18 34.321 52.18 22.11C52.18 9.89898 40.4991 0 26.09 0C11.6809 0 0 9.89898 0 22.11C0 34.321 11.6809 44.22 26.09 44.22Z" fill="#FFC107"/>
<path d="M41.1701 27.8501L52.5401 43.3001L28.8101 38.1101L41.1701 27.8501Z" fill="#FFC107"/>
<path d="M15.938 17.172V19.09H13.334V27H10.94V19.09H8.336V17.172H15.938ZM21.7875 27.098C20.8635 27.098 20.0142 26.8833 19.2395 26.454C18.4742 26.0247 17.8628 25.4273 17.4055 24.662C16.9575 23.8873 16.7335 23.0193 16.7335 22.058C16.7335 21.0967 16.9575 20.2333 17.4055 19.468C17.8628 18.7027 18.4742 18.1053 19.2395 17.676C20.0142 17.2467 20.8635 17.032 21.7875 17.032C22.7115 17.032 23.5562 17.2467 24.3215 17.676C25.0962 18.1053 25.7028 18.7027 26.1415 19.468C26.5895 20.2333 26.8135 21.0967 26.8135 22.058C26.8135 23.0193 26.5895 23.8873 26.1415 24.662C25.6935 25.4273 25.0868 26.0247 24.3215 26.454C23.5562 26.8833 22.7115 27.098 21.7875 27.098ZM21.7875 24.914C22.5715 24.914 23.1968 24.6527 23.6635 24.13C24.1395 23.6073 24.3775 22.9167 24.3775 22.058C24.3775 21.19 24.1395 20.4993 23.6635 19.986C23.1968 19.4633 22.5715 19.202 21.7875 19.202C20.9942 19.202 20.3595 19.4587 19.8835 19.972C19.4168 20.4853 19.1835 21.1807 19.1835 22.058C19.1835 22.926 19.4168 23.6213 19.8835 24.144C20.3595 24.6573 20.9942 24.914 21.7875 24.914ZM35.6353 20.336C35.6353 20.9053 35.5047 21.428 35.2433 21.904C34.982 22.3707 34.5807 22.7487 34.0393 23.038C33.498 23.3273 32.826 23.472 32.0233 23.472H30.5393V27H28.1453V17.172H32.0233C32.8073 17.172 33.47 17.3073 34.0113 17.578C34.5527 17.8487 34.9587 18.222 35.2293 18.698C35.5 19.174 35.6353 19.72 35.6353 20.336ZM31.8413 21.568C32.2987 21.568 32.6393 21.4607 32.8633 21.246C33.0873 21.0313 33.1993 20.728 33.1993 20.336C33.1993 19.944 33.0873 19.6407 32.8633 19.426C32.6393 19.2113 32.2987 19.104 31.8413 19.104H30.5393V21.568H31.8413ZM36.5597 25.082C36.877 24.83 37.0217 24.7133 36.9937 24.732C37.9083 23.976 38.627 23.3553 39.1497 22.87C39.6817 22.3847 40.1297 21.876 40.4937 21.344C40.8577 20.812 41.0397 20.294 41.0397 19.79C41.0397 19.4073 40.951 19.1087 40.7737 18.894C40.5963 18.6793 40.3303 18.572 39.9757 18.572C39.621 18.572 39.341 18.7073 39.1357 18.978C38.9397 19.2393 38.8417 19.6127 38.8417 20.098H36.5317C36.5503 19.3047 36.7183 18.642 37.0357 18.11C37.3623 17.578 37.787 17.186 38.3097 16.934C38.8417 16.682 39.4297 16.556 40.0737 16.556C41.1843 16.556 42.0197 16.8407 42.5797 17.41C43.149 17.9793 43.4337 18.7213 43.4337 19.636C43.4337 20.6347 43.093 21.5633 42.4117 22.422C41.7303 23.2713 40.8623 24.102 39.8077 24.914H43.5877V26.86H36.5597V25.082Z" fill="white"/>
</g>
<defs>
<clipPath id="clip0_195_563">
<rect width="52.54" height="44.22" fill="white"/>
</clipPath>
</defs>
</svg>
