<svg width="53" height="45" viewBox="0 0 53 45" fill="none" xmlns="http://www.w3.org/2000/svg">
<g clip-path="url(#clip0_195_567)">
<path d="M26.09 44.22C40.4991 44.22 52.18 34.321 52.18 22.11C52.18 9.89898 40.4991 0 26.09 0C11.6809 0 0 9.89898 0 22.11C0 34.321 11.6809 44.22 26.09 44.22Z" fill="#FFC107"/>
<path d="M41.1701 27.8501L52.5401 43.3001L28.8101 38.1101L41.1701 27.8501Z" fill="#FFC107"/>
<path d="M15.938 17.172V19.09H13.334V27H10.94V19.09H8.336V17.172H15.938ZM21.7875 27.098C20.8635 27.098 20.0142 26.8833 19.2395 26.454C18.4742 26.0247 17.8628 25.4273 17.4055 24.662C16.9575 23.8873 16.7335 23.0193 16.7335 22.058C16.7335 21.0967 16.9575 20.2333 17.4055 19.468C17.8628 18.7027 18.4742 18.1053 19.2395 17.676C20.0142 17.2467 20.8635 17.032 21.7875 17.032C22.7115 17.032 23.5562 17.2467 24.3215 17.676C25.0962 18.1053 25.7028 18.7027 26.1415 19.468C26.5895 20.2333 26.8135 21.0967 26.8135 22.058C26.8135 23.0193 26.5895 23.8873 26.1415 24.662C25.6935 25.4273 25.0868 26.0247 24.3215 26.454C23.5562 26.8833 22.7115 27.098 21.7875 27.098ZM21.7875 24.914C22.5715 24.914 23.1968 24.6527 23.6635 24.13C24.1395 23.6073 24.3775 22.9167 24.3775 22.058C24.3775 21.19 24.1395 20.4993 23.6635 19.986C23.1968 19.4633 22.5715 19.202 21.7875 19.202C20.9942 19.202 20.3595 19.4587 19.8835 19.972C19.4168 20.4853 19.1835 21.1807 19.1835 22.058C19.1835 22.926 19.4168 23.6213 19.8835 24.144C20.3595 24.6573 20.9942 24.914 21.7875 24.914ZM35.6353 20.336C35.6353 20.9053 35.5047 21.428 35.2433 21.904C34.982 22.3707 34.5807 22.7487 34.0393 23.038C33.498 23.3273 32.826 23.472 32.0233 23.472H30.5393V27H28.1453V17.172H32.0233C32.8073 17.172 33.47 17.3073 34.0113 17.578C34.5527 17.8487 34.9587 18.222 35.2293 18.698C35.5 19.174 35.6353 19.72 35.6353 20.336ZM31.8413 21.568C32.2987 21.568 32.6393 21.4607 32.8633 21.246C33.0873 21.0313 33.1993 20.728 33.1993 20.336C33.1993 19.944 33.0873 19.6407 32.8633 19.426C32.6393 19.2113 32.2987 19.104 31.8413 19.104H30.5393V21.568H31.8413ZM36.7277 19.664C36.765 18.6653 37.0917 17.8953 37.7077 17.354C38.3237 16.8127 39.159 16.542 40.2137 16.542C40.9137 16.542 41.511 16.6633 42.0057 16.906C42.5097 17.1487 42.8877 17.48 43.1397 17.9C43.401 18.32 43.5317 18.7913 43.5317 19.314C43.5317 19.93 43.3777 20.434 43.0697 20.826C42.7617 21.2087 42.4023 21.47 41.9917 21.61V21.666C42.5237 21.8433 42.9437 22.1373 43.2517 22.548C43.5597 22.9587 43.7137 23.486 43.7137 24.13C43.7137 24.7087 43.5783 25.222 43.3077 25.67C43.0463 26.1087 42.659 26.454 42.1457 26.706C41.6417 26.958 41.0397 27.084 40.3397 27.084C39.2197 27.084 38.3237 26.8087 37.6517 26.258C36.989 25.7073 36.639 24.8767 36.6017 23.766H38.9257C38.935 24.1767 39.0517 24.5033 39.2757 24.746C39.4997 24.9793 39.8263 25.096 40.2557 25.096C40.6197 25.096 40.8997 24.9933 41.0957 24.788C41.301 24.5733 41.4037 24.2933 41.4037 23.948C41.4037 23.5 41.259 23.178 40.9697 22.982C40.6897 22.7767 40.237 22.674 39.6117 22.674H39.1637V20.728H39.6117C40.0877 20.728 40.4703 20.6487 40.7597 20.49C41.0583 20.322 41.2077 20.028 41.2077 19.608C41.2077 19.272 41.1143 19.0107 40.9277 18.824C40.741 18.6373 40.4843 18.544 40.1577 18.544C39.803 18.544 39.537 18.6513 39.3597 18.866C39.1917 19.0807 39.0937 19.3467 39.0657 19.664H36.7277Z" fill="white"/>
</g>
<defs>
<clipPath id="clip0_195_567">
<rect width="52.54" height="44.22" fill="white"/>
</clipPath>
</defs>
</svg>
