<svg width="53" height="45" viewBox="0 0 53 45" fill="none" xmlns="http://www.w3.org/2000/svg">
<g clip-path="url(#clip0_195_567)">
<path d="M26.09 44.22C40.4991 44.22 52.18 34.321 52.18 22.11C52.18 9.89898 40.4991 0 26.09 0C11.6809 0 0 9.89898 0 22.11C0 34.321 11.6809 44.22 26.09 44.22Z" fill="#FFC107"/>
<path d="M41.1701 27.8501L52.5401 43.3001L28.8101 38.1101L41.1701 27.8501Z" fill="#FFC107"/>
<path d="M10.346 27V19.314H7.462V17.2H15.722V19.314H12.74V27H10.346ZM21.434 27.14C20.6967 27.14 20.0153 27.014 19.39 26.762C18.774 26.51 18.2373 26.16 17.78 25.712C17.332 25.2547 16.982 24.718 16.73 24.102C16.478 23.4767 16.352 22.7953 16.352 22.058C16.352 21.33 16.478 20.658 16.73 20.042C16.982 19.4167 17.332 18.8753 17.78 18.418C18.2373 17.9607 18.774 17.606 19.39 17.354C20.0153 17.102 20.6967 16.976 21.434 16.976C22.162 16.976 22.834 17.102 23.45 17.354C24.066 17.606 24.598 17.9607 25.046 18.418C25.5033 18.8753 25.858 19.4167 26.11 20.042C26.362 20.658 26.488 21.3347 26.488 22.072C26.488 22.8 26.362 23.472 26.11 24.088C25.858 24.704 25.5033 25.2407 25.046 25.698C24.598 26.1553 24.066 26.51 23.45 26.762C22.834 27.014 22.162 27.14 21.434 27.14ZM21.434 24.886C21.8167 24.886 22.1667 24.816 22.484 24.676C22.8013 24.536 23.0767 24.34 23.31 24.088C23.5527 23.836 23.7393 23.5373 23.87 23.192C24.0007 22.8467 24.066 22.4733 24.066 22.072C24.066 21.6613 24.0007 21.2833 23.87 20.938C23.7393 20.5927 23.5527 20.294 23.31 20.042C23.0767 19.7807 22.8013 19.58 22.484 19.44C22.1667 19.3 21.8167 19.23 21.434 19.23C21.0513 19.23 20.6967 19.3 20.37 19.44C20.0527 19.58 19.7727 19.7807 19.53 20.042C19.2967 20.294 19.1147 20.5927 18.984 20.938C18.8533 21.2833 18.788 21.6613 18.788 22.072C18.788 22.6133 18.9 23.0987 19.124 23.528C19.3573 23.948 19.67 24.2793 20.062 24.522C20.4633 24.7647 20.9207 24.886 21.434 24.886ZM28.302 27V17.2H32.544C33.16 17.2 33.7107 17.34 34.196 17.62C34.6813 17.9 35.064 18.2827 35.344 18.768C35.624 19.244 35.764 19.79 35.764 20.406C35.764 21.0313 35.624 21.596 35.344 22.1C35.064 22.604 34.6813 23.0007 34.196 23.29C33.7107 23.5793 33.16 23.724 32.544 23.724H30.696V27H28.302ZM30.668 21.61H32.222C32.4273 21.61 32.6093 21.5633 32.768 21.47C32.936 21.3673 33.0713 21.2273 33.174 21.05C33.2767 20.8727 33.328 20.672 33.328 20.448C33.328 20.2147 33.2767 20.014 33.174 19.846C33.0713 19.678 32.936 19.5473 32.768 19.454C32.6093 19.3607 32.4273 19.314 32.222 19.314H30.668V21.61ZM40.3575 27.14C39.5642 27.14 38.8735 26.9767 38.2855 26.65C37.6975 26.314 37.1562 25.74 36.6615 24.928L38.3975 23.836C38.5935 24.1533 38.7988 24.41 39.0135 24.606C39.2375 24.802 39.4662 24.9467 39.6995 25.04C39.9422 25.124 40.1895 25.166 40.4415 25.166C40.7028 25.166 40.9408 25.11 41.1555 24.998C41.3702 24.8767 41.5428 24.7133 41.6735 24.508C41.8042 24.2933 41.8695 24.046 41.8695 23.766C41.8695 23.4767 41.8135 23.2387 41.7015 23.052C41.5895 22.856 41.4262 22.7067 41.2115 22.604C40.9968 22.5013 40.7355 22.45 40.4275 22.45C40.2968 22.45 40.1475 22.4687 39.9795 22.506C39.8208 22.534 39.6528 22.576 39.4755 22.632C39.2982 22.688 39.1162 22.7533 38.9295 22.828L38.4115 21.442L40.7635 18.852L41.4075 19.216L37.3475 19.146V17.116H43.3675L43.8155 17.984L40.5815 21.442L40.0355 20.784C40.1102 20.756 40.2315 20.728 40.3995 20.7C40.5675 20.6627 40.7262 20.644 40.8755 20.644C41.3048 20.644 41.7108 20.7233 42.0935 20.882C42.4762 21.0407 42.8168 21.26 43.1155 21.54C43.4142 21.82 43.6475 22.1467 43.8155 22.52C43.9835 22.8933 44.0675 23.2993 44.0675 23.738C44.0675 24.3913 43.8995 24.9747 43.5635 25.488C43.2368 26.0013 42.7935 26.4073 42.2335 26.706C41.6735 26.9953 41.0482 27.14 40.3575 27.14Z" fill="white"/>
<path d="M10.346 27H10.096V27.25H10.346V27ZM10.346 19.314H10.596V19.064H10.346V19.314ZM7.462 19.314H7.212V19.564H7.462V19.314ZM7.462 17.2V16.95H7.212V17.2H7.462ZM15.722 17.2H15.972V16.95H15.722V17.2ZM15.722 19.314V19.564H15.972V19.314H15.722ZM12.74 19.314V19.064H12.49V19.314H12.74ZM12.74 27V27.25H12.99V27H12.74ZM10.596 27V19.314H10.096V27H10.596ZM10.346 19.064H7.462V19.564H10.346V19.064ZM7.712 19.314V17.2H7.212V19.314H7.712ZM7.462 17.45H15.722V16.95H7.462V17.45ZM15.472 17.2V19.314H15.972V17.2H15.472ZM15.722 19.064H12.74V19.564H15.722V19.064ZM12.49 19.314V27H12.99V19.314H12.49ZM12.74 26.75H10.346V27.25H12.74V26.75ZM19.39 26.762L19.2953 26.9934L19.2966 26.9939L19.39 26.762ZM17.78 25.712L17.6014 25.887L17.6051 25.8906L17.78 25.712ZM16.73 24.102L16.4981 24.1954L16.4986 24.1967L16.73 24.102ZM16.73 20.042L16.9614 20.1367L16.9619 20.1354L16.73 20.042ZM17.78 18.418L17.6032 18.2412L17.6014 18.2431L17.78 18.418ZM19.39 17.354L19.2966 17.1221L19.2953 17.1226L19.39 17.354ZM23.45 17.354L23.3553 17.5854L23.3553 17.5854L23.45 17.354ZM25.046 18.418L24.8674 18.593L24.8692 18.5948L25.046 18.418ZM26.11 20.042L25.8781 20.1354L25.8786 20.1367L26.11 20.042ZM26.11 24.088L25.8786 23.9933L25.8786 23.9933L26.11 24.088ZM25.046 25.698L24.8692 25.5212L24.8674 25.5231L25.046 25.698ZM23.45 26.762L23.3553 26.5306L23.3553 26.5306L23.45 26.762ZM22.484 24.676L22.5849 24.9047L22.484 24.676ZM23.31 24.088L23.1299 23.9146L23.1266 23.9181L23.31 24.088ZM23.87 23.192L23.6362 23.1035L23.87 23.192ZM23.87 20.938L23.6362 21.0265L23.87 20.938ZM23.31 20.042L23.1234 20.2086L23.1299 20.2154L23.31 20.042ZM22.484 19.44L22.5849 19.2113L22.484 19.44ZM20.37 19.44L20.2715 19.2102L20.2691 19.2113L20.37 19.44ZM19.53 20.042L19.3468 19.8719L19.3466 19.8721L19.53 20.042ZM19.124 23.528L18.9023 23.6437L18.9055 23.6494L19.124 23.528ZM20.062 24.522L19.9304 24.7346L19.9326 24.7359L20.062 24.522ZM21.434 26.89C20.7257 26.89 20.0764 26.7691 19.4834 26.5301L19.2966 26.9939C19.9543 27.2589 20.6677 27.39 21.434 27.39V26.89ZM19.4847 26.5306C18.8974 26.2904 18.3883 25.9579 17.9549 25.5334L17.6051 25.8906C18.0864 26.3621 18.6506 26.7296 19.2953 26.9934L19.4847 26.5306ZM17.9586 25.5371C17.5341 25.1037 17.2016 24.5946 16.9614 24.0073L16.4986 24.1967C16.7624 24.8414 17.1299 25.4056 17.6014 25.8869L17.9586 25.5371ZM16.9619 24.0086C16.7229 23.4156 16.602 22.7663 16.602 22.058H16.102C16.102 22.8243 16.2331 23.5377 16.4981 24.1954L16.9619 24.0086ZM16.602 22.058C16.602 21.3594 16.7228 20.7199 16.9614 20.1367L16.4986 19.9473C16.2332 20.5961 16.102 21.3006 16.102 22.058H16.602ZM16.9619 20.1354C17.2023 19.5389 17.5347 19.0256 17.9586 18.5929L17.6014 18.2431C17.1293 18.725 16.7617 19.2945 16.4981 19.9486L16.9619 20.1354ZM17.9568 18.5948C18.3899 18.1616 18.8985 17.8252 19.4847 17.5854L19.2953 17.1226C18.6495 17.3868 18.0847 17.7597 17.6032 18.2412L17.9568 18.5948ZM19.4834 17.5859C20.0764 17.3469 20.7257 17.226 21.434 17.226V16.726C20.6677 16.726 19.9543 16.8571 19.2966 17.1221L19.4834 17.5859ZM21.434 17.226C22.1326 17.226 22.7721 17.3468 23.3553 17.5854L23.5447 17.1226C22.8959 16.8572 22.1914 16.726 21.434 16.726V17.226ZM23.3553 17.5854C23.9411 17.825 24.4442 18.1609 24.8674 18.5929L25.2246 18.2431C24.7518 17.7604 24.1909 17.387 23.5447 17.1226L23.3553 17.5854ZM24.8692 18.5948C25.3018 19.0273 25.6382 19.54 25.8781 20.1354L26.3419 19.9486C26.0779 19.2934 25.7049 18.7234 25.2228 18.2412L24.8692 18.5948ZM25.8786 20.1367C26.1171 20.7195 26.238 21.3636 26.238 22.072H26.738C26.738 21.3057 26.6069 20.5965 26.3414 19.9473L25.8786 20.1367ZM26.238 22.072C26.238 22.7706 26.1172 23.4101 25.8786 23.9933L26.3414 24.1827C26.6068 23.5339 26.738 22.8294 26.738 22.072H26.238ZM25.8786 23.9933C25.6388 24.5795 25.3024 25.0881 24.8692 25.5212L25.2228 25.8748C25.7043 25.3933 26.0772 24.8285 26.3414 24.1827L25.8786 23.9933ZM24.8674 25.5231C24.4442 25.9551 23.9411 26.291 23.3553 26.5306L23.5447 26.9934C24.1909 26.729 24.7518 26.3556 25.2246 25.8729L24.8674 25.5231ZM23.3553 26.5306C22.7721 26.7692 22.1326 26.89 21.434 26.89V27.39C22.1914 27.39 22.8959 27.2588 23.5447 26.9934L23.3553 26.5306ZM21.434 25.136C21.8478 25.136 22.2326 25.0601 22.5849 24.9047L22.3831 24.4473C22.1007 24.5719 21.7855 24.636 21.434 24.636V25.136ZM22.5849 24.9047C22.9332 24.7511 23.2367 24.5352 23.4934 24.2579L23.1266 23.9181C22.9167 24.1448 22.6695 24.3209 22.3831 24.4473L22.5849 24.9047ZM23.4901 24.2614C23.7575 23.9837 23.9619 23.6557 24.1038 23.2805L23.6362 23.1035C23.5168 23.419 23.3478 23.6883 23.1299 23.9146L23.4901 24.2614ZM24.1038 23.2805C24.2461 22.9045 24.316 22.5009 24.316 22.072H23.816C23.816 22.4457 23.7553 22.7888 23.6362 23.1035L24.1038 23.2805ZM24.316 22.072C24.316 21.6345 24.2463 21.2261 24.1038 20.8495L23.6362 21.0265C23.755 21.3405 23.816 21.6882 23.816 22.072H24.316ZM24.1038 20.8495C23.9619 20.4743 23.7575 20.1463 23.4901 19.8686L23.1299 20.2154C23.3478 20.4417 23.5168 20.711 23.6362 21.0265L24.1038 20.8495ZM23.4965 19.8755C23.2396 19.5878 22.9352 19.3658 22.5849 19.2113L22.3831 19.6687C22.6674 19.7942 22.9137 19.9735 23.1235 20.2085L23.4965 19.8755ZM22.5849 19.2113C22.2326 19.0559 21.8478 18.98 21.434 18.98V19.48C21.7855 19.48 22.1007 19.5441 22.3831 19.6687L22.5849 19.2113ZM21.434 18.98C21.0201 18.98 20.6316 19.0559 20.2715 19.2102L20.4685 19.6698C20.7617 19.5441 21.0826 19.48 21.434 19.48V18.98ZM20.2691 19.2113C19.9197 19.3654 19.612 19.5863 19.3468 19.8719L19.7132 20.2121C19.9334 19.975 20.1856 19.7946 20.4709 19.6687L20.2691 19.2113ZM19.3466 19.8721C19.0897 20.1495 18.8914 20.4764 18.7502 20.8495L19.2178 21.0265C19.338 20.709 19.5036 20.4385 19.7134 20.2119L19.3466 19.8721ZM18.7502 20.8495C18.6077 21.2261 18.538 21.6345 18.538 22.072H19.038C19.038 21.6882 19.099 21.3405 19.2178 21.0265L18.7502 20.8495ZM18.538 22.072C18.538 22.6488 18.6576 23.1746 18.9024 23.6436L19.3456 23.4124C19.1424 23.0228 19.038 22.5779 19.038 22.072H18.538ZM18.9055 23.6494C19.1586 24.1051 19.5006 24.4685 19.9304 24.7346L20.1936 24.3094C19.8394 24.0902 19.5561 23.7909 19.3425 23.4066L18.9055 23.6494ZM19.9326 24.7359C20.3766 25.0044 20.8795 25.136 21.434 25.136V24.636C20.9618 24.636 20.55 24.5249 20.1914 24.3081L19.9326 24.7359ZM28.302 27H28.052V27.25H28.302V27ZM28.302 17.2V16.95H28.052V17.2H28.302ZM34.196 17.62L34.0711 17.8365L34.0711 17.8365L34.196 17.62ZM35.344 18.768L35.1274 18.8929L35.1285 18.8948L35.344 18.768ZM35.344 22.1L35.5625 22.2214L35.5625 22.2214L35.344 22.1ZM34.196 23.29L34.068 23.0753L34.068 23.0753L34.196 23.29ZM30.696 23.724V23.474H30.446V23.724H30.696ZM30.696 27V27.25H30.946V27H30.696ZM30.668 21.61H30.418V21.86H30.668V21.61ZM32.768 21.47L32.8948 21.6855L32.8983 21.6833L32.768 21.47ZM33.174 21.05L33.3903 21.1753L33.3903 21.1753L33.174 21.05ZM33.174 19.846L33.3873 19.7156L33.3873 19.7156L33.174 19.846ZM32.768 19.454L32.6412 19.6695L32.6466 19.6725L32.768 19.454ZM30.668 19.314V19.064H30.418V19.314H30.668ZM28.552 27V17.2H28.052V27H28.552ZM28.302 17.45H32.544V16.95H28.302V17.45ZM32.544 17.45C33.1206 17.45 33.6274 17.5806 34.0711 17.8365L34.3209 17.4035C33.7939 17.0994 33.1994 16.95 32.544 16.95V17.45ZM34.0711 17.8365C34.5183 18.0946 34.8694 18.4457 35.1274 18.8929L35.5605 18.6431C35.2586 18.1197 34.8443 17.7054 34.3209 17.4035L34.0711 17.8365ZM35.1285 18.8948C35.3834 19.328 35.514 19.8293 35.514 20.406H36.014C36.014 19.7507 35.8646 19.16 35.5595 18.6412L35.1285 18.8948ZM35.514 20.406C35.514 20.9925 35.3831 21.5148 35.1254 21.9786L35.5625 22.2214C35.8649 21.6772 36.014 21.0701 36.014 20.406H35.514ZM35.1254 21.9786C34.8664 22.4449 34.5146 22.809 34.068 23.0753L34.324 23.5047C34.848 23.1923 35.2616 22.7631 35.5625 22.2214L35.1254 21.9786ZM34.068 23.0753C33.6248 23.3395 33.1191 23.474 32.544 23.474V23.974C33.2009 23.974 33.7965 23.8192 34.324 23.5047L34.068 23.0753ZM32.544 23.474H30.696V23.974H32.544V23.474ZM30.446 23.724V27H30.946V23.724H30.446ZM30.696 26.75H28.302V27.25H30.696V26.75ZM30.668 21.86H32.222V21.36H30.668V21.86ZM32.222 21.86C32.4666 21.86 32.6934 21.8039 32.8947 21.6855L32.6412 21.2545C32.5253 21.3227 32.388 21.36 32.222 21.36V21.86ZM32.8983 21.6833C33.1034 21.558 33.2677 21.3871 33.3903 21.1753L32.9576 20.9247C32.875 21.0675 32.7686 21.1766 32.6376 21.2567L32.8983 21.6833ZM33.3903 21.1753C33.5171 20.9564 33.578 20.7118 33.578 20.448H33.078C33.078 20.6322 33.0362 20.789 32.9576 20.9247L33.3903 21.1753ZM33.578 20.448C33.578 20.1773 33.5181 19.9296 33.3873 19.7156L32.9607 19.9764C33.0352 20.0984 33.078 20.2521 33.078 20.448H33.578ZM33.3873 19.7156C33.2627 19.5117 33.0961 19.3503 32.8894 19.2355L32.6466 19.6725C32.7759 19.7444 32.8799 19.8443 32.9607 19.9764L33.3873 19.7156ZM32.8947 19.2385C32.6934 19.1201 32.4666 19.064 32.222 19.064V19.564C32.388 19.564 32.5253 19.6013 32.6412 19.6695L32.8947 19.2385ZM32.222 19.064H30.668V19.564H32.222V19.064ZM30.418 19.314V21.61H30.918V19.314H30.418ZM38.2855 26.65L38.1615 26.8671L38.1641 26.8685L38.2855 26.65ZM36.6615 24.928L36.5284 24.7164L36.3198 24.8476L36.448 25.0581L36.6615 24.928ZM38.3975 23.836L38.6102 23.7046L38.4778 23.4902L38.2644 23.6244L38.3975 23.836ZM39.0135 24.606L38.8449 24.7907L38.8489 24.7941L39.0135 24.606ZM39.6995 25.04L39.6066 25.2724L39.6177 25.2762L39.6995 25.04ZM41.1555 24.998L41.2712 25.2198L41.2785 25.2156L41.1555 24.998ZM41.6735 24.508L41.8845 24.6422L41.8871 24.638L41.6735 24.508ZM41.7015 23.052L41.4844 23.1761L41.4871 23.1806L41.7015 23.052ZM39.9795 22.506L40.023 22.7524L40.0337 22.75L39.9795 22.506ZM39.4755 22.632L39.5508 22.8704L39.5508 22.8704L39.4755 22.632ZM38.9295 22.828L38.6953 22.9155L38.7849 23.1551L39.0224 23.0601L38.9295 22.828ZM38.4115 21.442L38.2264 21.2739L38.124 21.3868L38.1773 21.5295L38.4115 21.442ZM40.7635 18.852L40.8865 18.6344L40.7127 18.5361L40.5784 18.6839L40.7635 18.852ZM41.4075 19.216L41.4032 19.466L41.5305 18.9984L41.4075 19.216ZM37.3475 19.146H37.0975V19.3917L37.3432 19.396L37.3475 19.146ZM37.3475 17.116V16.866H37.0975V17.116H37.3475ZM43.3675 17.116L43.5897 17.0013L43.5198 16.866H43.3675V17.116ZM43.8155 17.984L43.9981 18.1548L44.1185 18.026L44.0377 17.8693L43.8155 17.984ZM40.5815 21.442L40.3891 21.6016L40.5703 21.82L40.7641 21.6128L40.5815 21.442ZM40.0355 20.784L39.9477 20.5499L39.6188 20.6733L39.8431 20.9436L40.0355 20.784ZM40.3995 20.7L40.4407 20.947L40.4537 20.944L40.3995 20.7ZM42.0935 20.882L41.9978 21.1129L41.9978 21.1129L42.0935 20.882ZM43.1155 21.54L42.9445 21.7224L42.9445 21.7224L43.1155 21.54ZM43.8155 22.52L44.0435 22.4174L44.0435 22.4174L43.8155 22.52ZM43.5635 25.488L43.3543 25.3511L43.3526 25.3538L43.5635 25.488ZM42.2335 26.706L42.3483 26.9281L42.3512 26.9266L42.2335 26.706ZM40.3575 26.89C39.599 26.89 38.9516 26.7341 38.4069 26.4315L38.1641 26.8685C38.7954 27.2193 39.5293 27.39 40.3575 27.39V26.89ZM38.4096 26.4329C37.8701 26.1247 37.3561 25.5876 36.875 24.7979L36.448 25.0581C36.9563 25.8924 37.5249 26.5033 38.1615 26.8671L38.4096 26.4329ZM36.7946 25.1396L38.5306 24.0476L38.2644 23.6244L36.5284 24.7164L36.7946 25.1396ZM38.1848 23.9674C38.3897 24.2991 38.6091 24.5753 38.8449 24.7906L39.1821 24.4214C38.9886 24.2447 38.7973 24.0075 38.6102 23.7046L38.1848 23.9674ZM38.8489 24.7941C39.0903 25.0054 39.3428 25.1666 39.6067 25.2721L39.7924 24.8079C39.5896 24.7268 39.3847 24.5986 39.1781 24.4179L38.8489 24.7941ZM39.6177 25.2762C39.8862 25.3692 40.1611 25.416 40.4415 25.416V24.916C40.2179 24.916 39.9982 24.8788 39.7813 24.8038L39.6177 25.2762ZM40.4415 25.416C40.7398 25.416 41.018 25.3517 41.2712 25.2196L41.0399 24.7764C40.8637 24.8683 40.6659 24.916 40.4415 24.916V25.416ZM41.2785 25.2156C41.5284 25.0744 41.7314 24.8826 41.8844 24.6422L41.4626 24.3738C41.3542 24.544 41.212 24.6789 41.0325 24.7804L41.2785 25.2156ZM41.8871 24.638C42.0442 24.3798 42.1195 24.0865 42.1195 23.766H41.6195C41.6195 24.0055 41.5641 24.2069 41.46 24.378L41.8871 24.638ZM42.1195 23.766C42.1195 23.4458 42.0577 23.1597 41.9159 22.9234L41.4871 23.1806C41.5694 23.3177 41.6195 23.5075 41.6195 23.766H42.1195ZM41.9186 22.928C41.7799 22.6854 41.5773 22.5018 41.3194 22.3785L41.1037 22.8295C41.2751 22.9115 41.3991 23.0266 41.4845 23.176L41.9186 22.928ZM41.3194 22.3785C41.0626 22.2557 40.7623 22.2 40.4275 22.2V22.7C40.7088 22.7 40.9311 22.747 41.1037 22.8295L41.3194 22.3785ZM40.4275 22.2C40.2739 22.2 40.1058 22.2218 39.9253 22.262L40.0337 22.75C40.1892 22.7155 40.3198 22.7 40.4275 22.7V22.2ZM39.9361 22.2598C39.7651 22.29 39.5864 22.3348 39.4002 22.3936L39.5508 22.8704C39.7193 22.8172 39.8766 22.778 40.023 22.7522L39.9361 22.2598ZM39.4002 22.3936C39.2165 22.4516 39.0287 22.5191 38.8367 22.5959L39.0224 23.0601C39.2037 22.9876 39.3798 22.9244 39.5508 22.8704L39.4002 22.3936ZM39.1637 22.7405L38.6457 21.3545L38.1773 21.5295L38.6953 22.9155L39.1637 22.7405ZM38.5966 21.6101L40.9486 19.0201L40.5784 18.6839L38.2264 21.2739L38.5966 21.6101ZM40.6405 19.0696L41.2845 19.4336L41.5305 18.9984L40.8865 18.6344L40.6405 19.0696ZM41.4118 18.966L37.3518 18.896L37.3432 19.396L41.4032 19.466L41.4118 18.966ZM37.5975 19.146V17.116H37.0975V19.146H37.5975ZM37.3475 17.366H43.3675V16.866H37.3475V17.366ZM43.1454 17.2307L43.5934 18.0987L44.0377 17.8693L43.5897 17.0013L43.1454 17.2307ZM43.6329 17.8132L40.3989 21.2712L40.7641 21.6128L43.9981 18.1548L43.6329 17.8132ZM40.7739 21.2824L40.2279 20.6244L39.8431 20.9436L40.3891 21.6016L40.7739 21.2824ZM40.1233 21.0181C40.1738 20.9991 40.2748 20.9742 40.4406 20.9466L40.3584 20.4534C40.1882 20.4818 40.0465 20.5129 39.9477 20.5499L40.1233 21.0181ZM40.4537 20.944C40.6066 20.9101 40.7469 20.894 40.8755 20.894V20.394C40.7054 20.394 40.5285 20.4152 40.3453 20.456L40.4537 20.944ZM40.8755 20.894C41.2732 20.894 41.6466 20.9673 41.9978 21.1129L42.1893 20.6511C41.7751 20.4794 41.3365 20.394 40.8755 20.394V20.894ZM41.9978 21.1129C42.353 21.2602 42.6681 21.4632 42.9445 21.7224L43.2865 21.3576C42.9656 21.0568 42.5994 20.8211 42.1893 20.6511L41.9978 21.1129ZM42.9445 21.7224C43.2191 21.9798 43.4331 22.2794 43.5875 22.6226L44.0435 22.4174C43.862 22.014 43.6092 21.6602 43.2865 21.3576L42.9445 21.7224ZM43.5875 22.6226C43.74 22.9614 43.8175 23.3321 43.8175 23.738H44.3175C44.3175 23.2665 44.227 22.8253 44.0435 22.4174L43.5875 22.6226ZM43.8175 23.738C43.8175 24.346 43.6619 24.8811 43.3543 25.3511L43.7727 25.6249C44.1371 25.0682 44.3175 24.4367 44.3175 23.738H43.8175ZM43.3526 25.3538C43.0501 25.8292 42.6396 26.2061 42.1159 26.4854L42.3512 26.9266C42.9475 26.6086 43.4236 26.1735 43.7744 25.6222L43.3526 25.3538ZM42.1188 26.4839C41.5975 26.7532 41.0121 26.89 40.3575 26.89V27.39C41.0842 27.39 41.7495 27.2375 42.3483 26.9281L42.1188 26.4839Z" fill="white"/>
</g>
<defs>
<clipPath id="clip0_195_567">
<rect width="52.54" height="44.22" fill="white"/>
</clipPath>
</defs>
</svg>
