<svg width="53" height="45" viewBox="0 0 53 45" fill="none" xmlns="http://www.w3.org/2000/svg">
<g clip-path="url(#clip0_194_559)">
<path d="M26.09 44.22C40.4991 44.22 52.18 34.321 52.18 22.11C52.18 9.89898 40.4991 0 26.09 0C11.6809 0 0 9.89898 0 22.11C0 34.321 11.6809 44.22 26.09 44.22Z" fill="#FFC107"/>
<path d="M41.1701 27.8501L52.5401 43.3001L28.8101 38.1101L41.1701 27.8501Z" fill="#FFC107"/>
<path d="M16.938 17.172V19.09H14.334V27H11.94V19.09H9.336V17.172H16.938ZM22.7875 27.098C21.8635 27.098 21.0142 26.8833 20.2395 26.454C19.4742 26.0247 18.8628 25.4273 18.4055 24.662C17.9575 23.8873 17.7335 23.0193 17.7335 22.058C17.7335 21.0967 17.9575 20.2333 18.4055 19.468C18.8628 18.7027 19.4742 18.1053 20.2395 17.676C21.0142 17.2467 21.8635 17.032 22.7875 17.032C23.7115 17.032 24.5562 17.2467 25.3215 17.676C26.0962 18.1053 26.7028 18.7027 27.1415 19.468C27.5895 20.2333 27.8135 21.0967 27.8135 22.058C27.8135 23.0193 27.5895 23.8873 27.1415 24.662C26.6935 25.4273 26.0868 26.0247 25.3215 26.454C24.5562 26.8833 23.7115 27.098 22.7875 27.098ZM22.7875 24.914C23.5715 24.914 24.1968 24.6527 24.6635 24.13C25.1395 23.6073 25.3775 22.9167 25.3775 22.058C25.3775 21.19 25.1395 20.4993 24.6635 19.986C24.1968 19.4633 23.5715 19.202 22.7875 19.202C21.9942 19.202 21.3595 19.4587 20.8835 19.972C20.4168 20.4853 20.1835 21.1807 20.1835 22.058C20.1835 22.926 20.4168 23.6213 20.8835 24.144C21.3595 24.6573 21.9942 24.914 22.7875 24.914ZM36.6353 20.336C36.6353 20.9053 36.5047 21.428 36.2433 21.904C35.982 22.3707 35.5807 22.7487 35.0393 23.038C34.498 23.3273 33.826 23.472 33.0233 23.472H31.5393V27H29.1453V17.172H33.0233C33.8073 17.172 34.47 17.3073 35.0113 17.578C35.5527 17.8487 35.9587 18.222 36.2293 18.698C36.5 19.174 36.6353 19.72 36.6353 20.336ZM32.8413 21.568C33.2987 21.568 33.6393 21.4607 33.8633 21.246C34.0873 21.0313 34.1993 20.728 34.1993 20.336C34.1993 19.944 34.0873 19.6407 33.8633 19.426C33.6393 19.2113 33.2987 19.104 32.8413 19.104H31.5393V21.568H32.8413ZM37.3917 19.006V16.78H41.2697V27H38.7777V19.006H37.3917Z" fill="white"/>
</g>
<defs>
<clipPath id="clip0_194_559">
<rect width="52.54" height="44.22" fill="white"/>
</clipPath>
</defs>
</svg>
