<svg width="53" height="45" viewBox="0 0 53 45" fill="none" xmlns="http://www.w3.org/2000/svg">
<g clip-path="url(#clip0_194_559)">
<path d="M26.09 44.22C40.4991 44.22 52.18 34.321 52.18 22.11C52.18 9.89898 40.4991 0 26.09 0C11.6809 0 0 9.89898 0 22.11C0 34.321 11.6809 44.22 26.09 44.22Z" fill="#FFC107"/>
<path d="M41.1701 27.8501L52.5401 43.3001L28.8101 38.1101L41.1701 27.8501Z" fill="#FFC107"/>
<path d="M11.346 27V19.314H8.462V17.2H16.722V19.314H13.74V27H11.346ZM22.434 27.14C21.6967 27.14 21.0153 27.014 20.39 26.762C19.774 26.51 19.2373 26.16 18.78 25.712C18.332 25.2547 17.982 24.718 17.73 24.102C17.478 23.4767 17.352 22.7953 17.352 22.058C17.352 21.33 17.478 20.658 17.73 20.042C17.982 19.4167 18.332 18.8753 18.78 18.418C19.2373 17.9607 19.774 17.606 20.39 17.354C21.0153 17.102 21.6967 16.976 22.434 16.976C23.162 16.976 23.834 17.102 24.45 17.354C25.066 17.606 25.598 17.9607 26.046 18.418C26.5033 18.8753 26.858 19.4167 27.11 20.042C27.362 20.658 27.488 21.3347 27.488 22.072C27.488 22.8 27.362 23.472 27.11 24.088C26.858 24.704 26.5033 25.2407 26.046 25.698C25.598 26.1553 25.066 26.51 24.45 26.762C23.834 27.014 23.162 27.14 22.434 27.14ZM22.434 24.886C22.8167 24.886 23.1667 24.816 23.484 24.676C23.8013 24.536 24.0767 24.34 24.31 24.088C24.5527 23.836 24.7393 23.5373 24.87 23.192C25.0007 22.8467 25.066 22.4733 25.066 22.072C25.066 21.6613 25.0007 21.2833 24.87 20.938C24.7393 20.5927 24.5527 20.294 24.31 20.042C24.0767 19.7807 23.8013 19.58 23.484 19.44C23.1667 19.3 22.8167 19.23 22.434 19.23C22.0513 19.23 21.6967 19.3 21.37 19.44C21.0527 19.58 20.7727 19.7807 20.53 20.042C20.2967 20.294 20.1147 20.5927 19.984 20.938C19.8533 21.2833 19.788 21.6613 19.788 22.072C19.788 22.6133 19.9 23.0987 20.124 23.528C20.3573 23.948 20.67 24.2793 21.062 24.522C21.4633 24.7647 21.9207 24.886 22.434 24.886ZM29.302 27V17.2H33.544C34.16 17.2 34.7107 17.34 35.196 17.62C35.6813 17.9 36.064 18.2827 36.344 18.768C36.624 19.244 36.764 19.79 36.764 20.406C36.764 21.0313 36.624 21.596 36.344 22.1C36.064 22.604 35.6813 23.0007 35.196 23.29C34.7107 23.5793 34.16 23.724 33.544 23.724H31.696V27H29.302ZM31.668 21.61H33.222C33.4273 21.61 33.6093 21.5633 33.768 21.47C33.936 21.3673 34.0713 21.2273 34.174 21.05C34.2767 20.8727 34.328 20.672 34.328 20.448C34.328 20.2147 34.2767 20.014 34.174 19.846C34.0713 19.678 33.936 19.5473 33.768 19.454C33.6093 19.3607 33.4273 19.314 33.222 19.314H31.668V21.61ZM40.3215 26.3V18.39L40.8535 19.566L38.7675 20.546L38.3475 18.432L41.1475 17.06H42.6735V26.3H40.3215ZM38.5435 27V24.886H44.5075V27H38.5435Z" fill="white"/>
<path d="M11.346 27H11.096V27.25H11.346V27ZM11.346 19.314H11.596V19.064H11.346V19.314ZM8.462 19.314H8.212V19.564H8.462V19.314ZM8.462 17.2V16.95H8.212V17.2H8.462ZM16.722 17.2H16.972V16.95H16.722V17.2ZM16.722 19.314V19.564H16.972V19.314H16.722ZM13.74 19.314V19.064H13.49V19.314H13.74ZM13.74 27V27.25H13.99V27H13.74ZM11.596 27V19.314H11.096V27H11.596ZM11.346 19.064H8.462V19.564H11.346V19.064ZM8.712 19.314V17.2H8.212V19.314H8.712ZM8.462 17.45H16.722V16.95H8.462V17.45ZM16.472 17.2V19.314H16.972V17.2H16.472ZM16.722 19.064H13.74V19.564H16.722V19.064ZM13.49 19.314V27H13.99V19.314H13.49ZM13.74 26.75H11.346V27.25H13.74V26.75ZM20.39 26.762L20.2953 26.9934L20.2966 26.9939L20.39 26.762ZM18.78 25.712L18.6014 25.887L18.6051 25.8906L18.78 25.712ZM17.73 24.102L17.4981 24.1954L17.4986 24.1967L17.73 24.102ZM17.73 20.042L17.9614 20.1367L17.9619 20.1354L17.73 20.042ZM18.78 18.418L18.6032 18.2412L18.6014 18.2431L18.78 18.418ZM20.39 17.354L20.2966 17.1221L20.2953 17.1226L20.39 17.354ZM24.45 17.354L24.3553 17.5854L24.3553 17.5854L24.45 17.354ZM26.046 18.418L25.8674 18.593L25.8692 18.5948L26.046 18.418ZM27.11 20.042L26.8781 20.1354L26.8786 20.1367L27.11 20.042ZM27.11 24.088L26.8786 23.9933L26.8786 23.9933L27.11 24.088ZM26.046 25.698L25.8692 25.5212L25.8674 25.5231L26.046 25.698ZM24.45 26.762L24.3553 26.5306L24.3553 26.5306L24.45 26.762ZM23.484 24.676L23.5849 24.9047L23.484 24.676ZM24.31 24.088L24.1299 23.9146L24.1266 23.9181L24.31 24.088ZM24.87 23.192L24.6362 23.1035L24.87 23.192ZM24.87 20.938L24.6362 21.0265L24.87 20.938ZM24.31 20.042L24.1234 20.2086L24.1299 20.2154L24.31 20.042ZM23.484 19.44L23.5849 19.2113L23.484 19.44ZM21.37 19.44L21.2715 19.2102L21.2691 19.2113L21.37 19.44ZM20.53 20.042L20.3468 19.8719L20.3466 19.8721L20.53 20.042ZM20.124 23.528L19.9023 23.6437L19.9055 23.6494L20.124 23.528ZM21.062 24.522L20.9304 24.7346L20.9326 24.7359L21.062 24.522ZM22.434 26.89C21.7257 26.89 21.0764 26.7691 20.4834 26.5301L20.2966 26.9939C20.9543 27.2589 21.6677 27.39 22.434 27.39V26.89ZM20.4847 26.5306C19.8974 26.2904 19.3883 25.9579 18.9549 25.5334L18.6051 25.8906C19.0864 26.3621 19.6506 26.7296 20.2953 26.9934L20.4847 26.5306ZM18.9586 25.5371C18.5341 25.1037 18.2016 24.5946 17.9614 24.0073L17.4986 24.1967C17.7624 24.8414 18.1299 25.4056 18.6014 25.8869L18.9586 25.5371ZM17.9619 24.0086C17.7229 23.4156 17.602 22.7663 17.602 22.058H17.102C17.102 22.8243 17.2331 23.5377 17.4981 24.1954L17.9619 24.0086ZM17.602 22.058C17.602 21.3594 17.7228 20.7199 17.9614 20.1367L17.4986 19.9473C17.2332 20.5961 17.102 21.3006 17.102 22.058H17.602ZM17.9619 20.1354C18.2023 19.5389 18.5347 19.0256 18.9586 18.5929L18.6014 18.2431C18.1293 18.725 17.7617 19.2945 17.4981 19.9486L17.9619 20.1354ZM18.9568 18.5948C19.3899 18.1616 19.8985 17.8252 20.4847 17.5854L20.2953 17.1226C19.6495 17.3868 19.0847 17.7597 18.6032 18.2412L18.9568 18.5948ZM20.4834 17.5859C21.0764 17.3469 21.7257 17.226 22.434 17.226V16.726C21.6677 16.726 20.9543 16.8571 20.2966 17.1221L20.4834 17.5859ZM22.434 17.226C23.1326 17.226 23.7721 17.3468 24.3553 17.5854L24.5447 17.1226C23.8959 16.8572 23.1914 16.726 22.434 16.726V17.226ZM24.3553 17.5854C24.9411 17.825 25.4442 18.1609 25.8674 18.5929L26.2246 18.2431C25.7518 17.7604 25.1909 17.387 24.5447 17.1226L24.3553 17.5854ZM25.8692 18.5948C26.3018 19.0273 26.6382 19.54 26.8781 20.1354L27.3419 19.9486C27.0779 19.2934 26.7049 18.7234 26.2228 18.2412L25.8692 18.5948ZM26.8786 20.1367C27.1171 20.7195 27.238 21.3636 27.238 22.072H27.738C27.738 21.3057 27.6069 20.5965 27.3414 19.9473L26.8786 20.1367ZM27.238 22.072C27.238 22.7706 27.1172 23.4101 26.8786 23.9933L27.3414 24.1827C27.6068 23.5339 27.738 22.8294 27.738 22.072H27.238ZM26.8786 23.9933C26.6388 24.5795 26.3024 25.0881 25.8692 25.5212L26.2228 25.8748C26.7043 25.3933 27.0772 24.8285 27.3414 24.1827L26.8786 23.9933ZM25.8674 25.5231C25.4442 25.9551 24.9411 26.291 24.3553 26.5306L24.5447 26.9934C25.1909 26.729 25.7518 26.3556 26.2246 25.8729L25.8674 25.5231ZM24.3553 26.5306C23.7721 26.7692 23.1326 26.89 22.434 26.89V27.39C23.1914 27.39 23.8959 27.2588 24.5447 26.9934L24.3553 26.5306ZM22.434 25.136C22.8478 25.136 23.2326 25.0601 23.5849 24.9047L23.3831 24.4473C23.1007 24.5719 22.7855 24.636 22.434 24.636V25.136ZM23.5849 24.9047C23.9332 24.7511 24.2367 24.5352 24.4934 24.2579L24.1266 23.9181C23.9167 24.1448 23.6695 24.3209 23.3831 24.4473L23.5849 24.9047ZM24.4901 24.2614C24.7575 23.9837 24.9619 23.6557 25.1038 23.2805L24.6362 23.1035C24.5168 23.419 24.3478 23.6883 24.1299 23.9146L24.4901 24.2614ZM25.1038 23.2805C25.2461 22.9045 25.316 22.5009 25.316 22.072H24.816C24.816 22.4457 24.7553 22.7888 24.6362 23.1035L25.1038 23.2805ZM25.316 22.072C25.316 21.6345 25.2463 21.2261 25.1038 20.8495L24.6362 21.0265C24.755 21.3405 24.816 21.6882 24.816 22.072H25.316ZM25.1038 20.8495C24.9619 20.4743 24.7575 20.1463 24.4901 19.8686L24.1299 20.2154C24.3478 20.4417 24.5168 20.711 24.6362 21.0265L25.1038 20.8495ZM24.4965 19.8755C24.2396 19.5878 23.9352 19.3658 23.5849 19.2113L23.3831 19.6687C23.6674 19.7942 23.9137 19.9735 24.1235 20.2085L24.4965 19.8755ZM23.5849 19.2113C23.2326 19.0559 22.8478 18.98 22.434 18.98V19.48C22.7855 19.48 23.1007 19.5441 23.3831 19.6687L23.5849 19.2113ZM22.434 18.98C22.0201 18.98 21.6316 19.0559 21.2715 19.2102L21.4685 19.6698C21.7617 19.5441 22.0826 19.48 22.434 19.48V18.98ZM21.2691 19.2113C20.9197 19.3654 20.612 19.5863 20.3468 19.8719L20.7132 20.2121C20.9334 19.975 21.1856 19.7946 21.4709 19.6687L21.2691 19.2113ZM20.3466 19.8721C20.0897 20.1495 19.8914 20.4764 19.7502 20.8495L20.2178 21.0265C20.338 20.709 20.5036 20.4385 20.7134 20.2119L20.3466 19.8721ZM19.7502 20.8495C19.6077 21.2261 19.538 21.6345 19.538 22.072H20.038C20.038 21.6882 20.099 21.3405 20.2178 21.0265L19.7502 20.8495ZM19.538 22.072C19.538 22.6488 19.6576 23.1746 19.9024 23.6436L20.3456 23.4124C20.1424 23.0228 20.038 22.5779 20.038 22.072H19.538ZM19.9055 23.6494C20.1586 24.1051 20.5006 24.4685 20.9304 24.7346L21.1936 24.3094C20.8394 24.0902 20.5561 23.7909 20.3425 23.4066L19.9055 23.6494ZM20.9326 24.7359C21.3766 25.0044 21.8795 25.136 22.434 25.136V24.636C21.9618 24.636 21.55 24.5249 21.1914 24.3081L20.9326 24.7359ZM29.302 27H29.052V27.25H29.302V27ZM29.302 17.2V16.95H29.052V17.2H29.302ZM35.196 17.62L35.0711 17.8365L35.0711 17.8365L35.196 17.62ZM36.344 18.768L36.1274 18.8929L36.1285 18.8948L36.344 18.768ZM36.344 22.1L36.5625 22.2214L36.5625 22.2214L36.344 22.1ZM35.196 23.29L35.068 23.0753L35.068 23.0753L35.196 23.29ZM31.696 23.724V23.474H31.446V23.724H31.696ZM31.696 27V27.25H31.946V27H31.696ZM31.668 21.61H31.418V21.86H31.668V21.61ZM33.768 21.47L33.8948 21.6855L33.8983 21.6833L33.768 21.47ZM34.174 21.05L34.3903 21.1753L34.3903 21.1753L34.174 21.05ZM34.174 19.846L34.3873 19.7156L34.3873 19.7156L34.174 19.846ZM33.768 19.454L33.6412 19.6695L33.6466 19.6725L33.768 19.454ZM31.668 19.314V19.064H31.418V19.314H31.668ZM29.552 27V17.2H29.052V27H29.552ZM29.302 17.45H33.544V16.95H29.302V17.45ZM33.544 17.45C34.1206 17.45 34.6274 17.5806 35.0711 17.8365L35.3209 17.4035C34.7939 17.0994 34.1994 16.95 33.544 16.95V17.45ZM35.0711 17.8365C35.5183 18.0946 35.8694 18.4457 36.1274 18.8929L36.5605 18.6431C36.2586 18.1197 35.8443 17.7054 35.3209 17.4035L35.0711 17.8365ZM36.1285 18.8948C36.3834 19.328 36.514 19.8293 36.514 20.406H37.014C37.014 19.7507 36.8646 19.16 36.5595 18.6412L36.1285 18.8948ZM36.514 20.406C36.514 20.9925 36.3831 21.5148 36.1254 21.9786L36.5625 22.2214C36.8649 21.6772 37.014 21.0701 37.014 20.406H36.514ZM36.1254 21.9786C35.8664 22.4449 35.5146 22.809 35.068 23.0753L35.324 23.5047C35.848 23.1923 36.2616 22.7631 36.5625 22.2214L36.1254 21.9786ZM35.068 23.0753C34.6248 23.3395 34.1191 23.474 33.544 23.474V23.974C34.2009 23.974 34.7965 23.8192 35.324 23.5047L35.068 23.0753ZM33.544 23.474H31.696V23.974H33.544V23.474ZM31.446 23.724V27H31.946V23.724H31.446ZM31.696 26.75H29.302V27.25H31.696V26.75ZM31.668 21.86H33.222V21.36H31.668V21.86ZM33.222 21.86C33.4666 21.86 33.6934 21.8039 33.8947 21.6855L33.6412 21.2545C33.5253 21.3227 33.388 21.36 33.222 21.36V21.86ZM33.8983 21.6833C34.1034 21.558 34.2677 21.3871 34.3903 21.1753L33.9576 20.9247C33.875 21.0675 33.7686 21.1766 33.6376 21.2567L33.8983 21.6833ZM34.3903 21.1753C34.5171 20.9564 34.578 20.7118 34.578 20.448H34.078C34.078 20.6322 34.0362 20.789 33.9576 20.9247L34.3903 21.1753ZM34.578 20.448C34.578 20.1773 34.5181 19.9296 34.3873 19.7156L33.9607 19.9764C34.0352 20.0984 34.078 20.2521 34.078 20.448H34.578ZM34.3873 19.7156C34.2627 19.5117 34.0961 19.3503 33.8894 19.2355L33.6466 19.6725C33.7759 19.7444 33.8799 19.8443 33.9607 19.9764L34.3873 19.7156ZM33.8947 19.2385C33.6934 19.1201 33.4666 19.064 33.222 19.064V19.564C33.388 19.564 33.5253 19.6013 33.6412 19.6695L33.8947 19.2385ZM33.222 19.064H31.668V19.564H33.222V19.064ZM31.418 19.314V21.61H31.918V19.314H31.418ZM40.3215 26.3H40.0715V26.55H40.3215V26.3ZM40.3215 18.39L40.5493 18.287L40.0715 18.39H40.3215ZM40.8535 19.566L40.9598 19.7923L41.1829 19.6875L41.0813 19.463L40.8535 19.566ZM38.7675 20.546L38.5223 20.5947L38.5846 20.9082L38.8738 20.7723L38.7675 20.546ZM38.3475 18.432L38.2375 18.2075L38.0648 18.2921L38.1023 18.4807L38.3475 18.432ZM41.1475 17.06V16.81H41.0896L41.0375 16.8355L41.1475 17.06ZM42.6735 17.06H42.9235V16.81H42.6735V17.06ZM42.6735 26.3V26.55H42.9235V26.3H42.6735ZM38.5435 27H38.2935V27.25H38.5435V27ZM38.5435 24.886V24.636H38.2935V24.886H38.5435ZM44.5075 24.886H44.7575V24.636H44.5075V24.886ZM44.5075 27V27.25H44.7575V27H44.5075ZM40.5715 26.3V18.39H40.0715V26.3H40.5715ZM40.0937 18.493L40.6257 19.669L41.0813 19.463L40.5493 18.287L40.0937 18.493ZM40.7472 19.3397L38.6612 20.3197L38.8738 20.7723L40.9598 19.7923L40.7472 19.3397ZM39.0127 20.4973L38.5927 18.3833L38.1023 18.4807L38.5223 20.5947L39.0127 20.4973ZM38.4575 18.6565L41.2575 17.2845L41.0375 16.8355L38.2375 18.2075L38.4575 18.6565ZM41.1475 17.31H42.6735V16.81H41.1475V17.31ZM42.4235 17.06V26.3H42.9235V17.06H42.4235ZM42.6735 26.05H40.3215V26.55H42.6735V26.05ZM38.7935 27V24.886H38.2935V27H38.7935ZM38.5435 25.136H44.5075V24.636H38.5435V25.136ZM44.2575 24.886V27H44.7575V24.886H44.2575ZM44.5075 26.75H38.5435V27.25H44.5075V26.75Z" fill="white"/>
</g>
<defs>
<clipPath id="clip0_194_559">
<rect width="52.54" height="44.22" fill="white"/>
</clipPath>
</defs>
</svg>
