<svg width="53" height="45" viewBox="0 0 53 45" fill="none" xmlns="http://www.w3.org/2000/svg">
<g clip-path="url(#clip0_195_563)">
<path d="M26.09 44.22C40.4991 44.22 52.18 34.321 52.18 22.11C52.18 9.89898 40.4991 0 26.09 0C11.6809 0 0 9.89898 0 22.11C0 34.321 11.6809 44.22 26.09 44.22Z" fill="#FFC107"/>
<path d="M41.1701 27.8501L52.5401 43.3001L28.8101 38.1101L41.1701 27.8501Z" fill="#FFC107"/>
<path d="M10.346 27V19.314H7.462V17.2H15.722V19.314H12.74V27H10.346ZM21.434 27.14C20.6967 27.14 20.0153 27.014 19.39 26.762C18.774 26.51 18.2373 26.16 17.78 25.712C17.332 25.2547 16.982 24.718 16.73 24.102C16.478 23.4767 16.352 22.7953 16.352 22.058C16.352 21.33 16.478 20.658 16.73 20.042C16.982 19.4167 17.332 18.8753 17.78 18.418C18.2373 17.9607 18.774 17.606 19.39 17.354C20.0153 17.102 20.6967 16.976 21.434 16.976C22.162 16.976 22.834 17.102 23.45 17.354C24.066 17.606 24.598 17.9607 25.046 18.418C25.5033 18.8753 25.858 19.4167 26.11 20.042C26.362 20.658 26.488 21.3347 26.488 22.072C26.488 22.8 26.362 23.472 26.11 24.088C25.858 24.704 25.5033 25.2407 25.046 25.698C24.598 26.1553 24.066 26.51 23.45 26.762C22.834 27.014 22.162 27.14 21.434 27.14ZM21.434 24.886C21.8167 24.886 22.1667 24.816 22.484 24.676C22.8013 24.536 23.0767 24.34 23.31 24.088C23.5527 23.836 23.7393 23.5373 23.87 23.192C24.0007 22.8467 24.066 22.4733 24.066 22.072C24.066 21.6613 24.0007 21.2833 23.87 20.938C23.7393 20.5927 23.5527 20.294 23.31 20.042C23.0767 19.7807 22.8013 19.58 22.484 19.44C22.1667 19.3 21.8167 19.23 21.434 19.23C21.0513 19.23 20.6967 19.3 20.37 19.44C20.0527 19.58 19.7727 19.7807 19.53 20.042C19.2967 20.294 19.1147 20.5927 18.984 20.938C18.8533 21.2833 18.788 21.6613 18.788 22.072C18.788 22.6133 18.9 23.0987 19.124 23.528C19.3573 23.948 19.67 24.2793 20.062 24.522C20.4633 24.7647 20.9207 24.886 21.434 24.886ZM28.302 27V17.2H32.544C33.16 17.2 33.7107 17.34 34.196 17.62C34.6813 17.9 35.064 18.2827 35.344 18.768C35.624 19.244 35.764 19.79 35.764 20.406C35.764 21.0313 35.624 21.596 35.344 22.1C35.064 22.604 34.6813 23.0007 34.196 23.29C33.7107 23.5793 33.16 23.724 32.544 23.724H30.696V27H28.302ZM30.668 21.61H32.222C32.4273 21.61 32.6093 21.5633 32.768 21.47C32.936 21.3673 33.0713 21.2273 33.174 21.05C33.2767 20.8727 33.328 20.672 33.328 20.448C33.328 20.2147 33.2767 20.014 33.174 19.846C33.0713 19.678 32.936 19.5473 32.768 19.454C32.6093 19.3607 32.4273 19.314 32.222 19.314H30.668V21.61ZM37.2075 27L36.7315 25.824L39.5455 22.716C39.7135 22.5387 39.8908 22.338 40.0775 22.114C40.2642 21.89 40.4415 21.6613 40.6095 21.428C40.7868 21.1853 40.9268 20.952 41.0295 20.728C41.1415 20.504 41.1975 20.3033 41.1975 20.126C41.1975 19.9393 41.1555 19.776 41.0715 19.636C40.9968 19.496 40.8802 19.3887 40.7215 19.314C40.5722 19.23 40.3762 19.188 40.1335 19.188C39.9282 19.188 39.7275 19.244 39.5315 19.356C39.3355 19.468 39.1488 19.636 38.9715 19.86C38.8035 20.0747 38.6448 20.35 38.4955 20.686L36.7315 19.706C36.9275 19.1647 37.2028 18.6887 37.5575 18.278C37.9215 17.8673 38.3462 17.5453 38.8315 17.312C39.3168 17.0787 39.8348 16.9667 40.3855 16.976C40.9642 16.976 41.4822 17.0973 41.9395 17.34C42.4062 17.5827 42.7748 17.9187 43.0455 18.348C43.3255 18.768 43.4655 19.2627 43.4655 19.832C43.4655 20.084 43.4282 20.3453 43.3535 20.616C43.2882 20.8867 43.1762 21.176 43.0175 21.484C42.8682 21.7827 42.6675 22.1047 42.4155 22.45C42.1635 22.7953 41.8555 23.1687 41.4915 23.57L39.3215 25.936L39.0275 24.886H43.8995V27H37.2075Z" fill="white"/>
<path d="M10.346 27H10.096V27.25H10.346V27ZM10.346 19.314H10.596V19.064H10.346V19.314ZM7.462 19.314H7.212V19.564H7.462V19.314ZM7.462 17.2V16.95H7.212V17.2H7.462ZM15.722 17.2H15.972V16.95H15.722V17.2ZM15.722 19.314V19.564H15.972V19.314H15.722ZM12.74 19.314V19.064H12.49V19.314H12.74ZM12.74 27V27.25H12.99V27H12.74ZM10.596 27V19.314H10.096V27H10.596ZM10.346 19.064H7.462V19.564H10.346V19.064ZM7.712 19.314V17.2H7.212V19.314H7.712ZM7.462 17.45H15.722V16.95H7.462V17.45ZM15.472 17.2V19.314H15.972V17.2H15.472ZM15.722 19.064H12.74V19.564H15.722V19.064ZM12.49 19.314V27H12.99V19.314H12.49ZM12.74 26.75H10.346V27.25H12.74V26.75ZM19.39 26.762L19.2953 26.9934L19.2966 26.9939L19.39 26.762ZM17.78 25.712L17.6014 25.887L17.6051 25.8906L17.78 25.712ZM16.73 24.102L16.4981 24.1954L16.4986 24.1967L16.73 24.102ZM16.73 20.042L16.9614 20.1367L16.9619 20.1354L16.73 20.042ZM17.78 18.418L17.6032 18.2412L17.6014 18.2431L17.78 18.418ZM19.39 17.354L19.2966 17.1221L19.2953 17.1226L19.39 17.354ZM23.45 17.354L23.3553 17.5854L23.3553 17.5854L23.45 17.354ZM25.046 18.418L24.8674 18.593L24.8692 18.5948L25.046 18.418ZM26.11 20.042L25.8781 20.1354L25.8786 20.1367L26.11 20.042ZM26.11 24.088L25.8786 23.9933L25.8786 23.9933L26.11 24.088ZM25.046 25.698L24.8692 25.5212L24.8674 25.5231L25.046 25.698ZM23.45 26.762L23.3553 26.5306L23.3553 26.5306L23.45 26.762ZM22.484 24.676L22.5849 24.9047L22.484 24.676ZM23.31 24.088L23.1299 23.9146L23.1266 23.9181L23.31 24.088ZM23.87 23.192L23.6362 23.1035L23.87 23.192ZM23.87 20.938L23.6362 21.0265L23.87 20.938ZM23.31 20.042L23.1234 20.2086L23.1299 20.2154L23.31 20.042ZM22.484 19.44L22.5849 19.2113L22.484 19.44ZM20.37 19.44L20.2715 19.2102L20.2691 19.2113L20.37 19.44ZM19.53 20.042L19.3468 19.8719L19.3466 19.8721L19.53 20.042ZM19.124 23.528L18.9023 23.6437L18.9055 23.6494L19.124 23.528ZM20.062 24.522L19.9304 24.7346L19.9326 24.7359L20.062 24.522ZM21.434 26.89C20.7257 26.89 20.0764 26.7691 19.4834 26.5301L19.2966 26.9939C19.9543 27.2589 20.6677 27.39 21.434 27.39V26.89ZM19.4847 26.5306C18.8974 26.2904 18.3883 25.9579 17.9549 25.5334L17.6051 25.8906C18.0864 26.3621 18.6506 26.7296 19.2953 26.9934L19.4847 26.5306ZM17.9586 25.5371C17.5341 25.1037 17.2016 24.5946 16.9614 24.0073L16.4986 24.1967C16.7624 24.8414 17.1299 25.4056 17.6014 25.8869L17.9586 25.5371ZM16.9619 24.0086C16.7229 23.4156 16.602 22.7663 16.602 22.058H16.102C16.102 22.8243 16.2331 23.5377 16.4981 24.1954L16.9619 24.0086ZM16.602 22.058C16.602 21.3594 16.7228 20.7199 16.9614 20.1367L16.4986 19.9473C16.2332 20.5961 16.102 21.3006 16.102 22.058H16.602ZM16.9619 20.1354C17.2023 19.5389 17.5347 19.0256 17.9586 18.5929L17.6014 18.2431C17.1293 18.725 16.7617 19.2945 16.4981 19.9486L16.9619 20.1354ZM17.9568 18.5948C18.3899 18.1616 18.8985 17.8252 19.4847 17.5854L19.2953 17.1226C18.6495 17.3868 18.0847 17.7597 17.6032 18.2412L17.9568 18.5948ZM19.4834 17.5859C20.0764 17.3469 20.7257 17.226 21.434 17.226V16.726C20.6677 16.726 19.9543 16.8571 19.2966 17.1221L19.4834 17.5859ZM21.434 17.226C22.1326 17.226 22.7721 17.3468 23.3553 17.5854L23.5447 17.1226C22.8959 16.8572 22.1914 16.726 21.434 16.726V17.226ZM23.3553 17.5854C23.9411 17.825 24.4442 18.1609 24.8674 18.5929L25.2246 18.2431C24.7518 17.7604 24.1909 17.387 23.5447 17.1226L23.3553 17.5854ZM24.8692 18.5948C25.3018 19.0273 25.6382 19.54 25.8781 20.1354L26.3419 19.9486C26.0779 19.2934 25.7049 18.7234 25.2228 18.2412L24.8692 18.5948ZM25.8786 20.1367C26.1171 20.7195 26.238 21.3636 26.238 22.072H26.738C26.738 21.3057 26.6069 20.5965 26.3414 19.9473L25.8786 20.1367ZM26.238 22.072C26.238 22.7706 26.1172 23.4101 25.8786 23.9933L26.3414 24.1827C26.6068 23.5339 26.738 22.8294 26.738 22.072H26.238ZM25.8786 23.9933C25.6388 24.5795 25.3024 25.0881 24.8692 25.5212L25.2228 25.8748C25.7043 25.3933 26.0772 24.8285 26.3414 24.1827L25.8786 23.9933ZM24.8674 25.5231C24.4442 25.9551 23.9411 26.291 23.3553 26.5306L23.5447 26.9934C24.1909 26.729 24.7518 26.3556 25.2246 25.8729L24.8674 25.5231ZM23.3553 26.5306C22.7721 26.7692 22.1326 26.89 21.434 26.89V27.39C22.1914 27.39 22.8959 27.2588 23.5447 26.9934L23.3553 26.5306ZM21.434 25.136C21.8478 25.136 22.2326 25.0601 22.5849 24.9047L22.3831 24.4473C22.1007 24.5719 21.7855 24.636 21.434 24.636V25.136ZM22.5849 24.9047C22.9332 24.7511 23.2367 24.5352 23.4934 24.2579L23.1266 23.9181C22.9167 24.1448 22.6695 24.3209 22.3831 24.4473L22.5849 24.9047ZM23.4901 24.2614C23.7575 23.9837 23.9619 23.6557 24.1038 23.2805L23.6362 23.1035C23.5168 23.419 23.3478 23.6883 23.1299 23.9146L23.4901 24.2614ZM24.1038 23.2805C24.2461 22.9045 24.316 22.5009 24.316 22.072H23.816C23.816 22.4457 23.7553 22.7888 23.6362 23.1035L24.1038 23.2805ZM24.316 22.072C24.316 21.6345 24.2463 21.2261 24.1038 20.8495L23.6362 21.0265C23.755 21.3405 23.816 21.6882 23.816 22.072H24.316ZM24.1038 20.8495C23.9619 20.4743 23.7575 20.1463 23.4901 19.8686L23.1299 20.2154C23.3478 20.4417 23.5168 20.711 23.6362 21.0265L24.1038 20.8495ZM23.4965 19.8755C23.2396 19.5878 22.9352 19.3658 22.5849 19.2113L22.3831 19.6687C22.6674 19.7942 22.9137 19.9735 23.1235 20.2085L23.4965 19.8755ZM22.5849 19.2113C22.2326 19.0559 21.8478 18.98 21.434 18.98V19.48C21.7855 19.48 22.1007 19.5441 22.3831 19.6687L22.5849 19.2113ZM21.434 18.98C21.0201 18.98 20.6316 19.0559 20.2715 19.2102L20.4685 19.6698C20.7617 19.5441 21.0826 19.48 21.434 19.48V18.98ZM20.2691 19.2113C19.9197 19.3654 19.612 19.5863 19.3468 19.8719L19.7132 20.2121C19.9334 19.975 20.1856 19.7946 20.4709 19.6687L20.2691 19.2113ZM19.3466 19.8721C19.0897 20.1495 18.8914 20.4764 18.7502 20.8495L19.2178 21.0265C19.338 20.709 19.5036 20.4385 19.7134 20.2119L19.3466 19.8721ZM18.7502 20.8495C18.6077 21.2261 18.538 21.6345 18.538 22.072H19.038C19.038 21.6882 19.099 21.3405 19.2178 21.0265L18.7502 20.8495ZM18.538 22.072C18.538 22.6488 18.6576 23.1746 18.9024 23.6436L19.3456 23.4124C19.1424 23.0228 19.038 22.5779 19.038 22.072H18.538ZM18.9055 23.6494C19.1586 24.1051 19.5006 24.4685 19.9304 24.7346L20.1936 24.3094C19.8394 24.0902 19.5561 23.7909 19.3425 23.4066L18.9055 23.6494ZM19.9326 24.7359C20.3766 25.0044 20.8795 25.136 21.434 25.136V24.636C20.9618 24.636 20.55 24.5249 20.1914 24.3081L19.9326 24.7359ZM28.302 27H28.052V27.25H28.302V27ZM28.302 17.2V16.95H28.052V17.2H28.302ZM34.196 17.62L34.0711 17.8365L34.0711 17.8365L34.196 17.62ZM35.344 18.768L35.1274 18.8929L35.1285 18.8948L35.344 18.768ZM35.344 22.1L35.5625 22.2214L35.5625 22.2214L35.344 22.1ZM34.196 23.29L34.068 23.0753L34.068 23.0753L34.196 23.29ZM30.696 23.724V23.474H30.446V23.724H30.696ZM30.696 27V27.25H30.946V27H30.696ZM30.668 21.61H30.418V21.86H30.668V21.61ZM32.768 21.47L32.8948 21.6855L32.8983 21.6833L32.768 21.47ZM33.174 21.05L33.3903 21.1753L33.3903 21.1753L33.174 21.05ZM33.174 19.846L33.3873 19.7156L33.3873 19.7156L33.174 19.846ZM32.768 19.454L32.6412 19.6695L32.6466 19.6725L32.768 19.454ZM30.668 19.314V19.064H30.418V19.314H30.668ZM28.552 27V17.2H28.052V27H28.552ZM28.302 17.45H32.544V16.95H28.302V17.45ZM32.544 17.45C33.1206 17.45 33.6274 17.5806 34.0711 17.8365L34.3209 17.4035C33.7939 17.0994 33.1994 16.95 32.544 16.95V17.45ZM34.0711 17.8365C34.5183 18.0946 34.8694 18.4457 35.1274 18.8929L35.5605 18.6431C35.2586 18.1197 34.8443 17.7054 34.3209 17.4035L34.0711 17.8365ZM35.1285 18.8948C35.3834 19.328 35.514 19.8293 35.514 20.406H36.014C36.014 19.7507 35.8646 19.16 35.5595 18.6412L35.1285 18.8948ZM35.514 20.406C35.514 20.9925 35.3831 21.5148 35.1254 21.9786L35.5625 22.2214C35.8649 21.6772 36.014 21.0701 36.014 20.406H35.514ZM35.1254 21.9786C34.8664 22.4449 34.5146 22.809 34.068 23.0753L34.324 23.5047C34.848 23.1923 35.2616 22.7631 35.5625 22.2214L35.1254 21.9786ZM34.068 23.0753C33.6248 23.3395 33.1191 23.474 32.544 23.474V23.974C33.2009 23.974 33.7965 23.8192 34.324 23.5047L34.068 23.0753ZM32.544 23.474H30.696V23.974H32.544V23.474ZM30.446 23.724V27H30.946V23.724H30.446ZM30.696 26.75H28.302V27.25H30.696V26.75ZM30.668 21.86H32.222V21.36H30.668V21.86ZM32.222 21.86C32.4666 21.86 32.6934 21.8039 32.8947 21.6855L32.6412 21.2545C32.5253 21.3227 32.388 21.36 32.222 21.36V21.86ZM32.8983 21.6833C33.1034 21.558 33.2677 21.3871 33.3903 21.1753L32.9576 20.9247C32.875 21.0675 32.7686 21.1766 32.6376 21.2567L32.8983 21.6833ZM33.3903 21.1753C33.5171 20.9564 33.578 20.7118 33.578 20.448H33.078C33.078 20.6322 33.0362 20.789 32.9576 20.9247L33.3903 21.1753ZM33.578 20.448C33.578 20.1773 33.5181 19.9296 33.3873 19.7156L32.9607 19.9764C33.0352 20.0984 33.078 20.2521 33.078 20.448H33.578ZM33.3873 19.7156C33.2627 19.5117 33.0961 19.3503 32.8894 19.2355L32.6466 19.6725C32.7759 19.7444 32.8799 19.8443 32.9607 19.9764L33.3873 19.7156ZM32.8947 19.2385C32.6934 19.1201 32.4666 19.064 32.222 19.064V19.564C32.388 19.564 32.5253 19.6013 32.6412 19.6695L32.8947 19.2385ZM32.222 19.064H30.668V19.564H32.222V19.064ZM30.418 19.314V21.61H30.918V19.314H30.418ZM37.2075 27L36.9758 27.0938L37.039 27.25H37.2075V27ZM36.7315 25.824L36.5462 25.6562L36.4409 25.7724L36.4998 25.9178L36.7315 25.824ZM39.5455 22.716L39.364 22.544L39.3602 22.5482L39.5455 22.716ZM40.0775 22.114L40.2696 22.274L40.2696 22.274L40.0775 22.114ZM40.6095 21.428L40.4077 21.2805L40.4066 21.2819L40.6095 21.428ZM41.0295 20.728L40.8058 20.6161L40.8022 20.6238L41.0295 20.728ZM41.0715 19.636L40.8506 19.7538L40.8571 19.7646L41.0715 19.636ZM40.7215 19.314L40.599 19.5319L40.6069 19.5363L40.6151 19.5402L40.7215 19.314ZM39.5315 19.356L39.6556 19.5731L39.6556 19.5731L39.5315 19.356ZM38.9715 19.86L38.7755 19.7048L38.7746 19.7059L38.9715 19.86ZM38.4955 20.686L38.3741 20.9045L38.613 21.0372L38.724 20.7875L38.4955 20.686ZM36.7315 19.706L36.4964 19.6209L36.424 19.8211L36.6101 19.9245L36.7315 19.706ZM37.5575 18.278L37.3704 18.1122L37.3683 18.1146L37.5575 18.278ZM38.8315 17.312L38.7232 17.0867L38.7232 17.0867L38.8315 17.312ZM40.3855 16.976L40.3813 17.226H40.3855V16.976ZM41.9395 17.34L41.8223 17.5608L41.8242 17.5618L41.9395 17.34ZM43.0455 18.348L42.834 18.4814L42.8375 18.4867L43.0455 18.348ZM43.3535 20.616L43.1124 20.5495L43.1105 20.5573L43.3535 20.616ZM43.0175 21.484L42.7953 21.3695L42.7939 21.3722L43.0175 21.484ZM42.4155 22.45L42.6175 22.5974L42.6175 22.5974L42.4155 22.45ZM41.4915 23.57L41.6758 23.739L41.6767 23.738L41.4915 23.57ZM39.3215 25.936L39.0808 26.0034L39.202 26.4362L39.5058 26.105L39.3215 25.936ZM39.0275 24.886V24.636H38.6979L38.7868 24.9534L39.0275 24.886ZM43.8995 24.886H44.1495V24.636H43.8995V24.886ZM43.8995 27V27.25H44.1495V27H43.8995ZM37.4393 26.9062L36.9633 25.7302L36.4998 25.9178L36.9758 27.0938L37.4393 26.9062ZM36.9168 25.9918L39.7308 22.8838L39.3602 22.5482L36.5462 25.6562L36.9168 25.9918ZM39.727 22.8879C39.8993 22.7061 40.0801 22.5014 40.2696 22.274L39.8855 21.954C39.7016 22.1746 39.5278 22.3712 39.364 22.5441L39.727 22.8879ZM40.2696 22.274C40.46 22.0456 40.6409 21.8123 40.8124 21.5741L40.4066 21.2819C40.2421 21.5104 40.0684 21.7344 39.8855 21.954L40.2696 22.274ZM40.8114 21.5755C40.9965 21.3221 41.1458 21.0743 41.2568 20.8322L40.8022 20.6238C40.7079 20.8297 40.5772 21.0485 40.4077 21.2805L40.8114 21.5755ZM41.2531 20.8398C41.3758 20.5945 41.4475 20.3548 41.4475 20.126H40.9475C40.9475 20.2519 40.9073 20.4135 40.8059 20.6162L41.2531 20.8398ZM41.4475 20.126C41.4475 19.9006 41.3964 19.6915 41.2859 19.5074L40.8571 19.7646C40.9146 19.8605 40.9475 19.978 40.9475 20.126H41.4475ZM41.2921 19.5184C41.1894 19.3258 41.03 19.1829 40.828 19.0878L40.6151 19.5402C40.7304 19.5945 40.8043 19.6662 40.8509 19.7536L41.2921 19.5184ZM40.8441 19.0961C40.645 18.9841 40.4022 18.938 40.1335 18.938V19.438C40.3501 19.438 40.4994 19.4759 40.599 19.5319L40.8441 19.0961ZM40.1335 18.938C39.8804 18.938 39.6374 19.0076 39.4075 19.1389L39.6556 19.5731C39.8176 19.4804 39.9759 19.438 40.1335 19.438V18.938ZM39.4075 19.1389C39.1775 19.2704 38.9676 19.4622 38.7755 19.7048L39.1675 20.0152C39.3301 19.8098 39.4936 19.6656 39.6556 19.5731L39.4075 19.1389ZM38.7746 19.7059C38.5905 19.9412 38.422 20.2358 38.2671 20.5845L38.724 20.7875C38.8677 20.4642 39.0165 20.2081 39.1684 20.0141L38.7746 19.7059ZM38.6169 20.4675L36.8529 19.4875L36.6101 19.9245L38.3741 20.9045L38.6169 20.4675ZM36.9666 19.7911C37.1528 19.2767 37.4132 18.8276 37.7467 18.4414L37.3683 18.1146C36.9925 18.5497 36.7022 19.0526 36.4964 19.6209L36.9666 19.7911ZM37.7446 18.4438C38.087 18.0575 38.485 17.756 38.9398 17.5373L38.7232 17.0867C38.2073 17.3347 37.756 17.6771 37.3704 18.1122L37.7446 18.4438ZM38.9398 17.5373C39.3893 17.3212 39.8686 17.2173 40.3813 17.226L40.3898 16.726C39.8011 16.7161 39.2444 16.8361 38.7232 17.0867L38.9398 17.5373ZM40.3855 17.226C40.9282 17.226 41.4052 17.3395 41.8223 17.5608L42.0567 17.1192C41.5592 16.8552 41.0002 16.726 40.3855 16.726V17.226ZM41.8242 17.5618C42.253 17.7848 42.5879 18.0909 42.834 18.4813L43.257 18.2147C42.9618 17.7464 42.5594 17.3805 42.0549 17.1182L41.8242 17.5618ZM42.8375 18.4867C43.0867 18.8605 43.2155 19.3055 43.2155 19.832H43.7155C43.7155 19.2198 43.5643 18.6755 43.2535 18.2093L42.8375 18.4867ZM43.2155 19.832C43.2155 20.0591 43.1819 20.2981 43.1125 20.5495L43.5945 20.6825C43.6745 20.3926 43.7155 20.1089 43.7155 19.832H43.2155ZM43.1105 20.5573C43.0508 20.8046 42.9469 21.0751 42.7953 21.3695L43.2398 21.5985C43.4054 21.2769 43.5256 20.9687 43.5965 20.6747L43.1105 20.5573ZM42.7939 21.3722C42.6522 21.6555 42.4595 21.9656 42.2136 22.3026L42.6175 22.5974C42.8755 22.2437 43.0841 21.9098 43.2411 21.5958L42.7939 21.3722ZM42.2136 22.3026C41.968 22.6392 41.6659 23.0056 41.3063 23.402L41.6767 23.738C42.0452 23.3317 42.3591 22.9514 42.6175 22.5974L42.2136 22.3026ZM41.3073 23.401L39.1373 25.767L39.5058 26.105L41.6758 23.739L41.3073 23.401ZM39.5623 25.8686L39.2683 24.8186L38.7868 24.9534L39.0808 26.0034L39.5623 25.8686ZM39.0275 25.136H43.8995V24.636H39.0275V25.136ZM43.6495 24.886V27H44.1495V24.886H43.6495ZM43.8995 26.75H37.2075V27.25H43.8995V26.75Z" fill="white"/>
</g>
<defs>
<clipPath id="clip0_195_563">
<rect width="52.54" height="44.22" fill="white"/>
</clipPath>
</defs>
</svg>
