<svg width="53" height="45" viewBox="0 0 53 45" fill="none" xmlns="http://www.w3.org/2000/svg">
<g clip-path="url(#clip0_195_575)">
<path d="M26.09 44.22C40.4991 44.22 52.18 34.321 52.18 22.11C52.18 9.89898 40.4991 0 26.09 0C11.6809 0 0 9.89898 0 22.11C0 34.321 11.6809 44.22 26.09 44.22Z" fill="#FFC107"/>
<path d="M41.1701 27.8501L52.5401 43.3001L28.8101 38.1101L41.1701 27.8501Z" fill="#FFC107"/>
<path d="M15.938 17.172V19.09H13.334V27H10.94V19.09H8.336V17.172H15.938ZM21.7875 27.098C20.8635 27.098 20.0142 26.8833 19.2395 26.454C18.4742 26.0247 17.8628 25.4273 17.4055 24.662C16.9575 23.8873 16.7335 23.0193 16.7335 22.058C16.7335 21.0967 16.9575 20.2333 17.4055 19.468C17.8628 18.7027 18.4742 18.1053 19.2395 17.676C20.0142 17.2467 20.8635 17.032 21.7875 17.032C22.7115 17.032 23.5562 17.2467 24.3215 17.676C25.0962 18.1053 25.7028 18.7027 26.1415 19.468C26.5895 20.2333 26.8135 21.0967 26.8135 22.058C26.8135 23.0193 26.5895 23.8873 26.1415 24.662C25.6935 25.4273 25.0868 26.0247 24.3215 26.454C23.5562 26.8833 22.7115 27.098 21.7875 27.098ZM21.7875 24.914C22.5715 24.914 23.1968 24.6527 23.6635 24.13C24.1395 23.6073 24.3775 22.9167 24.3775 22.058C24.3775 21.19 24.1395 20.4993 23.6635 19.986C23.1968 19.4633 22.5715 19.202 21.7875 19.202C20.9942 19.202 20.3595 19.4587 19.8835 19.972C19.4168 20.4853 19.1835 21.1807 19.1835 22.058C19.1835 22.926 19.4168 23.6213 19.8835 24.144C20.3595 24.6573 20.9942 24.914 21.7875 24.914ZM35.6353 20.336C35.6353 20.9053 35.5047 21.428 35.2433 21.904C34.982 22.3707 34.5807 22.7487 34.0393 23.038C33.498 23.3273 32.826 23.472 32.0233 23.472H30.5393V27H28.1453V17.172H32.0233C32.8073 17.172 33.47 17.3073 34.0113 17.578C34.5527 17.8487 34.9587 18.222 35.2293 18.698C35.5 19.174 35.6353 19.72 35.6353 20.336ZM31.8413 21.568C32.2987 21.568 32.6393 21.4607 32.8633 21.246C33.0873 21.0313 33.1993 20.728 33.1993 20.336C33.1993 19.944 33.0873 19.6407 32.8633 19.426C32.6393 19.2113 32.2987 19.104 31.8413 19.104H30.5393V21.568H31.8413ZM43.8397 18.866H39.4717V20.798C39.6583 20.5927 39.9197 20.4247 40.2557 20.294C40.5917 20.1633 40.9557 20.098 41.3477 20.098C42.0477 20.098 42.6263 20.2567 43.0837 20.574C43.5503 20.8913 43.891 21.302 44.1057 21.806C44.3203 22.31 44.4277 22.856 44.4277 23.444C44.4277 24.536 44.1197 25.404 43.5037 26.048C42.8877 26.6827 42.0197 27 40.8997 27C40.153 27 39.5043 26.874 38.9537 26.622C38.403 26.3607 37.9783 26.0013 37.6797 25.544C37.381 25.0867 37.2177 24.5593 37.1897 23.962H39.5277C39.5837 24.2513 39.719 24.494 39.9337 24.69C40.1483 24.8767 40.4423 24.97 40.8157 24.97C41.2543 24.97 41.581 24.83 41.7957 24.55C42.0103 24.27 42.1177 23.8967 42.1177 23.43C42.1177 22.9727 42.0057 22.6227 41.7817 22.38C41.5577 22.1373 41.231 22.016 40.8017 22.016C40.4843 22.016 40.223 22.0953 40.0177 22.254C39.8123 22.4033 39.677 22.604 39.6117 22.856H37.3017V16.766H43.8397V18.866Z" fill="white"/>
</g>
<defs>
<clipPath id="clip0_195_575">
<rect width="52.54" height="44.22" fill="white"/>
</clipPath>
</defs>
</svg>
