<svg width="114" height="169" viewBox="0 0 114 169" fill="none" xmlns="http://www.w3.org/2000/svg">
<g clip-path="url(#clip0_161_627)">
<path d="M9.68999 161.66C9.22999 161.87 8.76 162.06 8.3 162.24V166.91C8.3 167.82 7.88 168.29 7.07 168.29H5.79L5.57 167.22C5.95 167.27 6.32 167.3 6.69 167.3C7.03 167.3 7.2 167.08 7.2 166.63V162.64C6.69 162.8 6.17 162.96 5.66 163.1L5.37 162C5.99 161.87 6.6 161.71 7.2 161.54V157.84H5.62V156.77H7.2V153.79H8.3V156.77H9.63V157.84H8.3V161.15C8.78 160.96 9.24999 160.77 9.68999 160.56V161.66ZM14.88 154.22V159.36H12.27C12.25 160.06 12.22 160.72 12.16 161.36H14.95C14.95 164.29 14.87 166.1 14.73 166.79C14.6 167.75 13.93 168.25 12.74 168.25C12.56 168.25 12.28 168.23 11.86 168.2L11.62 167.24C11.99 167.27 12.31 167.29 12.6 167.29C13.24 167.29 13.61 166.99 13.7 166.39C13.8 165.94 13.86 164.61 13.89 162.4H12.05C11.7 165.12 10.95 167.09 9.83 168.31L8.96 167.64C10.4 166.18 11.15 163.43 11.23 159.37H10.32V154.23H14.88V154.22ZM13.84 155.23H11.38V158.34H13.84V155.23ZM17.11 155.2V165.19H16.08V155.2H17.11ZM16.34 168.34L16.1 167.27C16.72 167.32 17.32 167.35 17.88 167.35C18.26 167.35 18.47 167.14 18.47 166.74V153.84H19.58V167.01C19.58 167.89 19.13 168.34 18.27 168.34H16.35H16.34Z" fill="white"/>
<path d="M48.51 154.23H49.58V156.57H44.14C44.28 156.89 44.43 157.24 44.57 157.63H50.75V158.57H37.22V157.63H43.46C43.3 157.25 43.14 156.89 42.95 156.57H38.42V154.23H39.49V155.62H43.46V153.79H44.55V155.62H48.5V154.23H48.51ZM47.18 168.35L46.99 167.57H40.94V164.85H47.06V167.41L48.34 167.44C48.82 167.44 49.08 167.22 49.08 166.8V163.97H38.93V168.48H37.81V163.07H50.2V167.04C50.2 167.9 49.69 168.35 48.66 168.35H47.19H47.18ZM48.36 159.51V162.2H39.6V159.51H48.36ZM47.24 160.36H40.73V161.35H47.24V160.36ZM46.02 165.67H41.95V166.74H46.02V165.67Z" fill="white"/>
<path d="M68.36 158.41L67.74 157.56C69 156.52 70.16 155.3 71.18 153.93H71.95C73.01 154.81 74.01 155.76 75.01 156.75L74.27 157.53C73.26 156.47 72.38 155.63 71.63 155.02C71.17 155.61 70.69 156.17 70.21 156.7H73.25V157.63H70.13V156.78C69.57 157.36 68.98 157.9 68.37 158.41H68.36ZM68.58 167.25C68.84 167.17 68.98 167.03 68.98 166.82V158.64H74.07V164.16H70.04V166.95C71.13 166.65 72.1 166.34 72.94 166.04C72.73 165.62 72.52 165.24 72.32 164.89L73.25 164.6C73.73 165.43 74.18 166.3 74.56 167.22C75.81 166.24 76.64 165.06 77.09 163.67C77.47 162.34 77.67 160.64 77.67 158.6H78.71C78.71 159.54 78.66 160.42 78.58 161.22C79.33 163.91 80.66 166.04 82.57 167.61L81.82 168.49C80.25 167.08 79.08 165.32 78.28 163.24L78.14 163.83C77.64 165.7 76.51 167.24 74.73 168.44L74.11 167.66L73.74 167.84C73.61 167.5 73.48 167.2 73.36 166.91C72.06 167.39 70.59 167.81 68.94 168.17L68.6 167.26L68.58 167.25ZM73.03 159.6H70.04V160.91H73.03V159.6ZM70.04 163.17H73.03V161.86H70.04V163.17ZM77.51 153.9C77.4 154.76 77.25 155.58 77.09 156.32H81.96V157.06C81.72 158.44 81.4 159.8 81.02 161.14L79.92 160.82C80.27 159.83 80.58 158.69 80.8 157.43H76.83C76.45 158.76 75.95 159.85 75.34 160.68L74.46 160.06C75.48 158.54 76.14 156.43 76.44 153.74L77.51 153.92V153.9Z" fill="white"/>
<path d="M106.92 157.1C108.26 158.67 110.55 160.03 113.82 161.21L113.2 162.19C110.19 161.09 107.93 159.71 106.46 158.08C104.7 159.87 102.46 161.25 99.77 162.23L99.15 161.25C102.13 160.19 104.42 158.8 106.02 157.1H106.93H106.92ZM103.03 155.07V153.81H104.17V155.07H106.07V156.11H104.17V157.47H103.03V156.11H99.57V155.07H103.03ZM104.15 164.5C103.17 165.84 102.02 167.01 100.68 167.99L99.77 167.33C101.1 166.4 102.25 165.3 103.21 164.02L104.16 164.5H104.15ZM107.03 160.24V162.1H111.18V163.2H107.03V168.4H105.91V163.2H101.67V162.1H105.91V160.24H107.03ZM109.93 153.81V155.07H113.39V156.11H109.93V157.47H108.79V156.11H106.87V155.07H108.79V153.81H109.93ZM113.24 167.35L112.33 168.01C111.45 166.92 110.25 165.74 108.74 164.43L109.64 163.89C111.21 165.22 112.41 166.37 113.24 167.36V167.35Z" fill="white"/>
<path d="M28.8499 161.57C29.2807 161.57 29.6299 161.221 29.6299 160.79C29.6299 160.359 29.2807 160.01 28.8499 160.01C28.4192 160.01 28.0699 160.359 28.0699 160.79C28.0699 161.221 28.4192 161.57 28.8499 161.57Z" fill="white"/>
<path d="M59.2199 161.57C59.6507 161.57 59.9999 161.221 59.9999 160.79C59.9999 160.359 59.6507 160.01 59.2199 160.01C58.7892 160.01 58.4399 160.359 58.4399 160.79C58.4399 161.221 58.7892 161.57 59.2199 161.57Z" fill="white"/>
<path d="M90.98 161.57C91.4107 161.57 91.76 161.221 91.76 160.79C91.76 160.359 91.4107 160.01 90.98 160.01C90.5492 160.01 90.2 160.359 90.2 160.79C90.2 161.221 90.5492 161.57 90.98 161.57Z" fill="white"/>
<path d="M92.22 2.08988C89.29 -0.690117 84.54 -0.690117 81.61 2.08988L74.77 8.58988C70.36 6.23988 65.28 4.88988 59.87 4.88988C43.04 4.88988 29.35 17.8999 29.35 33.8799C29.35 42.5999 33.43 50.4199 39.85 55.7399C32.71 61.2699 28.13 69.6899 28.13 79.1099C28.13 82.9999 28.92 86.7099 30.35 90.1299L43.2 77.9299C43.84 69.7199 51.06 63.2199 59.87 63.2199C68.68 63.2199 76.6 70.3499 76.6 79.1099C76.6 87.8699 69.1 94.9999 59.87 94.9999C52.14 94.9999 45.64 89.9899 43.73 83.2099L32.33 94.0399L25.5 100.52C22.57 103.3 22.57 107.81 25.5 110.6C26.96 111.99 28.88 112.69 30.8 112.69C32.72 112.69 34.64 111.99 36.1 110.6L42.63 104.39C47.59 107.45 53.51 109.24 59.86 109.24C77.36 109.24 91.59 95.7199 91.59 79.0999C91.59 69.6799 87.02 61.2599 79.87 55.7299C86.3 50.4099 90.37 42.5899 90.37 33.8699C90.37 29.7099 89.43 25.7599 87.76 22.1799L75.37 33.9499C75.32 42.0399 68.38 48.6099 59.86 48.6099C51.34 48.6099 44.34 41.9999 44.34 33.8699C44.34 25.7399 51.3 19.1299 59.86 19.1299C66.62 19.1299 72.37 23.2599 74.49 28.9999L85.65 18.3999L92.21 12.1699C95.14 9.38988 95.14 4.87988 92.21 2.08988H92.22Z" fill="white"/>
<path d="M18.56 50.3799C18.56 50.3799 18.51 50.3799 18.48 50.3799C18.12 50.3499 9.53 49.6399 5.33 46.0799C5.15 45.9199 4.97 45.7599 4.81 45.5999C3.48 44.2699 2.75 42.4999 2.75 40.6199C2.75 38.7399 3.48 36.9699 4.81 35.6299C7.56 32.8799 12.03 32.8799 14.77 35.6299C14.92 35.7799 15.08 35.9599 15.22 36.1199C18.8 40.3499 19.52 48.9299 19.55 49.2999C19.57 49.5899 19.47 49.8799 19.26 50.0899C19.07 50.2799 18.82 50.3799 18.55 50.3799H18.56ZM9.8 35.5699C8.45 35.5699 7.18 36.0899 6.23 37.0499C5.27 37.9999 4.75 39.2699 4.75 40.6199C4.75 41.9699 5.28 43.2299 6.23 44.1799C6.36 44.3099 6.51 44.4399 6.65 44.5599C9.48 46.9599 14.99 47.9199 17.43 48.2399C17.11 45.7999 16.15 40.2899 13.73 37.4399C13.61 37.3099 13.49 37.1699 13.36 37.0399C12.41 36.0899 11.14 35.5699 9.79 35.5699H9.8Z" fill="white"/>
<path d="M7.95 73.4498C5.38 73.4498 2.86001 72.2098 1.33001 69.9198C-1.1 66.2798 -0.109995 61.3398 3.53 58.9098C3.74 58.7698 3.97 58.6298 4.2 58.4998C9.71 55.4498 19.49 56.5698 19.9 56.6198C20.19 56.6498 20.45 56.8098 20.61 57.0598C20.77 57.2998 20.82 57.6098 20.74 57.8898C20.63 58.2898 17.91 67.7498 12.99 71.6498C12.77 71.8198 12.56 71.9798 12.35 72.1198C11 73.0198 9.47 73.4498 7.95 73.4498ZM15.2 58.3798C12.05 58.3798 7.92 58.7198 5.18 60.2298C5.01 60.3298 4.82 60.4398 4.64 60.5598C1.91 62.3798 1.18001 66.0698 2.99001 68.7998C4.81001 71.5298 8.51 72.2598 11.23 70.4498C11.41 70.3298 11.59 70.1898 11.76 70.0598C15.21 67.3198 17.58 61.0798 18.45 58.4898C17.65 58.4298 16.51 58.3698 15.2 58.3698V58.3798Z" fill="white"/>
<path d="M15.65 138.07C15.19 137.7 14.67 137.46 14.1 137.37C14.92 137.1 15.58 136.67 16.08 136.07C16.59 135.46 16.84 134.68 16.84 133.75C16.84 133 16.65 132.33 16.28 131.73C15.9 131.13 15.34 130.66 14.59 130.31C13.84 129.95 12.93 129.77 11.87 129.77H6.25V145.45H12.1C13.15 145.45 14.06 145.27 14.82 144.91C15.6 144.54 16.19 144.03 16.6 143.4C17 142.76 17.21 142.04 17.21 141.24C17.21 140.61 17.07 140.02 16.78 139.46C16.51 138.91 16.14 138.44 15.66 138.07H15.65ZM8.3 131.46H11.7C12.69 131.46 13.45 131.68 13.97 132.13C14.49 132.58 14.76 133.2 14.76 134C14.76 134.8 14.5 135.42 13.97 135.87C13.45 136.32 12.7 136.54 11.74 136.54H8.3V131.46ZM14.3 143.04C13.73 143.52 12.94 143.76 11.92 143.76H8.3V138.23H11.85C12.85 138.23 13.66 138.48 14.26 138.99C14.86 139.48 15.16 140.17 15.16 141.04C15.16 141.91 14.87 142.56 14.31 143.04H14.3Z" fill="white"/>
<path d="M110.03 129.75V142.21L101.8 129.75H99.75V145.45H101.8V132.97L110.03 145.45H112.08V129.75H110.03Z" fill="white"/>
<path d="M91.26 130.63C90.06 129.94 88.73 129.6 87.26 129.6C85.79 129.6 84.48 129.94 83.28 130.63C82.08 131.3 81.13 132.26 80.42 133.49C79.73 134.7 79.39 136.08 79.39 137.61C79.39 139.14 79.73 140.52 80.42 141.75C81.12 142.96 82.08 143.92 83.28 144.61C84.48 145.28 85.81 145.62 87.26 145.62C88.71 145.62 90.06 145.28 91.26 144.61C92.46 143.92 93.4 142.97 94.09 141.75C94.78 140.54 95.12 139.16 95.12 137.61C95.12 136.06 94.77 134.69 94.09 133.47C93.4 132.26 92.46 131.31 91.26 130.64V130.63ZM92.27 140.89C91.78 141.83 91.09 142.56 90.2 143.07C89.33 143.58 88.35 143.83 87.25 143.83C86.15 143.83 85.17 143.58 84.28 143.07C83.41 142.56 82.72 141.83 82.21 140.89C81.72 139.95 81.47 138.85 81.47 137.61C81.47 136.37 81.72 135.26 82.21 134.33C82.72 133.39 83.41 132.66 84.28 132.15C85.15 131.64 86.14 131.39 87.25 131.39C88.36 131.39 89.35 131.64 90.22 132.15C91.09 132.66 91.77 133.39 92.27 134.33C92.78 135.26 93.03 136.35 93.03 137.61C93.03 138.87 92.78 139.95 92.27 140.89Z" fill="white"/>
<path d="M33.7 130.63C32.5 129.94 31.17 129.6 29.7 129.6C28.23 129.6 26.92 129.94 25.72 130.63C24.52 131.3 23.57 132.26 22.86 133.49C22.17 134.7 21.83 136.08 21.83 137.61C21.83 139.14 22.17 140.52 22.86 141.75C23.56 142.96 24.52 143.92 25.72 144.61C26.92 145.28 28.25 145.62 29.7 145.62C31.15 145.62 32.5 145.28 33.7 144.61C34.9 143.92 35.84 142.97 36.53 141.75C37.22 140.54 37.56 139.16 37.56 137.61C37.56 136.06 37.22 134.69 36.53 133.47C35.84 132.26 34.9 131.31 33.7 130.64V130.63ZM34.71 140.89C34.22 141.83 33.53 142.56 32.64 143.07C31.77 143.58 30.79 143.83 29.69 143.83C28.59 143.83 27.61 143.58 26.72 143.07C25.85 142.56 25.16 141.83 24.65 140.89C24.16 139.95 23.91 138.85 23.91 137.61C23.91 136.37 24.16 135.26 24.65 134.33C25.16 133.39 25.85 132.66 26.72 132.15C27.59 131.64 28.58 131.39 29.69 131.39C30.8 131.39 31.79 131.64 32.66 132.15C33.53 132.66 34.21 133.39 34.71 134.33C35.22 135.26 35.47 136.35 35.47 137.61C35.47 138.87 35.22 139.95 34.71 140.89Z" fill="white"/>
<path d="M57.21 137.56C56.58 137.28 55.75 136.99 54.71 136.71C53.86 136.47 53.19 136.26 52.71 136.08C52.25 135.89 51.85 135.61 51.52 135.25C51.21 134.89 51.05 134.43 51.05 133.86C51.05 133.07 51.32 132.45 51.86 132.02C52.4 131.57 53.1 131.35 53.95 131.35C54.86 131.35 55.6 131.58 56.15 132.05C56.7 132.5 57.02 133.02 57.09 133.62H59.34C59.22 132.41 58.69 131.43 57.74 130.7C56.81 129.97 55.61 129.6 54.14 129.6C53.12 129.6 52.21 129.78 51.42 130.14C50.64 130.5 50.03 131.01 49.6 131.67C49.16 132.33 48.95 133.09 48.95 133.94C48.95 134.91 49.17 135.69 49.6 136.28C50.05 136.85 50.58 137.27 51.2 137.54C51.83 137.81 52.66 138.08 53.7 138.35C54.54 138.57 55.21 138.78 55.7 138.98C56.19 139.17 56.61 139.46 56.94 139.83C57.27 140.2 57.43 140.69 57.43 141.29C57.43 142.05 57.15 142.68 56.58 143.18C56.03 143.66 55.26 143.9 54.29 143.9C53.32 143.9 52.49 143.65 51.95 143.16C51.43 142.65 51.13 142.03 51.05 141.29H48.87C48.88 142.14 49.12 142.9 49.59 143.56C50.05 144.2 50.69 144.71 51.5 145.09C52.32 145.45 53.25 145.63 54.29 145.63C55.33 145.63 56.31 145.42 57.1 145C57.89 144.58 58.49 144.03 58.9 143.36C59.31 142.69 59.51 141.97 59.51 141.2C59.51 140.21 59.28 139.43 58.84 138.86C58.39 138.28 57.85 137.85 57.22 137.58L57.21 137.56Z" fill="white"/>
<path d="M72.47 137.56C71.84 137.28 71.01 136.99 69.97 136.71C69.12 136.47 68.45 136.26 67.97 136.08C67.51 135.89 67.11 135.61 66.78 135.25C66.47 134.89 66.31 134.43 66.31 133.86C66.31 133.07 66.58 132.45 67.12 132.02C67.66 131.57 68.36 131.35 69.21 131.35C70.12 131.35 70.86 131.58 71.41 132.05C71.96 132.5 72.28 133.02 72.35 133.62H74.6C74.48 132.41 73.95 131.43 73 130.7C72.07 129.97 70.87 129.6 69.4 129.6C68.38 129.6 67.47 129.78 66.68 130.14C65.9 130.5 65.29 131.01 64.86 131.67C64.43 132.33 64.21 133.09 64.21 133.94C64.21 134.91 64.43 135.69 64.86 136.28C65.31 136.85 65.84 137.27 66.46 137.54C67.09 137.81 67.92 138.08 68.96 138.35C69.8 138.57 70.47 138.78 70.96 138.98C71.45 139.17 71.87 139.46 72.2 139.83C72.53 140.2 72.69 140.69 72.69 141.29C72.69 142.05 72.41 142.68 71.84 143.18C71.29 143.66 70.52 143.9 69.55 143.9C68.58 143.9 67.75 143.65 67.21 143.16C66.69 142.65 66.39 142.03 66.31 141.29H64.13C64.15 142.14 64.38 142.9 64.85 143.56C65.31 144.2 65.95 144.71 66.76 145.09C67.58 145.45 68.51 145.63 69.55 145.63C70.59 145.63 71.57 145.42 72.36 145C73.15 144.58 73.75 144.03 74.16 143.36C74.57 142.69 74.77 141.97 74.77 141.2C74.77 140.21 74.54 139.43 74.1 138.86C73.65 138.28 73.11 137.85 72.48 137.58L72.47 137.56Z" fill="white"/>
<path d="M44.2399 129.77H42.1899V145.45H44.2399V129.77Z" fill="white"/>
</g>
<defs>
<clipPath id="clip0_161_627">
<rect width="113.82" height="168.48" fill="white"/>
</clipPath>
</defs>
</svg>
