<svg width="20" height="20" viewBox="0 0 20 20" fill="none" xmlns="http://www.w3.org/2000/svg">
<path d="M16.6667 3.33337C17.5917 3.33337 18.3333 4.07504 18.3333 5.00004V15C18.3333 15.925 17.5917 16.6667 16.6667 16.6667H3.33332C2.40832 16.6667 1.66666 15.925 1.66666 15V5.00004C1.66666 4.07504 2.40832 3.33337 3.33332 3.33337H16.6667ZM7.08332 12.5V7.50004H6.04166V10.4167L3.95832 7.50004H2.91666V12.5H3.95832V9.58337L6.08332 12.5H7.08332ZM11.25 8.55004V7.50004H7.91666V12.5H11.25V11.4584H9.16666V10.5334H11.25V9.48337H9.16666V8.55004H11.25ZM17.0833 11.6667V7.50004H16.0417V11.25H15.1083V8.33337H14.0667V11.25H13.125V7.50004H12.0833V11.6667C12.0833 11.8877 12.1711 12.0997 12.3274 12.256C12.4837 12.4122 12.6956 12.5 12.9167 12.5H16.25C16.471 12.5 16.683 12.4122 16.8392 12.256C16.9955 12.0997 17.0833 11.8877 17.0833 11.6667Z" fill="white"/>
</svg>
