<svg width="154" height="59" viewBox="0 0 154 59" fill="none" xmlns="http://www.w3.org/2000/svg">
<path d="M48.0684 1.08684C46.5411 -0.36228 44.0651 -0.36228 42.5378 1.08684L38.9723 4.47507C36.6735 3.2501 34.0255 2.54638 31.2054 2.54638C22.4325 2.54638 15.2964 9.32805 15.2964 17.6579C15.2964 22.2033 17.4232 26.2796 20.7697 29.0528C17.0479 31.9354 14.6605 36.3244 14.6605 41.2348C14.6605 43.2625 15.0723 45.1964 15.8177 46.9791L22.5159 40.6197C22.8495 36.3401 26.6131 32.9518 31.2054 32.9518C35.7978 32.9518 39.9262 36.6685 39.9262 41.2348C39.9262 45.801 36.0167 49.5177 31.2054 49.5177C27.1761 49.5177 23.7878 46.9061 22.7922 43.3719L16.8498 49.0173L13.2895 52.3951C11.7622 53.8442 11.7622 56.1951 13.2895 57.6494C14.0506 58.374 15.0514 58.7389 16.0522 58.7389C17.0531 58.7389 18.0539 58.374 18.8149 57.6494L22.2188 54.4124C24.8043 56.0074 27.8902 56.9405 31.2002 56.9405C40.3224 56.9405 47.74 49.893 47.74 41.2295C47.74 36.3192 45.3578 31.9302 41.6308 29.0476C44.9825 26.2744 47.1041 22.1981 47.1041 17.6527C47.1041 15.4842 46.6141 13.4252 45.7435 11.5591L39.2851 17.6944C39.259 21.9114 35.6414 25.3361 31.2002 25.3361C26.759 25.3361 23.1102 21.8906 23.1102 17.6527C23.1102 13.4148 26.7382 9.96921 31.2002 9.96921C34.724 9.96921 37.7213 12.122 38.8263 15.1141L44.6437 9.58869L48.0632 6.3412C49.5905 4.89208 49.5905 2.54117 48.0632 1.08684H48.0684Z" fill="white"/>
<path d="M9.67196 26.2587C9.67196 26.2587 9.6459 26.2587 9.63026 26.2587C9.44261 26.2431 4.96493 25.873 2.77561 24.0173C2.67657 23.9287 2.58796 23.8505 2.50455 23.7671C1.07107 22.3336 1.07107 20.0035 2.50455 18.5753C3.19784 17.882 4.12048 17.5015 5.10046 17.5015C6.08044 17.5015 7.00308 17.882 7.69636 18.5753C7.77977 18.6587 7.86317 18.7525 7.94136 18.8359C9.80228 21.0356 10.1776 25.5081 10.188 25.6958C10.1984 25.8469 10.1463 25.9981 10.0368 26.1076C9.93781 26.2066 9.80749 26.2587 9.66675 26.2587H9.67196ZM5.10567 18.5388C4.43324 18.5388 3.76081 18.7942 3.24475 19.3103C2.21786 20.3372 2.21786 22.0052 3.24475 23.0269C3.31252 23.0946 3.38549 23.1572 3.45847 23.2198C4.94408 24.476 7.81104 24.9764 9.08293 25.1432C8.91613 23.8713 8.41571 20.9992 7.15425 19.5136C7.09691 19.451 7.02914 19.3728 6.96138 19.305C6.45054 18.7942 5.77289 18.5336 5.10046 18.5336L5.10567 18.5388Z" fill="white"/>
<path d="M4.14643 38.2892C3.87537 38.2892 3.60432 38.2631 3.32804 38.2058C2.24381 37.9921 1.30553 37.3614 0.695651 36.4439C0.0805567 35.5265 -0.133162 34.4214 0.0805566 33.3372C0.299488 32.253 0.925008 31.3147 1.84244 30.7048C1.9519 30.6318 2.07179 30.5588 2.18647 30.4911C5.05865 28.9012 10.1566 29.485 10.3703 29.5111C10.5215 29.5267 10.657 29.6101 10.7404 29.7404C10.8239 29.8656 10.8499 30.0271 10.8082 30.1731C10.7509 30.3816 9.33303 35.3128 6.7684 37.3457C6.65372 37.4343 6.54426 37.5177 6.42958 37.5907C5.74151 38.0494 4.94918 38.2892 4.14122 38.2892H4.14643ZM7.92561 30.4337C6.28362 30.4337 4.13079 30.611 2.70252 31.3981C2.61391 31.4502 2.51487 31.5075 2.42104 31.5701C1.73297 32.0288 1.26383 32.7273 1.10224 33.5405C0.940645 34.3537 1.10224 35.1773 1.56095 35.8653C2.01967 36.5534 2.71816 37.0225 3.53134 37.1841C4.3393 37.3457 5.16811 37.1841 5.85618 36.7254C5.95001 36.6629 6.04384 36.5899 6.13246 36.5221C7.93604 35.0939 9.16622 31.8412 9.61973 30.4911C9.20271 30.4598 8.60847 30.4285 7.92561 30.4285V30.4337Z" fill="white"/>
<path d="M63.6697 43.544C63.2631 43.7316 62.8566 43.9037 62.45 44.0653V48.2875C62.45 49.1111 62.0851 49.5333 61.3709 49.5333H60.245L60.0469 48.5638C60.3858 48.6055 60.7089 48.6368 61.0321 48.6368C61.3292 48.6368 61.4804 48.4335 61.4804 48.0269V44.4249C61.0321 44.5709 60.5838 44.7168 60.1303 44.8472L59.8801 43.8463C60.4275 43.7316 60.9591 43.5857 61.4804 43.4293V40.088H60.0886V39.1184H61.4804V36.4287H62.45V39.1184H63.6176V40.088H62.45V43.0853C62.8722 42.9133 63.2788 42.736 63.6697 42.5484V43.5492V43.544ZM68.2204 36.8144V41.4589H65.932C65.9164 42.0949 65.8903 42.6891 65.833 43.2677H68.2777C68.2777 45.9158 68.21 47.5525 68.0796 48.1728C67.965 49.0434 67.3759 49.4916 66.3386 49.4916C66.1822 49.4916 65.932 49.476 65.5671 49.4499L65.3586 48.5794C65.6818 48.6107 65.9633 48.6211 66.2135 48.6211C66.7765 48.6211 67.0997 48.3449 67.1831 47.8132C67.2665 47.4066 67.3238 46.2077 67.3499 44.2112H65.7339C65.4264 46.6716 64.7644 48.4491 63.7792 49.549L63.0182 48.9391C64.2796 47.6203 64.9416 45.1339 65.0146 41.4589H64.2119V36.8144H68.2152H68.2204ZM67.3082 37.7267H65.1449V40.5311H67.3082V37.7267ZM70.1751 37.6954V46.7237H69.2786V37.6954H70.1751ZM69.5027 49.575L69.2942 48.6055C69.8415 48.6472 70.3628 48.6785 70.8528 48.6785C71.1916 48.6785 71.374 48.4908 71.374 48.1311V36.4704H72.3436V48.3761C72.3436 49.1737 71.9527 49.575 71.1916 49.575H69.5079H69.5027Z" fill="white"/>
<path d="M96.9057 36.8296H97.8492V38.9407H93.0744C93.1995 39.2326 93.3298 39.5506 93.4549 39.8946H98.8761V40.7495H87.0068V39.8946H92.4853C92.3446 39.5454 92.2039 39.2274 92.0371 38.9407H88.0598V36.8296H89.0033V38.091H92.4853V36.4438H93.4393V38.091H96.9109V36.8296H96.9057ZM95.738 49.5902L95.5712 48.8813H90.2595V46.4209H95.6234V48.7353L96.7493 48.7666C97.1715 48.7666 97.3957 48.5633 97.3957 48.188V45.6286H88.4924V49.7101H87.5073V44.8206H98.3809V48.4069C98.3809 49.1888 97.9326 49.5954 97.0308 49.5954H95.738V49.5902ZM96.7754 41.6044V44.0335H89.0919V41.6044H96.7754ZM95.7902 42.3706H90.0719V43.2672H95.7902V42.3706ZM94.7216 47.1767H91.1561V48.1463H94.7216V47.1767Z" fill="white"/>
<path d="M113.492 40.609L112.945 39.8427C114.055 38.9044 115.067 37.8046 115.963 36.5587H116.636C117.563 37.3563 118.45 38.206 119.32 39.1077L118.674 39.8167C117.788 38.8628 117.016 38.0965 116.354 37.5439C115.948 38.0808 115.525 38.5865 115.103 39.0608H117.772V39.9001H115.035V39.1338C114.545 39.6551 114.024 40.1451 113.492 40.609ZM113.69 48.5948C113.915 48.5218 114.04 48.3915 114.04 48.2038V40.8123H118.507V45.806H114.968V48.3237C115.921 48.0475 116.782 47.7764 117.511 47.5001C117.329 47.1248 117.146 46.7756 116.964 46.4576L117.777 46.197C118.199 46.9476 118.59 47.7295 118.929 48.5687C120.024 47.6878 120.754 46.614 121.15 45.3577C121.489 44.1588 121.655 42.6211 121.655 40.7706H122.568C122.568 41.6255 122.526 42.4178 122.453 43.1423C123.115 45.5714 124.277 47.4949 125.951 48.9128L125.289 49.7103C123.913 48.4384 122.886 46.8433 122.182 44.9668L122.057 45.5037C121.624 47.1978 120.623 48.5844 119.065 49.6686L118.517 48.9597L118.194 49.1213C118.08 48.8189 117.97 48.5427 117.855 48.282C116.719 48.7147 115.426 49.09 113.977 49.4236L113.68 48.6L113.69 48.5948ZM117.595 41.6776H114.968V42.8661H117.595V41.6776ZM114.968 44.9042H117.595V43.7157H114.968V44.9042ZM121.525 36.5275C121.426 37.3094 121.301 38.0444 121.16 38.7116H125.429V39.3788C125.221 40.6246 124.939 41.8548 124.601 43.0694L123.631 42.7775C123.939 41.8809 124.204 40.854 124.403 39.7124H120.92C120.582 40.9113 120.149 41.8965 119.612 42.6471L118.841 42.0842C119.737 40.708 120.316 38.8002 120.582 36.3711L121.525 36.5327V36.5275Z" fill="white"/>
<path d="M146.499 39.4203C147.677 40.8381 149.689 42.0683 152.551 43.1369L152.003 44.0178C149.361 43.017 147.38 41.7764 146.092 40.3012C144.549 41.9224 142.579 43.1682 140.223 44.0491L139.676 43.1682C142.287 42.2143 144.299 40.9528 145.701 39.4203H146.504H146.499ZM143.085 37.5854V36.4438H144.08V37.5854H145.754V38.5237H144.08V39.7539H143.085V38.5237H140.051V37.5854H143.085ZM144.07 46.1081C143.215 47.3227 142.204 48.3808 141.02 49.2618L140.218 48.6675C141.385 47.8283 142.397 46.8327 143.236 45.6703L144.065 46.1029L144.07 46.1081ZM146.598 42.2612V43.9397H150.236V44.9405H146.598V49.6423H145.613V44.9405H141.891V43.9397H145.613V42.2612H146.598ZM149.142 36.4438V37.5854H152.176V38.5237H149.142V39.7539H148.146V38.5237H146.462V37.5854H148.146V36.4438H149.142ZM152.05 48.6832L151.248 49.2774C150.476 48.2922 149.423 47.2236 148.099 46.0351L148.886 45.5452C150.262 46.7441 151.315 47.7866 152.045 48.6832H152.05Z" fill="white"/>
<path d="M77.9836 43.9604C78.3521 43.9604 78.6508 43.6617 78.6508 43.2932C78.6508 42.9247 78.3521 42.626 77.9836 42.626C77.6151 42.626 77.3164 42.9247 77.3164 43.2932C77.3164 43.6617 77.6151 43.9604 77.9836 43.9604Z" fill="white"/>
<path d="M106.143 43.9604C106.511 43.9604 106.81 43.6617 106.81 43.2932C106.81 42.9247 106.511 42.626 106.143 42.626C105.774 42.626 105.475 42.9247 105.475 43.2932C105.475 43.6617 105.774 43.9604 106.143 43.9604Z" fill="white"/>
<path d="M135.276 43.9604C135.644 43.9604 135.943 43.6617 135.943 43.2932C135.943 42.9247 135.644 42.626 135.276 42.626C134.907 42.626 134.609 42.9247 134.609 43.2932C134.609 43.6617 134.907 43.9604 135.276 43.9604Z" fill="white"/>
<path d="M154 30.5908H58.3218V31.1121H154V30.5908Z" fill="white"/>
<path d="M67.1416 17.7363C67.6681 17.8197 68.1424 18.0334 68.5751 18.3774C69.0181 18.7215 69.3622 19.1541 69.6124 19.665C69.873 20.1758 70.0085 20.7231 70.0085 21.3017C70.0085 22.0367 69.8209 22.6987 69.4508 23.293C69.0755 23.8716 68.5334 24.3355 67.814 24.6848C67.1103 25.0184 66.2711 25.18 65.3067 25.18H59.9116V10.7253H65.0982C66.0782 10.7253 66.9174 10.8921 67.6055 11.2205C68.2988 11.5384 68.8148 11.9763 69.1589 12.5288C69.5029 13.0814 69.6749 13.7017 69.6749 14.395C69.6749 15.2498 69.4404 15.964 68.9712 16.5322C68.5125 17.0847 67.9078 17.4861 67.1468 17.7363H67.1416ZM61.7882 16.97H64.9627C65.8488 16.97 66.5317 16.7615 67.0165 16.3497C67.5013 15.9327 67.741 15.3593 67.741 14.6295C67.741 13.8998 67.5013 13.3212 67.0165 12.9094C66.5317 12.4923 65.8332 12.2891 64.921 12.2891H61.7882V16.9752V16.97ZM65.1295 23.6266C66.0678 23.6266 66.8028 23.4077 67.3292 22.9646C67.8557 22.5215 68.1163 21.9064 68.1163 21.1193C68.1163 20.3322 67.8401 19.6858 67.2875 19.2323C66.735 18.7632 65.9948 18.5286 65.0669 18.5286H61.7882V23.6318H65.1295V23.6266ZM80.2149 25.3259C78.8753 25.3259 77.6503 25.0132 76.5452 24.3928C75.4401 23.7569 74.5592 22.8812 73.9128 21.7605C73.2769 20.6241 72.9589 19.3522 72.9589 17.9448C72.9589 16.5374 73.2769 15.2707 73.9128 14.15C74.5644 13.0136 75.4401 12.1379 76.5452 11.5176C77.6503 10.8816 78.8753 10.5637 80.2149 10.5637C81.5546 10.5637 82.8004 10.8816 83.9055 11.5176C85.0106 12.1379 85.8811 13.0084 86.517 14.1291C87.153 15.2498 87.471 16.5217 87.471 17.9448C87.471 19.3678 87.153 20.6397 86.517 21.7605C85.8811 22.8812 85.0106 23.7569 83.9055 24.3928C82.8004 25.0132 81.5702 25.3259 80.2149 25.3259ZM80.2149 23.6891C81.2262 23.6891 82.128 23.4546 82.9307 22.9854C83.7491 22.5163 84.3851 21.8439 84.8386 20.9733C85.3077 20.1028 85.5423 19.0916 85.5423 17.9448C85.5423 16.798 85.3077 15.7763 84.8386 14.9162C84.3798 14.0457 83.7543 13.3733 82.9516 12.9041C82.1488 12.435 81.2366 12.2004 80.2149 12.2004C79.1933 12.2004 78.281 12.435 77.4783 12.9041C76.6755 13.3733 76.0396 14.0457 75.5704 14.9162C75.1117 15.7711 74.8876 16.7824 74.8876 17.9448C74.8876 19.1072 75.1169 20.1028 75.5704 20.9733C76.0396 21.8439 76.6755 22.5163 77.4783 22.9854C78.2967 23.4546 79.2089 23.6891 80.2149 23.6891ZM92.8921 10.7253V25.18H91.0051V10.7253H92.8921ZM101.728 25.3259C100.774 25.3259 99.9136 25.1591 99.1577 24.8307C98.4123 24.4867 97.8233 24.0123 97.3959 23.4181C96.9684 22.8082 96.7443 22.1097 96.7339 21.3226H98.7459C98.8137 22.0002 99.09 22.5736 99.5748 23.0428C100.07 23.5015 100.789 23.7256 101.733 23.7256C102.676 23.7256 103.338 23.5067 103.849 23.0636C104.376 22.6049 104.636 22.0263 104.636 21.3226C104.636 20.7701 104.485 20.3218 104.178 19.9725C103.875 19.6285 103.495 19.3626 103.036 19.1854C102.577 19.0082 101.962 18.8101 101.191 18.6068C100.237 18.3566 99.4705 18.1116 98.8867 17.8614C98.3185 17.6112 97.8285 17.2254 97.4115 16.699C97.0101 16.1621 96.812 15.4427 96.812 14.5409C96.812 13.7538 97.0101 13.0553 97.4115 12.4454C97.8129 11.8355 98.3706 11.3664 99.09 11.0328C99.825 10.6992 100.659 10.5376 101.597 10.5376C102.953 10.5376 104.058 10.8764 104.918 11.5541C105.788 12.2317 106.278 13.1283 106.393 14.249H104.318C104.251 13.6965 103.959 13.2117 103.448 12.7947C102.937 12.3672 102.259 12.1535 101.415 12.1535C100.628 12.1535 99.9813 12.362 99.4861 12.7738C98.9909 13.1752 98.7407 13.7434 98.7407 14.4732C98.7407 14.9996 98.8867 15.4271 99.1786 15.7607C99.4809 16.0943 99.851 16.3497 100.278 16.5269C100.722 16.6937 101.337 16.8866 102.124 17.1055C103.078 17.3662 103.844 17.632 104.428 17.8927C105.006 18.1429 105.507 18.5338 105.919 19.0759C106.336 19.6024 106.539 20.3218 106.539 21.234C106.539 21.9377 106.351 22.6049 105.981 23.2252C105.606 23.8455 105.053 24.3511 104.323 24.7369C103.594 25.1226 102.728 25.3155 101.733 25.3155L101.728 25.3259ZM114.936 25.3259C113.983 25.3259 113.122 25.1591 112.367 24.8307C111.621 24.4867 111.032 24.0123 110.605 23.4181C110.177 22.8082 109.953 22.1097 109.943 21.3226H111.955C112.023 22.0002 112.299 22.5736 112.784 23.0428C113.279 23.5015 113.998 23.7256 114.942 23.7256C115.885 23.7256 116.547 23.5067 117.058 23.0636C117.584 22.6049 117.845 22.0263 117.845 21.3226C117.845 20.7701 117.694 20.3218 117.386 19.9725C117.084 19.6285 116.704 19.3626 116.245 19.1854C115.786 19.0082 115.171 18.8101 114.4 18.6068C113.446 18.3566 112.679 18.1116 112.096 17.8614C111.527 17.6112 111.037 17.2254 110.62 16.699C110.219 16.1621 110.021 15.4427 110.021 14.5409C110.021 13.7538 110.219 13.0553 110.62 12.4454C111.022 11.8355 111.58 11.3664 112.299 11.0328C113.034 10.6992 113.868 10.5376 114.806 10.5376C116.161 10.5376 117.267 10.8764 118.127 11.5541C118.997 12.2317 119.487 13.1283 119.602 14.249H117.527C117.459 13.6965 117.167 13.2117 116.657 12.7947C116.146 12.3672 115.468 12.1535 114.624 12.1535C113.837 12.1535 113.19 12.362 112.695 12.7738C112.2 13.1752 111.95 13.7434 111.95 14.4732C111.95 14.9996 112.096 15.4271 112.387 15.7607C112.69 16.0943 113.06 16.3497 113.487 16.5269C113.93 16.6937 114.546 16.8866 115.333 17.1055C116.287 17.3662 117.053 17.632 117.637 17.8927C118.215 18.1429 118.716 18.5338 119.127 19.0759C119.544 19.6024 119.748 20.3218 119.748 21.234C119.748 21.9377 119.56 22.6049 119.19 23.2252C118.815 23.8455 118.262 24.3511 117.532 24.7369C116.803 25.1226 115.937 25.3155 114.942 25.3155L114.936 25.3259ZM130.116 25.3259C128.776 25.3259 127.551 25.0132 126.446 24.3928C125.341 23.7569 124.46 22.8812 123.814 21.7605C123.178 20.6241 122.86 19.3522 122.86 17.9448C122.86 16.5374 123.178 15.2707 123.814 14.15C124.465 13.0136 125.341 12.1379 126.446 11.5176C127.551 10.8816 128.776 10.5637 130.116 10.5637C131.455 10.5637 132.701 10.8816 133.806 11.5176C134.911 12.1379 135.782 13.0084 136.418 14.1291C137.054 15.2498 137.372 16.5217 137.372 17.9448C137.372 19.3678 137.054 20.6397 136.418 21.7605C135.782 22.8812 134.911 23.7569 133.806 24.3928C132.701 25.0132 131.471 25.3259 130.116 25.3259ZM130.116 23.6891C131.127 23.6891 132.029 23.4546 132.832 22.9854C133.65 22.5163 134.286 21.8439 134.739 20.9733C135.208 20.1028 135.443 19.0916 135.443 17.9448C135.443 16.798 135.208 15.7763 134.739 14.9162C134.281 14.0457 133.655 13.3733 132.852 12.9041C132.05 12.435 131.137 12.2004 130.116 12.2004C129.094 12.2004 128.182 12.435 127.379 12.9041C126.576 13.3733 125.94 14.0457 125.471 14.9162C125.013 15.7711 124.788 16.7824 124.788 17.9448C124.788 19.1072 125.018 20.1028 125.471 20.9733C125.94 21.8439 126.576 22.5163 127.379 22.9854C128.197 23.4546 129.11 23.6891 130.116 23.6891ZM152.27 25.18H150.383L142.793 13.6704V25.18H140.906V10.7044H142.793L150.383 22.1931V10.7044H152.27V25.18Z" fill="white"/>
</svg>
