<svg width="110" height="119" viewBox="0 0 110 119" fill="none" xmlns="http://www.w3.org/2000/svg">
<g clip-path="url(#clip0_371_5934)">
<g opacity="0.4">
<path d="M0.110947 10.29C6.58195 13.743 11.9729 18.864 16.2839 24.759C18.9539 28.41 21.2309 32.337 23.2019 36.402C24.7169 39.525 26.2319 42.492 28.5539 45.108C32.4959 49.554 37.7729 52.482 43.3139 54.468C48.6479 56.379 54.2189 57.45 59.7359 58.68C62.0879 59.205 64.4429 59.754 66.7229 60.534C68.5499 61.161 70.4039 61.944 71.8979 63.198C74.6969 65.547 75.8099 69.393 76.1729 72.897C76.3919 74.994 76.3829 77.109 76.3229 79.212C76.2689 81.078 76.1369 82.929 76.3829 84.786C77.2979 91.755 82.8419 97.743 89.5109 99.735C93.3659 100.887 97.4009 101.421 101.361 102.096C105.321 102.771 109.788 103.266 113.34 105.447C116.484 107.376 118.815 110.331 121.671 112.623C124.725 115.074 128.304 116.799 132.093 117.768C139.632 119.697 147.921 118.686 154.74 114.921C156.408 114 157.971 112.911 159.42 111.681C159.642 111.492 159.321 111.177 159.102 111.363C152.919 116.61 144.576 118.935 136.548 118.11C132.498 117.693 128.514 116.454 124.998 114.387C121.665 112.431 119.166 109.587 116.28 107.082C114.984 105.957 113.583 104.958 112.026 104.226C110.193 103.365 108.222 102.936 106.245 102.537C102.135 101.703 97.9739 101.145 93.8639 100.32C92.1299 99.972 90.3929 99.585 88.7159 99.012C86.9759 98.418 85.4579 97.491 83.9909 96.387C80.8709 94.035 78.3749 90.876 77.3069 87.078C76.2389 83.28 76.8929 79.476 76.7939 75.66C76.6949 71.736 76.0739 67.614 73.6409 64.404C71.1959 61.179 66.9269 59.988 63.1829 59.034C57.9119 57.693 52.5389 56.796 47.3099 55.284C41.6279 53.64 36.0179 51.297 31.5029 47.388C29.1209 45.33 27.1079 42.879 25.5509 40.14C24.5399 38.358 23.7509 36.459 22.8239 34.635C21.7769 32.577 20.6459 30.561 19.4219 28.602C15.4889 22.308 10.5329 16.566 4.38295 12.351C3.08095 11.46 1.72795 10.641 0.335947 9.89998C0.0809466 9.76498 -0.147053 10.152 0.107947 10.29H0.110947Z" fill="#78BEC8"/>
<path d="M23.3729 7.78495C27.7919 11.2259 31.4819 15.5159 34.6529 20.1149C36.5789 22.9079 38.3219 25.8239 39.9299 28.8119C41.6369 31.9859 43.0109 35.3279 45.2669 38.1719C49.4309 43.4129 55.5599 46.7249 61.6409 49.2479C64.6499 50.4959 67.7309 51.5639 70.7849 52.6949C73.4279 53.6729 76.0979 54.6839 78.5279 56.1299C80.8709 57.5219 82.6499 59.3339 83.8379 61.8059C85.2839 64.8149 85.7459 68.1899 86.1119 71.4749C86.4029 74.0789 86.6069 76.6229 87.7139 79.0379C88.8209 81.4529 90.6029 83.4809 92.6999 85.0919C94.8959 86.7809 97.3319 88.0049 99.9779 88.8029C102.972 89.7089 106.053 90.3089 109.11 90.9569C112.305 91.6349 115.665 92.1869 118.707 93.4019C121.749 94.6169 124.035 96.6089 126.501 98.5379C128.967 100.467 131.601 102.081 134.565 103.128C137.301 104.091 140.193 104.595 143.091 104.673C148.929 104.832 154.845 103.251 159.765 100.089C160.95 99.3269 162.069 98.4719 163.122 97.5389C163.338 97.3469 163.02 97.0289 162.804 97.2209C153.702 105.276 139.206 106.71 129.024 99.8399C126.507 98.1419 124.305 96.0029 121.71 94.4189C119.115 92.8349 115.965 92.0249 112.896 91.326C109.827 90.6269 106.593 90.0089 103.458 89.2649C100.731 88.6169 98.0339 87.8729 95.5889 86.4719C93.1439 85.0709 90.7139 83.1149 89.1089 80.6429C87.6809 78.4409 87.0599 76.0229 86.7749 73.4429C86.1629 67.8809 85.6829 61.3229 81.1169 57.4169C79.2449 55.8149 76.9859 54.7199 74.7329 53.7659C71.9579 52.5929 69.1019 51.6209 66.2789 50.5769C59.9759 48.2489 53.5409 45.5279 48.5009 40.9559C45.8579 38.5589 43.9109 35.7209 42.3449 32.5319C40.7789 29.3429 39.0539 26.1599 37.1579 23.1179C34.1549 18.2999 30.6839 13.7099 26.4989 9.85195C25.5959 9.02095 24.6599 8.22595 23.6939 7.47295C23.4689 7.29595 23.1479 7.61395 23.3759 7.79095L23.3729 7.78495Z" fill="#78BEC8"/>
<path d="M46.68 5.31596C49.773 9.23396 52.332 13.557 54.759 17.907C56.202 20.49 57.594 23.103 58.968 25.722C60.342 28.341 61.677 31.035 63.699 33.303C65.532 35.358 67.719 37.047 69.975 38.607C72.444 40.314 74.991 41.898 77.559 43.446C82.023 46.131 86.931 48.696 90.426 52.656C94.104 56.826 94.758 62.37 96.672 67.386C98.271 71.574 101.895 74.325 105.855 76.14C110.685 78.354 116.016 79.392 121.104 80.835C123.9 81.627 126.648 82.464 129.201 83.877C131.523 85.161 133.68 86.724 136.041 87.942C144.885 92.505 156.066 91.332 164.109 85.602C165.06 84.924 165.963 84.183 166.818 83.388C167.031 83.19 166.713 82.872 166.5 83.07C159.234 89.838 148.029 92.244 138.708 88.656C136.164 87.678 133.89 86.196 131.583 84.765C129.243 83.313 126.852 82.113 124.218 81.291C119.058 79.674 113.724 78.594 108.624 76.779C104.334 75.252 99.942 72.813 97.734 68.652C96.555 66.432 96.03 63.876 95.301 61.488C94.53 58.953 93.627 56.4 92.154 54.174C89.499 50.157 85.158 47.517 81.129 45.069C76.17 42.054 70.95 39.225 66.525 35.433C64.332 33.552 62.445 31.35 61.077 28.8C59.616 26.076 58.218 23.322 56.745 20.607C54.315 16.122 51.801 11.649 48.846 7.48196C48.246 6.63596 47.628 5.80796 46.986 4.99496C46.806 4.76696 46.491 5.08796 46.668 5.31296L46.68 5.31596Z" fill="#78BEC8"/>
<path d="M69.927 2.74795C71.508 7.02295 72.924 11.3549 74.679 15.5609C75.633 17.8469 76.671 20.0969 77.835 22.2839C78.999 24.4709 80.271 26.4869 82.035 28.2299C83.799 29.9729 85.644 31.2719 87.486 32.7449C89.328 34.2179 91.173 35.8859 92.853 37.6229C95.916 40.7939 98.556 44.3549 100.644 48.2399C101.748 50.2919 102.648 52.4369 103.611 54.5579C104.574 56.6789 105.543 58.6649 107.04 60.3509C109.707 63.3539 113.772 64.6199 117.483 65.7809C122.124 67.2329 126.729 68.8139 131.28 70.5389C133.623 71.4269 135.888 72.4439 138.15 73.5239C140.259 74.5319 142.401 75.4859 144.657 76.1159C152.679 78.3539 161.658 76.3919 168.201 71.2979C169.017 70.6619 169.794 69.9749 170.526 69.2459C170.733 69.0419 170.415 68.7239 170.208 68.9279C164.301 74.7959 155.481 77.6369 147.261 76.2389C144.924 75.8429 142.68 75.0779 140.517 74.1239C138.354 73.1699 136.326 72.0989 134.181 71.1959C129.702 69.3089 125.049 67.7609 120.432 66.2519C116.559 64.9859 112.278 64.0409 108.975 61.5269C105.345 58.7639 103.977 54.0359 102.087 50.0819C100.287 46.3169 97.998 42.8009 95.286 39.6299C93.78 37.8659 92.148 36.2099 90.426 34.6559C88.68 33.0809 86.808 31.6739 84.975 30.2069C83.127 28.7249 81.378 27.1169 80.031 25.1549C78.624 23.1029 77.526 20.7869 76.479 18.5339C74.517 14.3069 72.969 9.91195 71.412 5.52295C71.07 4.55695 70.725 3.59095 70.368 2.63095C70.269 2.36095 69.834 2.47795 69.933 2.75095L69.927 2.74795Z" fill="#78BEC8"/>
<path d="M93.2249 0.215958C93.2579 4.39496 93.3659 8.63096 94.3349 12.717C94.7969 14.664 95.4659 16.572 96.4379 18.327C97.4609 20.175 98.8199 21.762 100.431 23.121C102.12 24.546 103.98 25.806 105.357 27.561C106.371 28.848 107.115 30.333 107.691 31.863C108.882 35.037 109.404 38.409 110.157 41.7C110.844 44.709 111.717 47.844 113.697 50.283C114.72 51.543 116.04 52.542 117.531 53.184C119.625 54.084 121.929 54.261 124.176 54.447C126.423 54.633 128.787 54.957 131.019 55.716C133.251 56.475 135.309 57.489 137.373 58.539C141.3 60.534 145.215 62.598 149.607 63.339C153.549 64.005 157.629 63.768 161.481 62.715C165.333 61.662 169.002 59.778 172.059 57.171C172.821 56.523 173.538 55.83 174.219 55.095C174.417 54.882 174.099 54.564 173.901 54.777C168.405 60.711 160.14 63.783 152.103 63.192C150.093 63.045 148.098 62.661 146.181 62.037C144.051 61.347 142.026 60.387 140.028 59.385C136.05 57.384 132.075 55.122 127.626 54.378C123.447 53.679 118.761 54.219 115.308 51.288C112.962 49.296 111.819 46.335 111.045 43.437C110.184 40.215 109.71 36.903 108.771 33.702C108.318 32.16 107.757 30.642 106.986 29.232C106.122 27.657 104.979 26.316 103.617 25.143C101.925 23.685 100.065 22.425 98.6099 20.709C97.2959 19.158 96.3149 17.346 95.6129 15.444C94.1789 11.541 93.8339 7.31996 93.7199 3.19496C93.6929 2.20496 93.6809 1.21196 93.6719 0.218958C93.6719 -0.0690425 93.2189 -0.0720425 93.2219 0.218958L93.2249 0.215958Z" fill="#78BEC8"/>
</g>
</g>
<defs>
<clipPath id="clip0_371_5934">
<rect width="174.282" height="118.722" fill="white"/>
</clipPath>
</defs>
</svg>
