<svg width="397" height="396" viewBox="0 0 397 396" fill="none" xmlns="http://www.w3.org/2000/svg">
<g clip-path="url(#clip0_371_5626)">
<g opacity="0.4">
<path d="M0.369995 34.3C21.94 45.81 39.91 62.88 54.28 82.53C63.18 94.7 70.77 107.79 77.34 121.34C82.39 131.75 87.44 141.64 95.18 150.36C108.32 165.18 125.91 174.94 144.38 181.56C162.16 187.93 180.73 191.5 199.12 195.6C206.96 197.35 214.81 199.18 222.41 201.78C228.5 203.87 234.68 206.48 239.66 210.66C248.99 218.49 252.7 231.31 253.91 242.99C254.64 249.98 254.61 257.03 254.41 264.04C254.23 270.26 253.79 276.43 254.61 282.62C257.66 305.85 276.14 325.81 298.37 332.45C311.22 336.29 324.67 338.07 337.87 340.32C351.07 342.57 365.96 344.22 377.8 351.49C388.28 357.92 396.05 367.77 405.57 375.41C415.75 383.58 427.68 389.33 440.31 392.56C465.44 398.99 493.07 395.62 515.8 383.07C521.36 380 526.57 376.37 531.4 372.27C532.14 371.64 531.07 370.59 530.34 371.21C509.73 388.7 481.92 396.45 455.16 393.7C441.66 392.31 428.38 388.18 416.66 381.29C405.55 374.77 397.22 365.29 387.6 356.94C383.28 353.19 378.61 349.86 373.42 347.42C367.31 344.55 360.74 343.12 354.15 341.79C340.45 339.01 326.58 337.15 312.88 334.4C307.1 333.24 301.31 331.95 295.72 330.04C289.92 328.06 284.86 324.97 279.97 321.29C269.57 313.45 261.25 302.92 257.69 290.26C254.13 277.6 256.31 264.92 255.98 252.2C255.65 239.12 253.58 225.38 245.47 214.68C237.32 203.93 223.09 199.96 210.61 196.78C193.04 192.31 175.13 189.32 157.7 184.28C138.76 178.8 120.06 170.99 105.01 157.96C97.07 151.1 90.36 142.93 85.17 133.8C81.8 127.86 79.17 121.53 76.08 115.45C72.59 108.59 68.82 101.87 64.74 95.34C51.63 74.36 35.11 55.22 14.61 41.17C10.27 38.2 5.75999 35.47 1.12 33C0.269995 32.55 -0.490005 33.84 0.359995 34.3H0.369995Z" fill="#78BEC8"/>
<path d="M77.91 25.95C92.64 37.42 104.94 51.72 115.51 67.05C121.93 76.36 127.74 86.08 133.1 96.04C138.79 106.62 143.37 117.76 150.89 127.24C164.77 144.71 185.2 155.75 205.47 164.16C215.5 168.32 225.77 171.88 235.95 175.65C244.76 178.91 253.66 182.28 261.76 187.1C269.57 191.74 275.5 197.78 279.46 206.02C284.28 216.05 285.82 227.3 287.04 238.25C288.01 246.93 288.69 255.41 292.38 263.46C296.07 271.51 302.01 278.27 309 283.64C316.32 289.27 324.44 293.35 333.26 296.01C343.24 299.03 353.51 301.03 363.7 303.19C374.35 305.45 385.55 307.29 395.69 311.34C405.83 315.39 413.45 322.03 421.67 328.46C429.89 334.89 438.67 340.27 448.55 343.76C457.67 346.97 467.31 348.65 476.97 348.91C496.43 349.44 516.15 344.17 532.55 333.63C536.5 331.09 540.23 328.24 543.74 325.13C544.46 324.49 543.4 323.43 542.68 324.07C512.34 350.92 464.02 355.7 430.08 332.8C421.69 327.14 414.35 320.01 405.7 314.73C397.05 309.45 386.55 306.75 376.32 304.42C366.09 302.09 355.31 300.03 344.86 297.55C335.77 295.39 326.78 292.91 318.63 288.24C310.48 283.57 302.38 277.05 297.03 268.81C292.27 261.47 290.2 253.41 289.25 244.81C287.21 226.27 285.61 204.41 270.39 191.39C264.15 186.05 256.62 182.4 249.11 179.22C239.86 175.31 230.34 172.07 220.93 168.59C199.92 160.83 178.47 151.76 161.67 136.52C152.86 128.53 146.37 119.07 141.15 108.44C135.93 97.81 130.18 87.2 123.86 77.06C113.85 61 102.28 45.7 88.33 32.84C85.32 30.07 82.2 27.42 78.98 24.91C78.23 24.32 77.16 25.38 77.92 25.97L77.91 25.95Z" fill="#78BEC8"/>
<path d="M155.6 17.72C165.91 30.78 174.44 45.19 182.53 59.69C187.34 68.3 191.98 77.01 196.56 85.74C201.14 94.47 205.59 103.45 212.33 111.01C218.44 117.86 225.73 123.49 233.25 128.69C241.48 134.38 249.97 139.66 258.53 144.82C273.41 153.77 289.77 162.32 301.42 175.52C313.68 189.42 315.86 207.9 322.24 224.62C327.57 238.58 339.65 247.75 352.85 253.8C368.95 261.18 386.72 264.64 403.68 269.45C413 272.09 422.16 274.88 430.67 279.59C438.41 283.87 445.6 289.08 453.47 293.14C482.95 308.35 520.22 304.44 547.03 285.34C550.2 283.08 553.21 280.61 556.06 277.96C556.77 277.3 555.71 276.24 555 276.9C530.78 299.46 493.43 307.48 462.36 295.52C453.88 292.26 446.3 287.32 438.61 282.55C430.81 277.71 422.84 273.71 414.06 270.97C396.86 265.58 379.08 261.98 362.08 255.93C347.78 250.84 333.14 242.71 325.78 228.84C321.85 221.44 320.1 212.92 317.67 204.96C315.1 196.51 312.09 188 307.18 180.58C298.33 167.19 283.86 158.39 270.43 150.23C253.9 140.18 236.5 130.75 221.75 118.11C214.44 111.84 208.15 104.5 203.59 96C198.72 86.92 194.06 77.74 189.15 68.69C181.05 53.74 172.67 38.83 162.82 24.94C160.82 22.12 158.76 19.36 156.62 16.65C156.02 15.89 154.97 16.96 155.56 17.71L155.6 17.72Z" fill="#78BEC8"/>
<path d="M233.09 9.16003C238.36 23.41 243.08 37.85 248.93 51.87C252.11 59.49 255.57 66.99 259.45 74.28C263.33 81.57 267.57 88.29 273.45 94.1C279.33 99.91 285.48 104.24 291.62 109.15C297.76 114.06 303.91 119.62 309.51 125.41C319.72 135.98 328.52 147.85 335.48 160.8C339.16 167.64 342.16 174.79 345.37 181.86C348.58 188.93 351.81 195.55 356.8 201.17C365.69 211.18 379.24 215.4 391.61 219.27C407.08 224.11 422.43 229.38 437.6 235.13C445.41 238.09 452.96 241.48 460.5 245.08C467.53 248.44 474.67 251.62 482.19 253.72C508.93 261.18 538.86 254.64 560.67 237.66C563.39 235.54 565.98 233.25 568.42 230.82C569.11 230.14 568.05 229.08 567.36 229.76C547.67 249.32 518.27 258.79 490.87 254.13C483.08 252.81 475.6 250.26 468.39 247.08C461.18 243.9 454.42 240.33 447.27 237.32C432.34 231.03 416.83 225.87 401.44 220.84C388.53 216.62 374.26 213.47 363.25 205.09C351.15 195.88 346.59 180.12 340.29 166.94C334.29 154.39 326.66 142.67 317.62 132.1C312.6 126.22 307.16 120.7 301.42 115.52C295.6 110.27 289.36 105.58 283.25 100.69C277.09 95.75 271.26 90.39 266.77 83.85C262.08 77.01 258.42 69.29 254.93 61.78C248.39 47.69 243.23 33.04 238.04 18.41C236.9 15.19 235.75 11.97 234.56 8.77003C234.23 7.87003 232.78 8.26003 233.11 9.17003L233.09 9.16003Z" fill="#78BEC8"/>
<path d="M310.75 0.71998C310.86 14.65 311.22 28.77 314.45 42.39C315.99 48.88 318.22 55.24 321.46 61.09C324.87 67.25 329.4 72.54 334.77 77.07C340.4 81.82 346.6 86.02 351.19 91.87C354.57 96.16 357.05 101.11 358.97 106.21C362.94 116.79 364.68 128.03 367.19 139C369.48 149.03 372.39 159.48 378.99 167.61C382.4 171.81 386.8 175.14 391.77 177.28C398.75 180.28 406.43 180.87 413.92 181.49C421.41 182.11 429.29 183.19 436.73 185.72C444.17 188.25 451.03 191.63 457.91 195.13C471 201.78 484.05 208.66 498.69 211.13C511.83 213.35 525.43 212.56 538.27 209.05C551.11 205.54 563.34 199.26 573.53 190.57C576.07 188.41 578.46 186.1 580.73 183.65C581.39 182.94 580.33 181.88 579.67 182.59C561.35 202.37 533.8 212.61 507.01 210.64C500.31 210.15 493.66 208.87 487.27 206.79C480.17 204.49 473.42 201.29 466.76 197.95C453.5 191.28 440.25 183.74 425.42 181.26C411.49 178.93 395.87 180.73 384.36 170.96C376.54 164.32 372.73 154.45 370.15 144.79C367.28 134.05 365.7 123.01 362.57 112.34C361.06 107.2 359.19 102.14 356.62 97.44C353.74 92.19 349.93 87.72 345.39 83.81C339.75 78.95 333.55 74.75 328.7 69.03C324.32 63.86 321.05 57.82 318.71 51.48C313.93 38.47 312.78 24.4 312.4 10.65C312.31 7.34998 312.27 4.03998 312.24 0.72998C312.24 -0.23002 310.73 -0.24002 310.74 0.72998L310.75 0.71998Z" fill="#78BEC8"/>
</g>
<circle opacity="0.8" cx="247" cy="219" r="16" fill="#78BEC8"/>
</g>
<defs>
<clipPath id="clip0_371_5626">
<rect width="580.94" height="395.74" fill="white"/>
</clipPath>
</defs>
</svg>
