<svg width="63" height="63" viewBox="0 0 63 63" fill="none" xmlns="http://www.w3.org/2000/svg">
<g clip-path="url(#clip0_371_5884)">
<path d="M3 12.5L24 2.5L48 12.5L49.5 25L60.5 31.5V53L43.5 61L27.5 53H21.5L6 45L1 41.5V16L3 12.5Z" fill="#78BEC8"/>
<path d="M24.3599 41.8803C24.3599 39.2403 24.3599 36.6003 24.3599 33.9603C24.3599 31.2403 25.5599 29.2803 27.9999 28.0803C32.1599 26.0403 36.3199 23.9603 40.4799 21.8403C42.5999 20.7603 44.6399 20.7603 46.7599 21.8403C50.8399 23.9203 54.9199 25.9603 59.0399 27.9603C61.6399 29.2403 62.9199 31.2403 62.8799 34.1603C62.8399 39.4403 62.8799 44.6803 62.8799 49.9603C62.8799 52.6403 61.7199 54.5603 59.3199 55.7603C55.0799 57.8803 50.8799 59.9603 46.6799 62.0803C44.6399 63.1203 42.6399 63.1203 40.5599 62.0803C36.3599 59.9603 32.1199 57.8403 27.9199 55.7603C25.5599 54.6003 24.3599 52.6803 24.3599 50.0403C24.3599 47.3203 24.3599 44.6003 24.3599 41.8803ZM58.0399 30.8403C57.7199 30.6803 57.5199 30.5603 57.3199 30.4803C53.3599 28.4803 49.3599 26.5203 45.3999 24.5203C44.1999 23.9203 43.0799 23.8803 41.8799 24.5203C37.9199 26.5603 33.9199 28.5203 29.9199 30.5203C29.7199 30.6003 29.5599 30.7203 29.2799 30.8803C30.5999 31.5603 31.8399 32.1203 33.0399 32.8003C35.0799 33.9203 36.1999 35.6803 36.2399 38.0403C36.2399 39.3203 36.2399 40.5603 36.2399 41.8403C36.2399 42.8403 35.6399 43.4803 34.7199 43.4803C33.8399 43.4803 33.2799 42.8403 33.2799 41.8403C33.2799 40.7603 33.2799 39.6403 33.2799 38.5603C33.3199 37.0003 32.6799 35.9203 31.2799 35.2803C30.1599 34.7603 29.1199 34.2003 27.9999 33.6403C27.8399 33.5603 27.6399 33.4803 27.3599 33.4003C27.3599 33.6803 27.3599 33.9203 27.3599 34.1203C27.3599 39.4403 27.3599 44.7603 27.3599 50.0403C27.3599 51.5603 27.9999 52.5203 29.3599 53.2003C33.5599 55.2803 37.7599 57.3603 41.9599 59.5203C43.0799 60.0803 44.1599 60.1203 45.3199 59.5203C49.5199 57.4003 53.7199 55.2803 57.9199 53.2403C59.3199 52.5603 59.9599 51.5203 59.9599 49.9603C59.9599 44.7203 59.9599 39.4803 59.9599 34.2403C59.9599 34.0003 59.9599 33.7603 59.9599 33.4403C59.6799 33.5603 59.4799 33.6403 59.3199 33.7203C56.7199 35.0003 54.1599 36.3203 51.5599 37.6003C50.2799 38.2403 49.6399 39.2403 49.6799 40.6803C49.6799 43.3203 49.6799 45.9203 49.6799 48.5603C49.6799 50.8003 48.0799 52.4803 45.9599 52.4803C43.8399 52.4803 42.2799 50.8003 42.2399 48.5603C42.2399 46.6803 42.2399 44.7603 42.2399 42.8803C42.2399 41.8403 41.9199 41.0003 41.1199 40.3603C40.9999 40.2803 40.8399 40.1203 40.8399 40.0003C40.8399 38.9603 40.8399 37.9203 40.8399 36.8403C42.3599 37.4403 43.6399 38.2803 44.4399 39.6803C44.9999 40.6803 45.2399 41.7603 45.2399 42.9203C45.2399 44.8003 45.2399 46.6803 45.2399 48.5203C45.2399 49.2403 45.6799 49.6003 46.2399 49.3203C46.4799 49.2003 46.6799 48.7203 46.6799 48.4003C46.6799 45.8403 46.6799 43.2803 46.6799 40.7603C46.6799 40.2803 46.6799 39.8003 46.7599 39.3603C47.1599 37.3603 48.2799 35.9603 50.1199 35.0403C52.7599 33.7203 55.3999 32.4003 58.1199 31.0403L58.0399 30.8403Z" fill="white"/>
<path d="M50.9201 18.8794C49.9201 18.3994 49.0001 17.9594 48.0801 17.4794C47.9601 17.3994 47.9201 17.1194 47.9201 16.9194C47.8801 16.3994 47.8401 15.9194 47.8401 15.2394C47.0001 15.6394 46.3201 16.0394 45.6001 16.3194C45.2801 16.4794 44.8801 16.5594 44.5201 16.5594C42.3601 16.3994 40.3601 16.7994 38.4401 17.8394C36.2801 18.9594 34.0801 20.0394 31.9201 21.1194C31.7201 21.2394 31.5201 21.3194 31.1201 21.4794C32.0001 20.1194 33.0401 19.2794 34.2801 18.6794C37.8801 16.8794 41.5201 15.0794 45.1201 13.2394C45.3601 13.1194 45.6001 12.9994 45.9601 12.7994C45.6001 12.5594 45.3201 12.3994 45.0001 12.2394C39.3201 9.39939 33.6801 6.5994 28.0401 3.71939C26.2801 2.83939 24.6401 2.83939 22.9201 3.71939C17.2801 6.59939 11.6401 9.35939 6.00012 12.1994C5.68012 12.3594 5.40012 12.5194 4.96012 12.7594C5.44012 12.9994 5.84012 13.1994 6.20012 13.3994C7.72012 14.1594 9.24012 14.9194 10.7601 15.6794C13.5201 17.1194 14.9601 19.3994 15.0001 22.5194C15.0401 26.3994 15.0001 30.2394 15.0001 34.1194C15.0001 34.3594 15.0001 34.5994 14.9201 34.7994C14.7601 35.4794 14.1601 35.9194 13.4801 35.8794C12.8401 35.8794 12.2401 35.4394 12.0801 34.7994C12.0001 34.4794 12.0001 34.1594 12.0001 33.8394C12.0001 30.1594 12.0001 26.4794 12.0001 22.7994C12.0001 20.5994 11.0801 19.1194 9.12012 18.1594C7.36012 17.3194 5.60012 16.3994 3.84012 15.5194C3.64012 15.3994 3.44012 15.3594 3.12012 15.1994C3.08012 15.7594 3.00012 16.2394 3.00012 16.7194C3.00012 24.0394 3.00012 31.3194 3.00012 38.6394C3.00012 40.6794 3.88012 42.1594 5.72012 43.0794C10.2001 45.3194 14.6801 47.5594 19.1601 49.7594C19.6801 49.9994 19.9201 50.3194 19.9601 50.9194C20.0401 51.8394 20.2401 52.7594 20.4001 53.7194C20.2801 53.6794 20.1201 53.6394 19.9601 53.5594C14.7601 50.9594 9.56012 48.3594 4.36012 45.7594C1.44012 44.3594 0.000121633 41.9994 0.000121667 38.7594C0.000121743 31.4394 0.000121819 24.1194 0.000121895 16.7994C0.00012193 13.5194 1.48012 11.1194 4.40012 9.67939C10.2401 6.71939 16.0801 3.79939 21.9201 0.879395C24.2401 -0.280605 26.6001 -0.320605 28.9201 0.839395C34.8801 3.79939 40.8401 6.7594 46.7601 9.7994C49.4001 11.1194 50.7201 13.3594 50.8801 16.2794C50.9201 17.1194 50.8801 17.9594 50.8801 18.8794L50.9201 18.8794Z" fill="white"/>
<path d="M19.28 19.96C21.48 21.24 24.08 21.84 25.56 24.2C24.76 24.76 24 25.28 23.16 25.88C22.36 24.72 21.04 24.24 19.84 23.6C19.68 23.52 19.52 23.28 19.48 23.08C19.4 22.08 19.32 21.08 19.28 19.96Z" fill="white"/>
<path d="M36.1999 48.4399C36.1999 48.7999 36.1999 49.1999 36.1999 49.5599C36.1199 50.3599 35.4799 50.9599 34.6799 50.9199C33.9199 50.9199 33.2799 50.3199 33.2399 49.5599C33.2399 48.7999 33.1999 47.9999 33.2399 47.2399C33.2799 46.4799 33.9599 45.9199 34.7199 45.9199C35.4799 45.9199 36.1199 46.4799 36.1999 47.2399C36.1999 47.6399 36.1999 48.0399 36.1999 48.4399Z" fill="white"/>
</g>
<defs>
<clipPath id="clip0_371_5884">
<rect width="62.92" height="62.88" fill="white"/>
</clipPath>
</defs>
</svg>
