<svg width="55" height="82" viewBox="0 0 55 82" fill="none" xmlns="http://www.w3.org/2000/svg">
<path d="M4.68318 78.1139C4.4609 78.2154 4.23379 78.3072 4.01151 78.3942V80.6508C4.01151 81.0905 3.80857 81.3176 3.41717 81.3176H2.79866L2.69235 80.8006C2.87597 80.8247 3.05476 80.8392 3.23355 80.8392C3.39784 80.8392 3.47999 80.7329 3.47999 80.5155V78.5875C3.23355 78.6648 2.98228 78.7421 2.73584 78.8097L2.5957 78.2782C2.89529 78.2154 3.19006 78.1381 3.47999 78.0559V76.268H2.71651V75.751H3.47999V74.311H4.01151V75.751H4.65419V76.268H4.01151V77.8675C4.24345 77.7757 4.47057 77.6839 4.68318 77.5824V78.1139ZM7.19105 74.5188V77.0025H5.92986C5.9202 77.3408 5.90571 77.6597 5.87672 77.969H7.22488C7.22488 79.3848 7.18622 80.2594 7.11857 80.5928C7.05576 81.0567 6.73199 81.2983 6.15697 81.2983C6.06999 81.2983 5.93469 81.2886 5.73174 81.2741L5.61578 80.8102C5.79457 80.8247 5.9492 80.8344 6.08933 80.8344C6.39859 80.8344 6.57738 80.6894 6.62087 80.3995C6.66919 80.1821 6.69817 79.5394 6.71266 78.4715H5.82355C5.65443 79.7858 5.29202 80.7378 4.75082 81.3273L4.33043 81.0035C5.02626 80.298 5.38868 78.9692 5.42733 77.0074H4.98761V74.5236H7.19105V74.5188ZM6.68851 75.0069H5.49981V76.5097H6.68851V75.0069ZM8.26861 74.9924V79.8197H7.7709V74.9924H8.26861ZM7.89654 81.3418L7.78057 80.8247C8.08016 80.8489 8.37009 80.8634 8.64069 80.8634C8.82431 80.8634 8.92578 80.7619 8.92578 80.5686V74.3352H9.46214V80.6991C9.46214 81.1243 9.2447 81.3418 8.82913 81.3418H7.90137H7.89654Z" fill="white"/>
<path d="M23.4413 74.5236H23.9583V75.6544H21.3297C21.3973 75.809 21.4698 75.9781 21.5374 76.1666H24.5237V76.6208H17.9858V76.1666H21.0011C20.9238 75.983 20.8465 75.809 20.7546 75.6544H18.5657V74.5236H19.0827V75.1953H21.0011V74.311H21.5278V75.1953H23.4365V74.5236H23.4413ZM22.7986 81.3466L22.7068 80.9697H19.7834V79.6554H22.7406V80.8924L23.3592 80.9069C23.5911 80.9069 23.7167 80.8006 23.7167 80.5976V79.2301H18.8121V81.4094H18.2709V78.7952H24.2579V80.7136C24.2579 81.1292 24.0115 81.3466 23.5138 81.3466H22.8035H22.7986ZM23.3688 77.075V78.3748H19.1359V77.075H23.3688ZM22.8276 77.4857H19.6819V77.9641H22.8276V77.4857ZM22.2381 80.0516H20.2714V80.5686H22.2381V80.0516Z" fill="white"/>
<path d="M33.0332 76.5432L32.7336 76.1325C33.3425 75.6299 33.903 75.0404 34.3959 74.3784H34.768C35.2802 74.8037 35.7634 75.2627 36.2466 75.7411L35.889 76.118C35.401 75.6058 34.9758 75.1999 34.6133 74.9051C34.3911 75.1902 34.1591 75.4608 33.9272 75.7169H35.3961V76.1663H33.8885V75.7556C33.6179 76.0358 33.3328 76.2968 33.0381 76.5432H33.0332ZM33.1395 80.8148C33.2652 80.7762 33.3328 80.7085 33.3328 80.607V76.6544H35.7924V79.3217H33.845V80.6698C34.3717 80.5249 34.8405 80.3751 35.2464 80.2301C35.1449 80.0272 35.0434 79.8436 34.9468 79.6744L35.3961 79.5343C35.6281 79.9354 35.8455 80.3558 36.0292 80.8003C36.6332 80.3268 37.0342 79.7566 37.2517 79.0849C37.4353 78.4422 37.5319 77.6208 37.5319 76.635H38.0345C38.0345 77.0893 38.0103 77.5145 37.9717 77.901C38.3341 79.2009 38.9767 80.2301 39.8997 80.9888L39.5373 81.414C38.7786 80.7327 38.2133 79.8822 37.8267 78.8771L37.759 79.1622C37.5174 80.0658 36.9714 80.81 36.1113 81.3898L35.8117 81.0129L35.6329 81.0999C35.5701 80.9356 35.5073 80.7907 35.4493 80.6505C34.8211 80.8825 34.1108 81.0854 33.3135 81.2594L33.1492 80.8196L33.1395 80.8148ZM35.2898 77.1182H33.845V77.7512H35.2898V77.1182ZM33.845 78.8433H35.2898V78.2103H33.845V78.8433ZM37.4546 74.3639C37.4015 74.7795 37.329 75.1757 37.2517 75.5333H39.6049V75.8909C39.4889 76.5577 39.3343 77.2149 39.1507 77.8624L38.6192 77.7078C38.7883 77.2294 38.9381 76.6785 39.0444 76.0697H37.126C36.9424 76.7123 36.7008 77.239 36.4061 77.6401L35.9808 77.3405C36.4737 76.606 36.7926 75.5865 36.9376 74.2866L37.4546 74.3736V74.3639Z" fill="white"/>
<path d="M51.6657 75.9101C52.3132 76.6687 53.4198 77.3259 54.9999 77.8961L54.7003 78.3696C53.2458 77.8381 52.1537 77.1713 51.4434 76.3836C50.593 77.2486 49.5106 77.9154 48.2107 78.389L47.9111 77.9154C49.3511 77.4032 50.4577 76.7315 51.2308 75.9101H51.6705H51.6657ZM49.786 74.9292V74.3203H50.3369V74.9292H51.255V75.4317H50.3369V76.0889H49.786V75.4317H48.1141V74.9292H49.786ZM50.3272 79.4858C49.8536 80.1334 49.298 80.6987 48.6504 81.1723L48.2107 80.8533C48.8534 80.404 49.4091 79.8724 49.873 79.2539L50.332 79.4858H50.3272ZM51.7188 77.4274V78.3261H53.7242V78.8577H51.7188V81.3704H51.1776V78.8577H49.1288V78.3261H51.1776V77.4274H51.7188ZM53.1202 74.3203V74.9292H54.7921V75.4317H53.1202V76.0889H52.5693V75.4317H51.6415V74.9292H52.5693V74.3203H53.1202ZM54.7196 80.863L54.2799 81.1819C53.8546 80.6552 53.2748 80.085 52.5451 79.452L52.98 79.1911C53.7387 79.8338 54.3185 80.3895 54.7196 80.8678V80.863Z" fill="white"/>
<path d="M13.9414 78.0702C14.1495 78.0702 14.3183 77.9015 14.3183 77.6933C14.3183 77.4852 14.1495 77.3164 13.9414 77.3164C13.7332 77.3164 13.5645 77.4852 13.5645 77.6933C13.5645 77.9015 13.7332 78.0702 13.9414 78.0702Z" fill="white"/>
<path d="M28.6167 78.0702C28.8248 78.0702 28.9936 77.9015 28.9936 77.6933C28.9936 77.4852 28.8248 77.3164 28.6167 77.3164C28.4085 77.3164 28.2397 77.4852 28.2397 77.6933C28.2397 77.9015 28.4085 78.0702 28.6167 78.0702Z" fill="white"/>
<path d="M43.9633 78.0702C44.1715 78.0702 44.3402 77.9015 44.3402 77.6933C44.3402 77.4852 44.1715 77.3164 43.9633 77.3164C43.7552 77.3164 43.5864 77.4852 43.5864 77.6933C43.5864 77.9015 43.7552 78.0702 43.9633 78.0702Z" fill="white"/>
<path d="M44.5627 1.0075C43.1469 -0.335832 40.8517 -0.335832 39.4359 1.0075L36.1307 4.14837C33.9997 3.01283 31.545 2.36049 28.9308 2.36049C20.7984 2.36049 14.1832 8.64708 14.1832 16.3688C14.1832 20.5824 16.1547 24.3611 19.2569 26.9318C15.8068 29.604 13.5937 33.6726 13.5937 38.2245C13.5937 40.1042 13.9754 41.8969 14.6664 43.5495L20.8757 37.6543C21.185 33.6871 24.6737 30.5462 28.9308 30.5462C33.1879 30.5462 37.015 33.9915 37.015 38.2245C37.015 42.4574 33.3909 45.9027 28.9308 45.9027C25.1956 45.9027 22.0547 43.4818 21.1318 40.2056L15.6232 45.4388L12.3228 48.57C10.907 49.9134 10.907 52.0927 12.3228 53.4408C13.0283 54.1125 13.9561 54.4507 14.8839 54.4507C15.8116 54.4507 16.7394 54.1125 17.4449 53.4408L20.6003 50.4401C22.997 51.9187 25.8576 52.7836 28.926 52.7836C37.3822 52.7836 44.2583 46.2506 44.2583 38.2196C44.2583 33.6678 42.05 29.5991 38.5951 26.927C41.7021 24.3563 43.6688 20.5776 43.6688 16.364C43.6688 14.3538 43.2146 12.4451 42.4076 10.7152L36.4206 16.4026C36.3965 20.3118 33.043 23.4865 28.926 23.4865C24.809 23.4865 21.4266 20.2925 21.4266 16.364C21.4266 12.4355 24.7897 9.24143 28.926 9.24143C32.1925 9.24143 34.971 11.2371 35.9954 14.0107L41.388 8.88868L44.5579 5.87827C45.9737 4.53494 45.9737 2.35566 44.5579 1.0075H44.5627Z" fill="white"/>
<path d="M8.96917 24.3418C8.96917 24.3418 8.94501 24.3418 8.93052 24.3418C8.75656 24.3273 4.60576 23.9842 2.57627 22.264C2.48929 22.1866 2.40232 22.1093 2.325 22.032C1.68233 21.3893 1.32959 20.5341 1.32959 19.6256C1.32959 18.7172 1.68233 17.8619 2.325 17.2144C3.65384 15.8856 5.81379 15.8856 7.13779 17.2144C7.21027 17.2869 7.28759 17.3739 7.35524 17.4512C9.08514 19.4952 9.43305 23.6411 9.44754 23.8199C9.45721 23.96 9.4089 24.1002 9.30742 24.2016C9.21561 24.2935 9.0948 24.3418 8.96433 24.3418H8.96917ZM4.73623 17.1854C4.08389 17.1854 3.47022 17.4367 3.01117 17.9006C2.54729 18.3596 2.29601 18.9733 2.29601 19.6256C2.29601 20.278 2.55212 20.8868 3.01117 21.3459C3.07399 21.4087 3.14646 21.4715 3.21411 21.5295C4.5816 22.6892 7.2441 23.1531 8.42314 23.3077C8.26851 22.1287 7.80463 19.4662 6.63526 18.089C6.57728 18.0262 6.51928 17.9585 6.45646 17.8957C5.99741 17.4367 5.38374 17.1854 4.73141 17.1854H4.73623Z" fill="white"/>
<path d="M3.84237 35.4893C2.60052 35.4893 1.38281 34.8902 0.643498 33.7836C-0.530707 32.0247 -0.0523211 29.6376 1.70657 28.4634C1.80804 28.3958 1.91919 28.3281 2.03033 28.2653C4.69283 26.7915 9.41863 27.3327 9.61674 27.3569C9.75688 27.3714 9.88251 27.4487 9.95982 27.5695C10.0371 27.6855 10.0613 27.8353 10.0226 27.9706C9.96949 28.1639 8.65515 32.735 6.27775 34.6196C6.17144 34.7017 6.06998 34.779 5.9685 34.8467C5.31617 35.2816 4.57685 35.4893 3.84237 35.4893ZM7.34566 28.2073C5.82354 28.2073 3.82787 28.3716 2.50387 29.1013C2.42172 29.1496 2.32991 29.2028 2.24293 29.2607C0.92376 30.1402 0.571018 31.9232 1.44563 33.2424C2.32508 34.5616 4.11297 34.9143 5.42731 34.0397C5.51428 33.9817 5.60126 33.9141 5.68341 33.8513C7.35049 32.5273 8.4957 29.512 8.9161 28.2605C8.52953 28.2315 7.97867 28.2025 7.34566 28.2025V28.2073Z" fill="white"/>
<path d="M7.56318 66.7148C7.34091 66.536 7.08964 66.42 6.81421 66.3765C7.21045 66.246 7.52936 66.0383 7.77096 65.7483C8.0174 65.4536 8.13821 65.0767 8.13821 64.6273C8.13821 64.2649 8.0464 63.9411 7.86761 63.6512C7.68399 63.3613 7.41339 63.1342 7.05098 62.965C6.68857 62.7911 6.24885 62.7041 5.73664 62.7041H3.021V70.2809H5.84779C6.35516 70.2809 6.79488 70.1939 7.16213 70.0199C7.53903 69.8411 7.82412 69.5947 8.02224 69.2903C8.21553 68.981 8.31699 68.6331 8.31699 68.2465C8.31699 67.9421 8.24935 67.657 8.10922 67.3864C7.97875 67.1207 7.79996 66.8935 7.56802 66.7148H7.56318ZM4.01157 63.5207H5.65451C6.13289 63.5207 6.50012 63.627 6.75139 63.8445C7.00266 64.0619 7.13313 64.3615 7.13313 64.7481C7.13313 65.1347 7.00749 65.4342 6.75139 65.6517C6.50012 65.8691 6.13771 65.9754 5.67382 65.9754H4.01157V63.5207ZM6.91085 69.1163C6.63541 69.3483 6.25369 69.4642 5.76081 69.4642H4.01157V66.7921H5.72699C6.2102 66.7921 6.6016 66.9129 6.89153 67.1593C7.18145 67.3961 7.32642 67.7295 7.32642 68.1499C7.32642 68.5703 7.18628 68.8844 6.91568 69.1163H6.91085Z" fill="white"/>
<path d="M53.1686 62.6943V68.7152L49.1918 62.6943H48.2012V70.2808H49.1918V64.2503L53.1686 70.2808H54.1592V62.6943H53.1686Z" fill="white"/>
<path d="M44.0988 63.1198C43.5189 62.7864 42.8762 62.6221 42.1659 62.6221C41.4556 62.6221 40.8226 62.7864 40.2427 63.1198C39.6629 63.4435 39.2038 63.9074 38.8608 64.5018C38.5273 65.0865 38.363 65.7533 38.363 66.4926C38.363 67.2319 38.5273 67.8987 38.8608 68.4931C39.199 69.0778 39.6629 69.5417 40.2427 69.8751C40.8226 70.1988 41.4653 70.3631 42.1659 70.3631C42.8666 70.3631 43.5189 70.1988 44.0988 69.8751C44.6786 69.5417 45.1328 69.0826 45.4663 68.4931C45.7997 67.9084 45.964 67.2416 45.964 66.4926C45.964 65.7436 45.7948 65.0816 45.4663 64.4921C45.1328 63.9074 44.6786 63.4484 44.0988 63.1246V63.1198ZM44.5868 68.0775C44.35 68.5317 44.0166 68.8845 43.5866 69.1309C43.1662 69.3774 42.6926 69.4982 42.1611 69.4982C41.6296 69.4982 41.156 69.3774 40.726 69.1309C40.3056 68.8845 39.9721 68.5317 39.7257 68.0775C39.4889 67.6233 39.3681 67.0918 39.3681 66.4926C39.3681 65.8934 39.4889 65.357 39.7257 64.9077C39.9721 64.4534 40.3056 64.1007 40.726 63.8543C41.1463 63.6078 41.6247 63.487 42.1611 63.487C42.6975 63.487 43.1758 63.6078 43.5962 63.8543C44.0166 64.1007 44.3452 64.4534 44.5868 64.9077C44.8332 65.357 44.9541 65.8837 44.9541 66.4926C44.9541 67.1014 44.8332 67.6233 44.5868 68.0775Z" fill="white"/>
<path d="M16.2851 63.1198C15.7052 62.7864 15.0625 62.6221 14.3522 62.6221C13.6419 62.6221 13.0089 62.7864 12.429 63.1198C11.8492 63.4435 11.3901 63.9074 11.047 64.5018C10.7136 65.0865 10.5493 65.7533 10.5493 66.4926C10.5493 67.2319 10.7136 67.8987 11.047 68.4931C11.3853 69.0778 11.8492 69.5417 12.429 69.8751C13.0089 70.1988 13.6515 70.3631 14.3522 70.3631C15.0529 70.3631 15.7052 70.1988 16.2851 69.8751C16.8649 69.5417 17.3191 69.0826 17.6525 68.4931C17.986 67.9084 18.1502 67.2416 18.1502 66.4926C18.1502 65.7436 17.986 65.0816 17.6525 64.4921C17.3191 63.9074 16.8649 63.4484 16.2851 63.1246V63.1198ZM16.7731 68.0775C16.5363 68.5317 16.2029 68.8845 15.7728 69.1309C15.3524 69.3774 14.8789 69.4982 14.3474 69.4982C13.8158 69.4982 13.3423 69.3774 12.9122 69.1309C12.4918 68.8845 12.1584 68.5317 11.912 68.0775C11.6752 67.6233 11.5544 67.0918 11.5544 66.4926C11.5544 65.8934 11.6752 65.357 11.912 64.9077C12.1584 64.4534 12.4918 64.1007 12.9122 63.8543C13.3326 63.6078 13.811 63.487 14.3474 63.487C14.8837 63.487 15.3621 63.6078 15.7825 63.8543C16.2029 64.1007 16.5315 64.4534 16.7731 64.9077C17.0195 65.357 17.1403 65.8837 17.1403 66.4926C17.1403 67.1014 17.0195 67.6233 16.7731 68.0775Z" fill="white"/>
<path d="M27.6452 66.4684C27.3408 66.3331 26.9397 66.193 26.4372 66.0577C26.0265 65.9417 25.7027 65.8403 25.4708 65.7533C25.2485 65.6615 25.0552 65.5262 24.8957 65.3522C24.7459 65.1783 24.6686 64.956 24.6686 64.6806C24.6686 64.2988 24.7991 63.9992 25.06 63.7914C25.321 63.574 25.6592 63.4677 26.07 63.4677C26.5097 63.4677 26.8672 63.5788 27.133 63.8059C27.3988 64.0234 27.5534 64.2746 27.5872 64.5646H28.6745C28.6165 63.9799 28.3604 63.5063 27.9013 63.1536C27.4519 62.8009 26.8721 62.6221 26.1618 62.6221C25.6689 62.6221 25.2292 62.709 24.8474 62.883C24.4705 63.057 24.1758 63.3034 23.968 63.6223C23.7554 63.9412 23.6539 64.3085 23.6539 64.7192C23.6539 65.1879 23.7602 65.5648 23.968 65.8499C24.1854 66.1254 24.4415 66.3283 24.7411 66.4588C25.0455 66.5892 25.4466 66.7197 25.9492 66.8502C26.3551 66.9565 26.6788 67.058 26.9156 67.1546C27.1524 67.2464 27.3553 67.3865 27.5148 67.5653C27.6742 67.7441 27.7515 67.9809 27.7515 68.2708C27.7515 68.6381 27.6162 68.9425 27.3408 69.1841C27.075 69.416 26.703 69.532 26.2342 69.532C25.7655 69.532 25.3645 69.4112 25.1035 69.1744C24.8523 68.928 24.7073 68.6284 24.6686 68.2708H23.6152C23.6201 68.6815 23.736 69.0488 23.9631 69.3677C24.1854 69.677 24.4947 69.9234 24.8861 70.107C25.2823 70.281 25.7317 70.368 26.2342 70.368C26.7368 70.368 27.2103 70.2665 27.5921 70.0635C27.9738 69.8606 28.2637 69.5948 28.4618 69.2711C28.66 68.9473 28.7566 68.5994 28.7566 68.2273C28.7566 67.7489 28.6455 67.372 28.4329 67.0966C28.2154 66.8163 27.9545 66.6086 27.6501 66.4781L27.6452 66.4684Z" fill="white"/>
<path d="M35.0192 66.4684C34.7148 66.3331 34.3138 66.193 33.8112 66.0577C33.4005 65.9417 33.0767 65.8403 32.8448 65.7533C32.6225 65.6615 32.4292 65.5262 32.2698 65.3522C32.12 65.1783 32.0427 64.956 32.0427 64.6806C32.0427 64.2988 32.1731 63.9992 32.4341 63.7914C32.695 63.574 33.0332 63.4677 33.444 63.4677C33.8837 63.4677 34.2413 63.5788 34.507 63.8059C34.7728 64.0234 34.9274 64.2746 34.9613 64.5646H36.0485C35.9905 63.9799 35.7344 63.5063 35.2753 63.1536C34.826 62.8009 34.2461 62.6221 33.5358 62.6221C33.0429 62.6221 32.6032 62.709 32.2214 62.883C31.8445 63.057 31.5498 63.3034 31.342 63.6223C31.1342 63.9412 31.0279 64.3085 31.0279 64.7192C31.0279 65.1879 31.1342 65.5648 31.342 65.8499C31.5594 66.1254 31.8155 66.3283 32.1151 66.4588C32.4196 66.5892 32.8206 66.7197 33.3232 66.8502C33.7291 66.9565 34.0528 67.058 34.2896 67.1546C34.5264 67.2464 34.7293 67.3865 34.8888 67.5653C35.0482 67.7441 35.1255 67.9809 35.1255 68.2708C35.1255 68.6381 34.9902 68.9425 34.7148 69.1841C34.4491 69.416 34.077 69.532 33.6083 69.532C33.1395 69.532 32.7385 69.4112 32.4775 69.1744C32.2263 68.928 32.0813 68.6284 32.0427 68.2708H30.9893C30.9989 68.6815 31.1101 69.0488 31.3372 69.3677C31.5594 69.677 31.8687 69.9234 32.2601 70.107C32.6563 70.281 33.1057 70.368 33.6083 70.368C34.1108 70.368 34.5843 70.2665 34.9661 70.0635C35.3478 69.8606 35.6378 69.5948 35.8359 69.2711C36.034 68.9473 36.1306 68.5994 36.1306 68.2273C36.1306 67.7489 36.0195 67.372 35.8069 67.0966C35.5894 66.8163 35.3285 66.6086 35.0241 66.4781L35.0192 66.4684Z" fill="white"/>
<path d="M21.378 62.7041H20.3875V70.2809H21.378V62.7041Z" fill="white"/>
</svg>
