<svg width="193" height="229" viewBox="0 0 193 229" fill="none" xmlns="http://www.w3.org/2000/svg">
<path fill-rule="evenodd" clip-rule="evenodd" d="M16.0123 0.565281C25.3651 -0.256388 33.6132 6.65948 34.4348 16.0123L49.6812 189.558C49.908 192.14 52.0702 194.12 54.662 194.12H138.338C140.93 194.12 143.092 192.14 143.319 189.558L158.565 16.0123C159.387 6.65948 167.635 -0.256386 176.988 0.565281C186.341 1.38695 193.257 9.635 192.435 18.9878L175.425 212.608C174.654 221.386 167.302 228.12 158.49 228.12H34.5101C25.6978 228.12 18.3465 221.386 17.5753 212.608L0.565281 18.9878C-0.256388 9.635 6.65948 1.38695 16.0123 0.565281Z" fill="white"/>
<path d="M17.5 17.5L34.51 211.12H158.49L175.5 17.5" stroke="#78BEC8" stroke-width="16" stroke-linecap="round" stroke-linejoin="round"/>
</svg>
