<svg width="19" height="19" viewBox="0 0 19 19" fill="none" xmlns="http://www.w3.org/2000/svg">
<g clip-path="url(#clip0_208_85)">
<path d="M0.496094 2.32684C0.496094 1.91713 0.824602 1.58751 1.23294 1.58751H2.62987C3.3053 1.58751 3.90399 1.98182 4.18337 2.57328H16.8018C17.6092 2.57328 18.1987 3.34342 17.9869 4.12588L16.7281 8.81755C16.4671 9.78485 15.5921 10.4595 14.5943 10.4595H5.73688L5.90267 11.3374C5.97022 11.6855 6.27416 11.9381 6.62723 11.9381H15.4785C15.8869 11.9381 16.2154 12.2678 16.2154 12.6775C16.2154 13.0872 15.8869 13.4168 15.4785 13.4168H6.62723C5.56495 13.4168 4.65311 12.659 4.45662 11.6147L2.87241 3.26641C2.85092 3.14935 2.7496 3.06617 2.62987 3.06617H1.23294C0.824602 3.06617 0.496094 2.73655 0.496094 2.32684ZM4.42592 15.8812C4.42592 15.6871 4.46404 15.4948 4.5381 15.3154C4.61215 15.136 4.72071 14.973 4.85755 14.8357C4.99439 14.6984 5.15685 14.5895 5.33565 14.5151C5.51444 14.4408 5.70608 14.4026 5.8996 14.4026C6.09313 14.4026 6.28476 14.4408 6.46356 14.5151C6.64235 14.5895 6.80481 14.6984 6.94165 14.8357C7.0785 14.973 7.18705 15.136 7.26111 15.3154C7.33517 15.4948 7.37329 15.6871 7.37329 15.8812C7.37329 16.0754 7.33517 16.2677 7.26111 16.4471C7.18705 16.6265 7.0785 16.7895 6.94165 16.9268C6.80481 17.0641 6.64235 17.173 6.46356 17.2474C6.28476 17.3217 6.09313 17.3599 5.8996 17.3599C5.70608 17.3599 5.51444 17.3217 5.33565 17.2474C5.15685 17.173 4.99439 17.0641 4.85755 16.9268C4.72071 16.7895 4.61215 16.6265 4.5381 16.4471C4.46404 16.2677 4.42592 16.0754 4.42592 15.8812ZM14.7417 14.4026C15.1326 14.4026 15.5074 14.5584 15.7838 14.8357C16.0601 15.113 16.2154 15.4891 16.2154 15.8812C16.2154 16.2734 16.0601 16.6495 15.7838 16.9268C15.5074 17.2041 15.1326 17.3599 14.7417 17.3599C14.3509 17.3599 13.976 17.2041 13.6997 16.9268C13.4233 16.6495 13.268 16.2734 13.268 15.8812C13.268 15.4891 13.4233 15.113 13.6997 14.8357C13.976 14.5584 14.3509 14.4026 14.7417 14.4026Z" fill="#78BEC8"/>
</g>
<defs>
<clipPath id="clip0_208_85">
<rect width="17.5342" height="15.7724" fill="white" transform="translate(0.496094 1.58751)"/>
</clipPath>
</defs>
</svg>
