<?xml version="1.0" encoding="utf-8"?>
<!-- Generator: Adobe Illustrator 27.0.0, SVG Export Plug-In . SVG Version: 6.00 Build 0)  -->
<svg version="1.1" id="圖層_1" xmlns="http://www.w3.org/2000/svg" xmlns:xlink="http://www.w3.org/1999/xlink" x="0px" y="0px"
	 viewBox="0 0 65.5 82.3" style="enable-background:new 0 0 65.5 82.3;" xml:space="preserve">
<style type="text/css">
	.st0{fill:#FFFFFF;}
</style>
<path class="st0" d="M4.7,78.4c-0.2,0.1-0.4,0.2-0.7,0.3v2.3c0,0.4-0.2,0.7-0.6,0.7H2.8l-0.1-0.5c0.2,0,0.4,0,0.5,0
	c0.2,0,0.2-0.1,0.2-0.3v-1.9C3.2,79,3,79,2.7,79.1l-0.1-0.5c0.3-0.1,0.6-0.1,0.9-0.2v-1.8H2.7V76h0.8v-1.4H4V76h0.6v0.5H4v1.6
	c0.2-0.1,0.5-0.2,0.7-0.3V78.4z M7.2,74.8v2.5H5.9c0,0.3,0,0.7-0.1,1h1.3c0,1.4,0,2.3-0.1,2.6c-0.1,0.5-0.4,0.7-1,0.7
	c-0.1,0-0.2,0-0.4,0l-0.1-0.5c0.2,0,0.3,0,0.5,0c0.3,0,0.5-0.1,0.5-0.4c0-0.2,0.1-0.9,0.1-1.9H5.8c-0.2,1.3-0.5,2.3-1.1,2.9
	l-0.4-0.3c0.7-0.7,1.1-2,1.1-4H5v-2.5L7.2,74.8L7.2,74.8z M6.7,75.3H5.5v1.5h1.2V75.3z M8.3,75.3v4.8H7.8v-4.8H8.3z M7.9,81.6
	l-0.1-0.5c0.3,0,0.6,0,0.9,0c0.2,0,0.3-0.1,0.3-0.3v-6.2h0.5V81c0,0.4-0.2,0.6-0.6,0.6H7.9L7.9,81.6z"/>
<path class="st0" d="M23.4,74.8H24v1.1h-2.6c0.1,0.2,0.1,0.3,0.2,0.5h3v0.5H18v-0.5h3c-0.1-0.2-0.2-0.4-0.2-0.5h-2.2v-1.1h0.5v0.7
	H21v-0.9h0.5v0.9h1.9L23.4,74.8L23.4,74.8z M22.8,81.6l-0.1-0.4h-2.9v-1.3h3v1.2l0.6,0c0.2,0,0.4-0.1,0.4-0.3v-1.4h-4.9v2.2h-0.5
	v-2.6h6V81c0,0.4-0.2,0.6-0.7,0.6H22.8L22.8,81.6z M23.4,77.4v1.3h-4.2v-1.3H23.4z M22.8,77.8h-3.1v0.5h3.1V77.8z M22.2,80.3h-2v0.5
	h2V80.3z"/>
<path class="st0" d="M33,76.8l-0.3-0.4c0.6-0.5,1.2-1.1,1.7-1.8h0.4c0.5,0.4,1,0.9,1.5,1.4l-0.4,0.4c-0.5-0.5-0.9-0.9-1.3-1.2
	c-0.2,0.3-0.5,0.6-0.7,0.8h1.5v0.4h-1.5V76C33.6,76.3,33.3,76.6,33,76.8L33,76.8z M33.1,81.1c0.1,0,0.2-0.1,0.2-0.2v-4h2.5v2.7h-1.9
	V81c0.5-0.1,1-0.3,1.4-0.4c-0.1-0.2-0.2-0.4-0.3-0.6l0.4-0.1c0.2,0.4,0.4,0.8,0.6,1.3c0.6-0.5,1-1,1.2-1.7c0.2-0.6,0.3-1.5,0.3-2.4
	H38c0,0.5,0,0.9-0.1,1.3c0.4,1.3,1,2.3,1.9,3.1l-0.4,0.4c-0.8-0.7-1.3-1.5-1.7-2.5l-0.1,0.3c-0.2,0.9-0.8,1.6-1.6,2.2l-0.3-0.4
	l-0.2,0.1c-0.1-0.2-0.1-0.3-0.2-0.4c-0.6,0.2-1.3,0.4-2.1,0.6L33.1,81.1L33.1,81.1z M35.3,77.4h-1.4V78h1.4V77.4z M33.8,79.1h1.4
	v-0.6h-1.4V79.1z M37.5,74.6c-0.1,0.4-0.1,0.8-0.2,1.2h2.4v0.4c-0.1,0.7-0.3,1.3-0.5,2L38.6,78c0.2-0.5,0.3-1,0.4-1.6h-1.9
	c-0.2,0.6-0.4,1.2-0.7,1.6L36,77.6c0.5-0.7,0.8-1.8,1-3.1L37.5,74.6L37.5,74.6z"/>
<path class="st0" d="M51.7,76.2c0.6,0.8,1.8,1.4,3.3,2l-0.3,0.5c-1.5-0.5-2.5-1.2-3.3-2c-0.9,0.9-1.9,1.5-3.2,2l-0.3-0.5
	c1.4-0.5,2.5-1.2,3.3-2H51.7L51.7,76.2z M49.8,75.2v-0.6h0.6v0.6h0.9v0.5h-0.9v0.7h-0.6v-0.7h-1.7v-0.5H49.8z M50.3,79.8
	c-0.5,0.6-1,1.2-1.7,1.7l-0.4-0.3c0.6-0.4,1.2-1,1.7-1.6L50.3,79.8L50.3,79.8z M51.7,77.7v0.9h2v0.5h-2v2.5h-0.5v-2.5h-2v-0.5h2
	v-0.9H51.7z M53.1,74.6v0.6h1.7v0.5h-1.7v0.7h-0.6v-0.7h-0.9v-0.5h0.9v-0.6H53.1z M54.7,81.1l-0.4,0.3c-0.4-0.5-1-1.1-1.7-1.7
	l0.4-0.3C53.7,80.1,54.3,80.7,54.7,81.1L54.7,81.1z"/>
<path class="st0" d="M13.9,78.4c0.2,0,0.4-0.2,0.4-0.4c0-0.2-0.2-0.4-0.4-0.4c-0.2,0-0.4,0.2-0.4,0.4C13.6,78.2,13.7,78.4,13.9,78.4
	z"/>
<path class="st0" d="M28.6,78.4c0.2,0,0.4-0.2,0.4-0.4c0-0.2-0.2-0.4-0.4-0.4c-0.2,0-0.4,0.2-0.4,0.4C28.2,78.2,28.4,78.4,28.6,78.4
	z"/>
<path class="st0" d="M44,78.4c0.2,0,0.4-0.2,0.4-0.4c0-0.2-0.2-0.4-0.4-0.4c-0.2,0-0.4,0.2-0.4,0.4C43.6,78.2,43.8,78.4,44,78.4z"/>
<path class="st0" d="M44.6,1.3c-1.4-1.3-3.7-1.3-5.1,0l-3.3,3.1c-2.1-1.1-4.6-1.8-7.2-1.8c-8.1,0-14.7,6.3-14.7,14
	c0,4.2,2,8,5.1,10.6c-3.5,2.7-5.7,6.7-5.7,11.3c0,1.9,0.4,3.7,1.1,5.3l6.2-5.9c0.3-4,3.8-7.1,8.1-7.1s8.1,3.4,8.1,7.7
	c0,4.2-3.6,7.7-8.1,7.7c-3.7,0-6.9-2.4-7.8-5.7l-5.5,5.2l-3.3,3.1c-1.4,1.3-1.4,3.5,0,4.9c0.7,0.7,1.6,1,2.6,1c0.9,0,1.9-0.3,2.6-1
	l3.2-3c2.4,1.5,5.3,2.3,8.3,2.3c8.5,0,15.3-6.5,15.3-14.6c0-4.6-2.2-8.6-5.7-11.3c3.1-2.6,5.1-6.3,5.1-10.6c0-2-0.5-3.9-1.3-5.6
	l-6,5.7c0,3.9-3.4,7.1-7.5,7.1s-7.5-3.2-7.5-7.1s3.4-7.1,7.5-7.1c3.3,0,6,2,7.1,4.8l5.4-5.1l3.2-3C46,4.8,46,2.6,44.6,1.3L44.6,1.3z
	"/>
<path class="st0" d="M9,24.6C9,24.6,8.9,24.6,9,24.6c-0.2,0-4.4-0.4-6.4-2.1c-0.1-0.1-0.2-0.2-0.3-0.2c-0.6-0.6-1-1.5-1-2.4
	c0-0.9,0.4-1.8,1-2.4c1.3-1.3,3.5-1.3,4.8,0c0.1,0.1,0.1,0.2,0.2,0.2c1.7,2,2.1,6.2,2.1,6.4c0,0.1,0,0.3-0.1,0.4
	C9.2,24.6,9.1,24.6,9,24.6L9,24.6z M4.7,17.5c-0.7,0-1.3,0.3-1.7,0.7c-0.5,0.5-0.7,1.1-0.7,1.7c0,0.7,0.3,1.3,0.7,1.7
	c0.1,0.1,0.1,0.1,0.2,0.2c1.4,1.2,4,1.6,5.2,1.8c-0.2-1.2-0.6-3.8-1.8-5.2c-0.1-0.1-0.1-0.1-0.2-0.2C6,17.7,5.4,17.5,4.7,17.5
	L4.7,17.5z"/>
<path class="st0" d="M3.8,35.8c-1.2,0-2.5-0.6-3.2-1.7c-1.2-1.8-0.7-4.1,1.1-5.3c0.1-0.1,0.2-0.1,0.3-0.2c2.7-1.5,7.4-0.9,7.6-0.9
	c0.1,0,0.3,0.1,0.3,0.2c0.1,0.1,0.1,0.3,0.1,0.4C10,28.4,8.7,33,6.3,34.9C6.2,35,6.1,35.1,6,35.1C5.3,35.6,4.6,35.8,3.8,35.8z
	 M7.3,28.5c-1.5,0-3.5,0.2-4.8,0.9c-0.1,0-0.2,0.1-0.3,0.2c-1.3,0.9-1.7,2.7-0.8,4c0.9,1.3,2.7,1.7,4,0.8c0.1-0.1,0.2-0.1,0.3-0.2
	c1.7-1.3,2.8-4.3,3.2-5.6C8.5,28.5,8,28.5,7.3,28.5L7.3,28.5z"/>
<path class="st0" d="M7.6,67c-0.2-0.2-0.5-0.3-0.7-0.3c0.4-0.1,0.7-0.3,1-0.6c0.2-0.3,0.4-0.7,0.4-1.1c0-0.4-0.1-0.7-0.3-1
	c-0.2-0.3-0.5-0.5-0.8-0.7C6.7,63.1,6.2,63,5.7,63H3v7.6h2.8c0.5,0,0.9-0.1,1.3-0.3c0.4-0.2,0.7-0.4,0.9-0.7c0.2-0.3,0.3-0.7,0.3-1
	c0-0.3-0.1-0.6-0.2-0.9C8,67.4,7.8,67.2,7.6,67L7.6,67z M4,63.8h1.6c0.5,0,0.8,0.1,1.1,0.3C7,64.3,7.1,64.6,7.1,65S7,65.7,6.8,65.9
	c-0.3,0.2-0.6,0.3-1.1,0.3H4V63.8z M6.9,69.4c-0.3,0.2-0.7,0.3-1.2,0.3H4v-2.7h1.7c0.5,0,0.9,0.1,1.2,0.4c0.3,0.2,0.4,0.6,0.4,1
	C7.3,68.9,7.2,69.2,6.9,69.4L6.9,69.4z"/>
<path class="st0" d="M53.2,63v6l-4-6h-1v7.6h1v-6l4,6h1V63H53.2z"/>
<path class="st0" d="M44.1,63.4c-0.6-0.3-1.2-0.5-1.9-0.5s-1.3,0.2-1.9,0.5c-0.6,0.3-1,0.8-1.4,1.4c-0.3,0.6-0.5,1.3-0.5,2
	c0,0.7,0.2,1.4,0.5,2c0.3,0.6,0.8,1,1.4,1.4c0.6,0.3,1.2,0.5,1.9,0.5c0.7,0,1.4-0.2,1.9-0.5c0.6-0.3,1-0.8,1.4-1.4
	c0.3-0.6,0.5-1.3,0.5-2s-0.2-1.4-0.5-2C45.1,64.2,44.7,63.7,44.1,63.4L44.1,63.4z M44.6,68.4c-0.2,0.5-0.6,0.8-1,1.1
	c-0.4,0.2-0.9,0.4-1.4,0.4c-0.5,0-1-0.1-1.4-0.4c-0.4-0.2-0.8-0.6-1-1.1c-0.2-0.5-0.4-1-0.4-1.6s0.1-1.1,0.4-1.6
	c0.2-0.5,0.6-0.8,1-1.1c0.4-0.2,0.9-0.4,1.4-0.4s1,0.1,1.4,0.4c0.4,0.2,0.7,0.6,1,1.1c0.2,0.4,0.4,1,0.4,1.6
	C45,67.4,44.8,67.9,44.6,68.4z"/>
<path class="st0" d="M16.3,63.4c-0.6-0.3-1.2-0.5-1.9-0.5c-0.7,0-1.3,0.2-1.9,0.5c-0.6,0.3-1,0.8-1.4,1.4c-0.3,0.6-0.5,1.3-0.5,2
	c0,0.7,0.2,1.4,0.5,2c0.3,0.6,0.8,1,1.4,1.4c0.6,0.3,1.2,0.5,1.9,0.5c0.7,0,1.4-0.2,1.9-0.5c0.6-0.3,1-0.8,1.4-1.4
	c0.3-0.6,0.5-1.3,0.5-2s-0.2-1.4-0.5-2C17.3,64.2,16.9,63.7,16.3,63.4L16.3,63.4z M16.8,68.4c-0.2,0.5-0.6,0.8-1,1.1
	c-0.4,0.2-0.9,0.4-1.4,0.4c-0.5,0-1-0.1-1.4-0.4c-0.4-0.2-0.8-0.6-1-1.1c-0.2-0.5-0.4-1-0.4-1.6s0.1-1.1,0.4-1.6
	c0.2-0.5,0.6-0.8,1-1.1c0.4-0.2,0.9-0.4,1.4-0.4c0.5,0,1,0.1,1.4,0.4c0.4,0.2,0.7,0.6,1,1.1c0.2,0.4,0.4,1,0.4,1.6
	C17.1,67.4,17,67.9,16.8,68.4z"/>
<path class="st0" d="M27.6,66.8c-0.3-0.1-0.7-0.3-1.2-0.4c-0.4-0.1-0.7-0.2-1-0.3c-0.2-0.1-0.4-0.2-0.6-0.4
	c-0.1-0.2-0.2-0.4-0.2-0.7c0-0.4,0.1-0.7,0.4-0.9c0.3-0.2,0.6-0.3,1-0.3c0.4,0,0.8,0.1,1.1,0.3c0.3,0.2,0.4,0.5,0.5,0.8h1.1
	c-0.1-0.6-0.3-1.1-0.8-1.4c-0.4-0.4-1-0.5-1.7-0.5c-0.5,0-0.9,0.1-1.3,0.3c-0.4,0.2-0.7,0.4-0.9,0.7c-0.2,0.3-0.3,0.7-0.3,1.1
	c0,0.5,0.1,0.8,0.3,1.1c0.2,0.3,0.5,0.5,0.8,0.6c0.3,0.1,0.7,0.3,1.2,0.4c0.4,0.1,0.7,0.2,1,0.3c0.2,0.1,0.4,0.2,0.6,0.4
	c0.2,0.2,0.2,0.4,0.2,0.7c0,0.4-0.1,0.7-0.4,0.9c-0.3,0.2-0.6,0.3-1.1,0.3c-0.5,0-0.9-0.1-1.1-0.4c-0.3-0.2-0.4-0.5-0.4-0.9h-1.1
	c0,0.4,0.1,0.8,0.3,1.1c0.2,0.3,0.5,0.6,0.9,0.7c0.4,0.2,0.8,0.3,1.3,0.3c0.5,0,1-0.1,1.4-0.3c0.4-0.2,0.7-0.5,0.9-0.8
	c0.2-0.3,0.3-0.7,0.3-1c0-0.5-0.1-0.9-0.3-1.1C28.2,67.1,28,66.9,27.6,66.8L27.6,66.8z"/>
<path class="st0" d="M35,66.8c-0.3-0.1-0.7-0.3-1.2-0.4c-0.4-0.1-0.7-0.2-1-0.3c-0.2-0.1-0.4-0.2-0.6-0.4C32.1,65.5,32,65.2,32,65
	c0-0.4,0.1-0.7,0.4-0.9c0.3-0.2,0.6-0.3,1-0.3c0.4,0,0.8,0.1,1.1,0.3c0.3,0.2,0.4,0.5,0.5,0.8H36c-0.1-0.6-0.3-1.1-0.8-1.4
	c-0.4-0.4-1-0.5-1.7-0.5c-0.5,0-0.9,0.1-1.3,0.3c-0.4,0.2-0.7,0.4-0.9,0.7C31.1,64.2,31,64.6,31,65c0,0.5,0.1,0.8,0.3,1.1
	c0.2,0.3,0.5,0.5,0.8,0.6c0.3,0.1,0.7,0.3,1.2,0.4c0.4,0.1,0.7,0.2,1,0.3c0.2,0.1,0.4,0.2,0.6,0.4c0.2,0.2,0.2,0.4,0.2,0.7
	c0,0.4-0.1,0.7-0.4,0.9c-0.3,0.2-0.6,0.3-1.1,0.3c-0.5,0-0.9-0.1-1.1-0.4c-0.3-0.2-0.4-0.5-0.4-0.9H31c0,0.4,0.1,0.8,0.3,1.1
	c0.2,0.3,0.5,0.6,0.9,0.7c0.4,0.2,0.8,0.3,1.3,0.3c0.5,0,1-0.1,1.4-0.3c0.4-0.2,0.7-0.5,0.9-0.8c0.2-0.3,0.3-0.7,0.3-1
	c0-0.5-0.1-0.9-0.3-1.1C35.6,67.1,35.3,66.9,35,66.8L35,66.8z"/>
<path class="st0" d="M21.4,63h-1v7.6h1V63z"/>
</svg>
